AfacadFlux-Thin.ufo
<glyph name="exclam" format="2">
  <advance width="480"/>
  <unicode hex="0021"/>
  <outline>
    <contour>
      <point x="222" y="270" type="line"/>
      <point x="258" y="270" type="line"/>
      <point x="261" y="900" type="line"/>
      <point x="219" y="900" type="line"/>
    </contour>
    <contour>
      <point x="240" y="-8" type="curve" smooth="yes"/>
      <point x="263" y="-8"/>
      <point x="282" y="11"/>
      <point x="282" y="34" type="curve" smooth="yes"/>
      <point x="282" y="57"/>
      <point x="263" y="76"/>
      <point x="240" y="76" type="curve" smooth="yes"/>
      <point x="217" y="76"/>
      <point x="198" y="57"/>
      <point x="198" y="34" type="curve" smooth="yes"/>
      <point x="198" y="11"/>
      <point x="217" y="-8"/>
    </contour>
  </outline>
</glyph>
<glyph name="numbersign" format="2">
  <advance width="750"/>
  <unicode hex="0023"/>
  <outline>
    <contour>
      <point x="148" y="0" type="line"/>
      <point x="188" y="0" type="line"/>
      <point x="231" y="258" type="line"/>
      <point x="453" y="258" type="line"/>
      <point x="410" y="0" type="line"/>
      <point x="450" y="0" type="line"/>
      <point x="493" y="258" type="line"/>
      <point x="629" y="258" type="line"/>
      <point x="635" y="294" type="line"/>
      <point x="499" y="294" type="line"/>
      <point x="551" y="606" type="line"/>
      <point x="683" y="606" type="line"/>
      <point x="689" y="642" type="line"/>
      <point x="557" y="642" type="line"/>
      <point x="600" y="900" type="line"/>
      <point x="560" y="900" type="line"/>
      <point x="517" y="642" type="line"/>
      <point x="295" y="642" type="line"/>
      <point x="338" y="900" type="line"/>
      <point x="298" y="900" type="line"/>
      <point x="255" y="642" type="line"/>
      <point x="121" y="642" type="line"/>
      <point x="115" y="606" type="line"/>
      <point x="249" y="606" type="line"/>
      <point x="197" y="294" type="line"/>
      <point x="67" y="294" type="line"/>
      <point x="61" y="258" type="line"/>
      <point x="191" y="258" type="line"/>
    </contour>
    <contour>
      <point x="237" y="294" type="line"/>
      <point x="289" y="606" type="line"/>
      <point x="511" y="606" type="line"/>
      <point x="459" y="294" type="line"/>
    </contour>
  </outline>
</glyph>
<glyph name="dollar" format="2">
  <advance width="750"/>
  <unicode hex="0024"/>
  <outline>
    <contour>
      <point x="372" y="-120" type="line"/>
      <point x="408" y="-120" type="line"/>
      <point x="408" y="-9" type="line"/>
      <point x="531" y="11"/>
      <point x="623" y="108"/>
      <point x="623" y="229" type="curve" smooth="yes"/>
      <point x="623" y="328"/>
      <point x="561" y="415"/>
      <point x="450" y="470" type="curve" smooth="yes"/>
      <point x="330" y="530" type="line" smooth="yes"/>
      <point x="245" y="573"/>
      <point x="202" y="630"/>
      <point x="202" y="702" type="curve" smooth="yes"/>
      <point x="202" y="800"/>
      <point x="279" y="873"/>
      <point x="383" y="873" type="curve" smooth="yes"/>
      <point x="451" y="873"/>
      <point x="520" y="842"/>
      <point x="569" y="785" type="curve"/>
      <point x="581" y="835" type="line"/>
      <point x="532" y="878"/>
      <point x="471" y="905"/>
      <point x="408" y="911" type="curve"/>
      <point x="408" y="990" type="line"/>
      <point x="372" y="990" type="line"/>
      <point x="372" y="912" type="line"/>
      <point x="252" y="906"/>
      <point x="159" y="816"/>
      <point x="159" y="703" type="curve" smooth="yes"/>
      <point x="159" y="617"/>
      <point x="214" y="540"/>
      <point x="310" y="492" type="curve" smooth="yes"/>
      <point x="430" y="432" type="line" smooth="yes"/>
      <point x="529" y="382"/>
      <point x="580" y="314"/>
      <point x="580" y="229" type="curve" smooth="yes"/>
      <point x="580" y="113"/>
      <point x="489" y="27"/>
      <point x="366" y="27" type="curve" smooth="yes"/>
      <point x="281" y="27"/>
      <point x="201" y="66"/>
      <point x="145" y="137" type="curve"/>
      <point x="133" y="87" type="line"/>
      <point x="194" y="24"/>
      <point x="277" y="-12"/>
      <point x="372" y="-12" type="curve"/>
    </contour>
  </outline>
</glyph>
<glyph name="ampersand" format="2">
  <advance width="800"/>
  <unicode hex="0026"/>
  <outline>
    <contour>
      <point x="378" y="-12" type="curve" smooth="yes"/>
      <point x="459" y="-12"/>
      <point x="541" y="23"/>
      <point x="618" y="96" type="curve"/>
      <point x="694" y="0" type="line"/>
      <point x="744" y="0" type="line"/>
      <point x="645" y="123" type="line"/>
      <point x="686" y="169"/>
      <point x="724" y="226"/>
      <point x="746" y="297" type="curve"/>
      <point x="718" y="335" type="line"/>
      <point x="702" y="266"/>
      <point x="669" y="202"/>
      <point x="625" y="151" type="curve"/>
      <point x="353" y="499" type="line"/>
      <point x="404" y="527" type="line" smooth="yes"/>
      <point x="515" y="588"/>
      <point x="566" y="649"/>
      <point x="566" y="729" type="curve" smooth="yes"/>
      <point x="566" y="830"/>
      <point x="483" y="912"/>
      <point x="377" y="912" type="curve" smooth="yes"/>
      <point x="271" y="912"/>
      <point x="186" y="830"/>
      <point x="186" y="725" type="curve" smooth="yes"/>
      <point x="186" y="679"/>
      <point x="202" y="634"/>
      <point x="248" y="573" type="curve" smooth="yes"/>
      <point x="296" y="509" type="line"/>
      <point x="168" y="442"/>
      <point x="108" y="356"/>
      <point x="108" y="250" type="curve" smooth="yes"/>
      <point x="108" y="100"/>
      <point x="228" y="-12"/>
    </contour>
    <contour>
      <point x="381" y="26" type="curve" smooth="yes"/>
      <point x="253" y="26"/>
      <point x="151" y="118"/>
      <point x="151" y="251" type="curve" smooth="yes"/>
      <point x="151" y="344"/>
      <point x="200" y="417"/>
      <point x="317" y="480" type="curve"/>
      <point x="599" y="123" type="line"/>
      <point x="525" y="58"/>
      <point x="456" y="26"/>
    </contour>
    <contour>
      <point x="332" y="528" type="line"/>
      <point x="287" y="590" type="line" smooth="yes"/>
      <point x="240" y="655"/>
      <point x="227" y="688"/>
      <point x="227" y="727" type="curve" smooth="yes"/>
      <point x="227" y="812"/>
      <point x="291" y="875"/>
      <point x="377" y="875" type="curve" smooth="yes"/>
      <point x="462" y="875"/>
      <point x="525" y="813"/>
      <point x="525" y="728" type="curve" smooth="yes"/>
      <point x="525" y="660"/>
      <point x="483" y="614"/>
      <point x="385" y="558" type="curve" smooth="yes"/>
    </contour>
  </outline>
</glyph>
<glyph name="quotesingle" format="2">
  <advance width="240"/>
  <unicode hex="0027"/>
  <outline>
    <contour>
      <point x="108" y="600" type="line"/>
      <point x="132" y="600" type="line"/>
      <point x="144" y="900" type="line"/>
      <point x="96" y="900" type="line"/>
    </contour>
  </outline>
</glyph>
<glyph name="parenleft" format="2">
  <advance width="480"/>
  <unicode hex="0028"/>
  <outline>
    <contour>
      <point x="305" y="-180" type="curve"/>
      <point x="354" y="-180" type="line"/>
      <point x="240" y="-14"/>
      <point x="180" y="182"/>
      <point x="180" y="390" type="curve" smooth="yes"/>
      <point x="180" y="598"/>
      <point x="240" y="794"/>
      <point x="354" y="960" type="curve"/>
      <point x="305" y="960" type="line"/>
      <point x="195" y="789"/>
      <point x="138" y="593"/>
      <point x="138" y="390" type="curve" smooth="yes"/>
      <point x="138" y="187"/>
      <point x="195" y="-9"/>
    </contour>
  </outline>
</glyph>
<glyph name="parenright" format="2">
  <advance width="480"/>
  <unicode hex="0029"/>
  <outline>
    <contour>
      <point x="126" y="-180" type="curve"/>
      <point x="176" y="-180" type="line"/>
      <point x="285" y="-7"/>
      <point x="342" y="189"/>
      <point x="342" y="390" type="curve" smooth="yes"/>
      <point x="342" y="591"/>
      <point x="285" y="787"/>
      <point x="176" y="960" type="curve"/>
      <point x="126" y="960" type="line"/>
      <point x="240" y="794"/>
      <point x="300" y="598"/>
      <point x="300" y="390" type="curve" smooth="yes"/>
      <point x="300" y="182"/>
      <point x="240" y="-14"/>
    </contour>
  </outline>
</glyph>
<glyph name="asterisk" format="2">
  <advance width="600"/>
  <unicode hex="002A"/>
  <outline>
    <contour>
      <point x="166" y="423" type="line"/>
      <point x="300" y="614" type="line"/>
      <point x="434" y="423" type="line"/>
      <point x="467" y="447" type="line"/>
      <point x="327" y="634" type="line"/>
      <point x="550" y="703" type="line"/>
      <point x="538" y="742" type="line"/>
      <point x="317" y="667" type="line"/>
      <point x="320" y="900" type="line"/>
      <point x="280" y="900" type="line"/>
      <point x="283" y="667" type="line"/>
      <point x="62" y="742" type="line"/>
      <point x="50" y="703" type="line"/>
      <point x="273" y="634" type="line"/>
      <point x="133" y="447" type="line"/>
    </contour>
  </outline>
</glyph>
<glyph name="plus" format="2">
  <advance width="750"/>
  <unicode hex="002B"/>
  <outline>
    <contour>
      <point x="356" y="145" type="line"/>
      <point x="394" y="145" type="line"/>
      <point x="394" y="432" type="line"/>
      <point x="680" y="432" type="line"/>
      <point x="680" y="468" type="line"/>
      <point x="394" y="468" type="line"/>
      <point x="394" y="755" type="line"/>
      <point x="356" y="755" type="line"/>
      <point x="356" y="468" type="line"/>
      <point x="70" y="468" type="line"/>
      <point x="70" y="432" type="line"/>
      <point x="356" y="432" type="line"/>
    </contour>
  </outline>
</glyph>
<glyph name="comma" format="2">
  <advance width="240"/>
  <unicode hex="002C"/>
  <outline>
    <contour>
      <point x="33" y="-150" type="curve"/>
      <point x="87" y="-150" type="line"/>
      <point x="143" y="-64"/>
      <point x="171" y="26"/>
      <point x="171" y="120" type="curve"/>
      <point x="129" y="120" type="line"/>
      <point x="129" y="13"/>
      <point x="93" y="-78"/>
    </contour>
  </outline>
</glyph>
<glyph name="hyphen" format="2">
  <advance width="340"/>
  <unicode hex="002D"/>
  <outline>
    <contour>
      <point x="30" y="282" type="line"/>
      <point x="310" y="282" type="line"/>
      <point x="310" y="318" type="line"/>
      <point x="30" y="318" type="line"/>
    </contour>
  </outline>
</glyph>
<glyph name="period" format="2">
  <advance width="240"/>
  <unicode hex="002E"/>
  <outline>
    <contour>
      <point x="120" y="-8" type="curve" smooth="yes"/>
      <point x="143" y="-8"/>
      <point x="162" y="11"/>
      <point x="162" y="34" type="curve" smooth="yes"/>
      <point x="162" y="57"/>
      <point x="143" y="76"/>
      <point x="120" y="76" type="curve" smooth="yes"/>
      <point x="97" y="76"/>
      <point x="78" y="57"/>
      <point x="78" y="34" type="curve" smooth="yes"/>
      <point x="78" y="11"/>
      <point x="97" y="-8"/>
    </contour>
  </outline>
</glyph>
<glyph name="slash" format="2">
  <advance width="440"/>
  <unicode hex="002F"/>
  <outline>
    <contour>
      <point x="-82" y="-180" type="line"/>
      <point x="-40" y="-180" type="line"/>
      <point x="522" y="960" type="line"/>
      <point x="480" y="960" type="line"/>
    </contour>
  </outline>
</glyph>
<glyph name="one" format="2">
  <advance width="750"/>
  <unicode hex="0031"/>
  <outline>
    <contour>
      <point x="174" y="0" type="line"/>
      <point x="636" y="0" type="line"/>
      <point x="636" y="36" type="line"/>
      <point x="450" y="36" type="line"/>
      <point x="450" y="920" type="line"/>
      <point x="448" y="920" type="line"/>
      <point x="174" y="780" type="line"/>
      <point x="174" y="738" type="line"/>
      <point x="408" y="858" type="line"/>
      <point x="408" y="36" type="line"/>
      <point x="174" y="36" type="line"/>
    </contour>
  </outline>
</glyph>
<glyph name="two" format="2">
  <advance width="750"/>
  <unicode hex="0032"/>
  <outline>
    <contour>
      <point x="132" y="0" type="line"/>
      <point x="636" y="0" type="line"/>
      <point x="636" y="40" type="line"/>
      <point x="209" y="40" type="line"/>
      <point x="529" y="476" type="line" smooth="yes"/>
      <point x="588" y="557"/>
      <point x="612" y="615"/>
      <point x="612" y="674" type="curve" smooth="yes"/>
      <point x="612" y="806"/>
      <point x="502" y="912"/>
      <point x="366" y="912" type="curve" smooth="yes"/>
      <point x="229" y="912"/>
      <point x="120" y="806"/>
      <point x="120" y="672" type="curve" smooth="yes"/>
      <point x="120" y="626"/>
      <point x="133" y="582"/>
      <point x="158" y="542" type="curve"/>
      <point x="209" y="542" type="line"/>
      <point x="179" y="578"/>
      <point x="164" y="623"/>
      <point x="164" y="672" type="curve" smooth="yes"/>
      <point x="164" y="787"/>
      <point x="250" y="873"/>
      <point x="366" y="873" type="curve" smooth="yes"/>
      <point x="481" y="873"/>
      <point x="568" y="787"/>
      <point x="568" y="671" type="curve" smooth="yes"/>
      <point x="568" y="618"/>
      <point x="546" y="569"/>
      <point x="495" y="499" type="curve" smooth="yes"/>
      <point x="132" y="2" type="line"/>
    </contour>
  </outline>
</glyph>
<glyph name="three" format="2">
  <advance width="750"/>
  <unicode hex="0033"/>
  <outline>
    <contour>
      <point x="342" y="-12" type="curve" smooth="yes"/>
      <point x="508" y="-12"/>
      <point x="642" y="121"/>
      <point x="642" y="285" type="curve" smooth="yes"/>
      <point x="642" y="434"/>
      <point x="530" y="560"/>
      <point x="379" y="578" type="curve"/>
      <point x="564" y="898" type="line"/>
      <point x="564" y="900" type="line"/>
      <point x="150" y="900" type="line"/>
      <point x="150" y="862" type="line"/>
      <point x="499" y="862" type="line"/>
      <point x="315" y="540" type="line"/>
      <point x="316" y="539" type="line"/>
      <point x="325" y="541"/>
      <point x="335" y="542"/>
      <point x="345" y="542" type="curve" smooth="yes"/>
      <point x="484" y="542"/>
      <point x="598" y="427"/>
      <point x="598" y="285" type="curve" smooth="yes"/>
      <point x="598" y="142"/>
      <point x="484" y="28"/>
      <point x="342" y="28" type="curve" smooth="yes"/>
      <point x="243" y="28"/>
      <point x="152" y="85"/>
      <point x="106" y="177" type="curve"/>
      <point x="81" y="133" type="line"/>
      <point x="139" y="42"/>
      <point x="237" y="-12"/>
    </contour>
  </outline>
</glyph>
<glyph name="four" format="2">
  <advance width="750"/>
  <unicode hex="0034"/>
  <outline>
    <contour>
      <point x="496" y="0" type="line"/>
      <point x="538" y="0" type="line"/>
      <point x="538" y="271" type="line"/>
      <point x="690" y="271" type="line"/>
      <point x="690" y="309" type="line"/>
      <point x="537" y="309" type="line"/>
      <point x="537" y="582" type="line"/>
      <point x="497" y="560" type="line"/>
      <point x="497" y="309" type="line"/>
      <point x="118" y="309" type="line"/>
      <point x="423" y="900" type="line"/>
      <point x="377" y="900" type="line"/>
      <point x="54" y="273" type="line"/>
      <point x="54" y="271" type="line"/>
      <point x="496" y="271" type="line"/>
    </contour>
  </outline>
</glyph>
<glyph name="five" format="2">
  <advance width="750"/>
  <unicode hex="0035"/>
  <outline>
    <contour>
      <point x="342" y="-12" type="curve" smooth="yes"/>
      <point x="508" y="-12"/>
      <point x="642" y="121"/>
      <point x="642" y="285" type="curve" smooth="yes"/>
      <point x="642" y="449"/>
      <point x="510" y="580"/>
      <point x="345" y="580" type="curve" smooth="yes"/>
      <point x="302" y="580"/>
      <point x="261" y="571"/>
      <point x="226" y="554" type="curve"/>
      <point x="226" y="862" type="line"/>
      <point x="568" y="862" type="line"/>
      <point x="568" y="900" type="line"/>
      <point x="186" y="900" type="line"/>
      <point x="186" y="489" type="line"/>
      <point x="188" y="489" type="line"/>
      <point x="229" y="523"/>
      <point x="283" y="542"/>
      <point x="342" y="542" type="curve" smooth="yes"/>
      <point x="485" y="542"/>
      <point x="598" y="427"/>
      <point x="598" y="285" type="curve" smooth="yes"/>
      <point x="598" y="142"/>
      <point x="484" y="28"/>
      <point x="342" y="28" type="curve" smooth="yes"/>
      <point x="243" y="28"/>
      <point x="152" y="85"/>
      <point x="106" y="177" type="curve"/>
      <point x="81" y="133" type="line"/>
      <point x="139" y="42"/>
      <point x="237" y="-12"/>
    </contour>
  </outline>
</glyph>
<glyph name="six" format="2">
  <advance width="750"/>
  <unicode hex="0036"/>
  <outline>
    <contour>
      <point x="384" y="-12" type="curve" smooth="yes"/>
      <point x="550" y="-12"/>
      <point x="684" y="121"/>
      <point x="684" y="285" type="curve" smooth="yes"/>
      <point x="684" y="449"/>
      <point x="550" y="582"/>
      <point x="390" y="582" type="curve" smooth="yes"/>
      <point x="326" y="582"/>
      <point x="259" y="561"/>
      <point x="205" y="513" type="curve"/>
      <point x="411" y="900" type="line"/>
      <point x="365" y="900" type="line"/>
      <point x="119" y="428" type="line" smooth="yes"/>
      <point x="99" y="390"/>
      <point x="84" y="335"/>
      <point x="84" y="285" type="curve" smooth="yes"/>
      <point x="84" y="121"/>
      <point x="218" y="-12"/>
    </contour>
    <contour>
      <point x="384" y="28" type="curve" smooth="yes"/>
      <point x="241" y="28"/>
      <point x="126" y="143"/>
      <point x="126" y="285" type="curve" smooth="yes"/>
      <point x="126" y="427"/>
      <point x="241" y="542"/>
      <point x="384" y="542" type="curve" smooth="yes"/>
      <point x="527" y="542"/>
      <point x="642" y="427"/>
      <point x="642" y="285" type="curve" smooth="yes"/>
      <point x="642" y="143"/>
      <point x="527" y="28"/>
    </contour>
  </outline>
</glyph>
<glyph name="seven" format="2">
  <advance width="750"/>
  <unicode hex="0037"/>
  <outline>
    <contour>
      <point x="158" y="0" type="line"/>
      <point x="204" y="0" type="line"/>
      <point x="671" y="898" type="line"/>
      <point x="671" y="900" type="line"/>
      <point x="120" y="900" type="line"/>
      <point x="120" y="860" type="line"/>
      <point x="605" y="860" type="line"/>
    </contour>
  </outline>
</glyph>
<glyph name="eight" format="2">
  <advance width="750"/>
  <unicode hex="0038"/>
  <outline>
    <contour>
      <point x="375" y="-12" type="curve" smooth="yes"/>
      <point x="541" y="-12"/>
      <point x="675" y="120"/>
      <point x="675" y="282" type="curve" smooth="yes"/>
      <point x="675" y="412"/>
      <point x="590" y="523"/>
      <point x="469" y="562" type="curve"/>
      <point x="528" y="594"/>
      <point x="566" y="655"/>
      <point x="566" y="725" type="curve" smooth="yes"/>
      <point x="566" y="828"/>
      <point x="481" y="912"/>
      <point x="375" y="912" type="curve" smooth="yes"/>
      <point x="269" y="912"/>
      <point x="184" y="828"/>
      <point x="184" y="725" type="curve" smooth="yes"/>
      <point x="184" y="655"/>
      <point x="222" y="594"/>
      <point x="281" y="562" type="curve"/>
      <point x="160" y="523"/>
      <point x="75" y="412"/>
      <point x="75" y="282" type="curve" smooth="yes"/>
      <point x="75" y="120"/>
      <point x="209" y="-12"/>
    </contour>
    <contour>
      <point x="375" y="28" type="curve" smooth="yes"/>
      <point x="233" y="28"/>
      <point x="119" y="143"/>
      <point x="119" y="284" type="curve" smooth="yes"/>
      <point x="119" y="425"/>
      <point x="233" y="540"/>
      <point x="375" y="540" type="curve" smooth="yes"/>
      <point x="517" y="540"/>
      <point x="631" y="425"/>
      <point x="631" y="284" type="curve" smooth="yes"/>
      <point x="631" y="143"/>
      <point x="517" y="28"/>
    </contour>
    <contour>
      <point x="375" y="575" type="curve" smooth="yes"/>
      <point x="292" y="575"/>
      <point x="225" y="642"/>
      <point x="225" y="725" type="curve" smooth="yes"/>
      <point x="225" y="808"/>
      <point x="292" y="875"/>
      <point x="375" y="875" type="curve" smooth="yes"/>
      <point x="458" y="875"/>
      <point x="525" y="808"/>
      <point x="525" y="725" type="curve" smooth="yes"/>
      <point x="525" y="642"/>
      <point x="458" y="575"/>
    </contour>
  </outline>
</glyph>
<glyph name="nine" format="2">
  <advance width="750"/>
  <unicode hex="0039"/>
  <outline>
    <contour>
      <point x="329" y="0" type="line"/>
      <point x="375" y="0" type="line"/>
      <point x="626" y="481" type="line" smooth="yes"/>
      <point x="647" y="522"/>
      <point x="660" y="576"/>
      <point x="660" y="624" type="curve" smooth="yes"/>
      <point x="660" y="782"/>
      <point x="527" y="912"/>
      <point x="366" y="912" type="curve" smooth="yes"/>
      <point x="204" y="912"/>
      <point x="72" y="782"/>
      <point x="72" y="621" type="curve" smooth="yes"/>
      <point x="72" y="462"/>
      <point x="202" y="330"/>
      <point x="360" y="330" type="curve" smooth="yes"/>
      <point x="427" y="330"/>
      <point x="491" y="353"/>
      <point x="540" y="396" type="curve"/>
    </contour>
    <contour>
      <point x="367" y="370" type="curve" smooth="yes"/>
      <point x="227" y="370"/>
      <point x="114" y="483"/>
      <point x="114" y="622" type="curve" smooth="yes"/>
      <point x="114" y="760"/>
      <point x="227" y="872"/>
      <point x="367" y="872" type="curve" smooth="yes"/>
      <point x="506" y="872"/>
      <point x="618" y="760"/>
      <point x="618" y="622" type="curve" smooth="yes"/>
      <point x="618" y="483"/>
      <point x="506" y="370"/>
    </contour>
  </outline>
</glyph>
<glyph name="less" format="2">
  <advance width="750"/>
  <unicode hex="003C"/>
  <outline>
    <contour>
      <point x="650" y="166" type="line"/>
      <point x="650" y="208" type="line"/>
      <point x="338" y="356" type="line" smooth="yes"/>
      <point x="275" y="386"/>
      <point x="208" y="417"/>
      <point x="142" y="447" type="curve"/>
      <point x="208" y="478"/>
      <point x="275" y="509"/>
      <point x="338" y="540" type="curve" smooth="yes"/>
      <point x="650" y="692" type="line"/>
      <point x="650" y="734" type="line"/>
      <point x="60" y="448" type="line"/>
      <point x="60" y="446" type="line"/>
    </contour>
  </outline>
</glyph>
<glyph name="equal" format="2">
  <advance width="750"/>
  <unicode hex="003D"/>
  <outline>
    <contour>
      <point x="100" y="536" type="line"/>
      <point x="650" y="536" type="line"/>
      <point x="650" y="572" type="line"/>
      <point x="100" y="572" type="line"/>
    </contour>
    <contour>
      <point x="100" y="328" type="line"/>
      <point x="650" y="328" type="line"/>
      <point x="650" y="364" type="line"/>
      <point x="100" y="364" type="line"/>
    </contour>
  </outline>
</glyph>
<glyph name="greater" format="2">
  <advance width="750"/>
  <unicode hex="003E"/>
  <outline>
    <contour>
      <point x="100" y="166" type="line"/>
      <point x="690" y="452" type="line"/>
      <point x="690" y="454" type="line"/>
      <point x="100" y="734" type="line"/>
      <point x="100" y="692" type="line"/>
      <point x="412" y="544" type="line" smooth="yes"/>
      <point x="475" y="514"/>
      <point x="542" y="483"/>
      <point x="608" y="453" type="curve"/>
      <point x="542" y="422"/>
      <point x="475" y="391"/>
      <point x="412" y="360" type="curve" smooth="yes"/>
      <point x="100" y="208" type="line"/>
    </contour>
  </outline>
</glyph>
<glyph name="question" format="2">
  <advance width="480"/>
  <unicode hex="003F"/>
  <outline>
    <contour>
      <point x="226" y="270" type="curve"/>
      <point x="262" y="270" type="line"/>
      <point x="263" y="469"/>
      <point x="438" y="545"/>
      <point x="438" y="709" type="curve" smooth="yes"/>
      <point x="438" y="821"/>
      <point x="355" y="912"/>
      <point x="230" y="912" type="curve" smooth="yes"/>
      <point x="176" y="912"/>
      <point x="128" y="895"/>
      <point x="90" y="866" type="curve"/>
      <point x="90" y="814" type="line"/>
      <point x="125" y="852"/>
      <point x="169" y="872"/>
      <point x="226" y="872" type="curve" smooth="yes"/>
      <point x="332" y="872"/>
      <point x="396" y="802"/>
      <point x="396" y="709" type="curve" smooth="yes"/>
      <point x="396" y="557"/>
      <point x="225" y="486"/>
    </contour>
    <contour>
      <point x="240" y="-8" type="curve" smooth="yes"/>
      <point x="263" y="-8"/>
      <point x="282" y="11"/>
      <point x="282" y="34" type="curve" smooth="yes"/>
      <point x="282" y="57"/>
      <point x="263" y="76"/>
      <point x="240" y="76" type="curve" smooth="yes"/>
      <point x="217" y="76"/>
      <point x="198" y="57"/>
      <point x="198" y="34" type="curve" smooth="yes"/>
      <point x="198" y="11"/>
      <point x="217" y="-8"/>
    </contour>
  </outline>
</glyph>
<glyph name="at" format="2">
  <advance width="1260"/>
  <unicode hex="0040"/>
  <outline>
    <contour>
      <point x="650" y="-192" type="curve" smooth="yes"/>
      <point x="772" y="-192"/>
      <point x="882" y="-157"/>
      <point x="984" y="-86" type="curve"/>
      <point x="973" y="-45" type="line"/>
      <point x="874" y="-119"/>
      <point x="770" y="-154"/>
      <point x="651" y="-154" type="curve" smooth="yes"/>
      <point x="350" y="-154"/>
      <point x="120" y="69"/>
      <point x="120" y="360" type="curve" smooth="yes"/>
      <point x="120" y="651"/>
      <point x="350" y="874"/>
      <point x="650" y="874" type="curve" smooth="yes"/>
      <point x="935" y="874"/>
      <point x="1152" y="674"/>
      <point x="1152" y="410" type="curve" smooth="yes"/>
      <point x="1152" y="250"/>
      <point x="1073" y="129"/>
      <point x="974" y="129" type="curve" smooth="yes"/>
      <point x="913" y="129"/>
      <point x="874" y="176"/>
      <point x="874" y="248" type="curve" smooth="yes"/>
      <point x="874" y="615" type="line"/>
      <point x="838" y="615" type="line"/>
      <point x="838" y="492" type="line"/>
      <point x="792" y="574"/>
      <point x="709" y="623"/>
      <point x="617" y="623" type="curve" smooth="yes"/>
      <point x="474" y="623"/>
      <point x="358" y="506"/>
      <point x="358" y="360" type="curve" smooth="yes"/>
      <point x="358" y="214"/>
      <point x="474" y="97"/>
      <point x="617" y="97" type="curve" smooth="yes"/>
      <point x="709" y="97"/>
      <point x="792" y="147"/>
      <point x="838" y="229" type="curve"/>
      <point x="844" y="149"/>
      <point x="899" y="93"/>
      <point x="975" y="93" type="curve" smooth="yes"/>
      <point x="1095" y="93"/>
      <point x="1194" y="234"/>
      <point x="1194" y="414" type="curve" smooth="yes"/>
      <point x="1194" y="693"/>
      <point x="955" y="912"/>
      <point x="650" y="912" type="curve" smooth="yes"/>
      <point x="329" y="912"/>
      <point x="78" y="669"/>
      <point x="78" y="360" type="curve" smooth="yes"/>
      <point x="78" y="50"/>
      <point x="330" y="-192"/>
    </contour>
    <contour>
      <point x="619" y="135" type="curve" smooth="yes"/>
      <point x="497" y="135"/>
      <point x="398" y="236"/>
      <point x="398" y="360" type="curve" smooth="yes"/>
      <point x="398" y="484"/>
      <point x="497" y="585"/>
      <point x="619" y="585" type="curve" smooth="yes"/>
      <point x="742" y="585"/>
      <point x="841" y="484"/>
      <point x="841" y="359" type="curve" smooth="yes"/>
      <point x="841" y="235"/>
      <point x="742" y="135"/>
    </contour>
  </outline>
</glyph>
<glyph name="A" format="2">
  <advance width="780"/>
  <unicode hex="0041"/>
  <anchor x="390" y="0" name="bottom"/>
  <anchor x="712" y="0" name="ogonek"/>
  <anchor x="390" y="900" name="top"/>
  <anchor x="110" y="720" name="top-vertical"/>
  <outline>
    <contour>
      <point x="45" y="0" type="line"/>
      <point x="89" y="0" type="line"/>
      <point x="227" y="374" type="line"/>
      <point x="551" y="374" type="line"/>
      <point x="689" y="0" type="line"/>
      <point x="735" y="0" type="line"/>
      <point x="391" y="930" type="line"/>
      <point x="389" y="930" type="line"/>
    </contour>
    <contour>
      <point x="240" y="412" type="line"/>
      <point x="331" y="660" type="line" smooth="yes"/>
      <point x="357" y="730"/>
      <point x="370" y="764"/>
      <point x="389" y="828" type="curve"/>
      <point x="408" y="764"/>
      <point x="421" y="730"/>
      <point x="447" y="660" type="curve" smooth="yes"/>
      <point x="538" y="412" type="line"/>
    </contour>
  </outline>
</glyph>
<glyph name="B" format="2">
  <advance width="730"/>
  <unicode hex="0042"/>
  <outline>
    <contour>
      <point x="136" y="0" type="line"/>
      <point x="371" y="0" type="line" smooth="yes"/>
      <point x="549" y="0"/>
      <point x="662" y="118"/>
      <point x="662" y="270" type="curve" smooth="yes"/>
      <point x="662" y="395"/>
      <point x="583" y="500"/>
      <point x="445" y="532" type="curve"/>
      <point x="527" y="559"/>
      <point x="581" y="628"/>
      <point x="581" y="709" type="curve" smooth="yes"/>
      <point x="581" y="814"/>
      <point x="493" y="900"/>
      <point x="364" y="900" type="curve" smooth="yes"/>
      <point x="136" y="900" type="line"/>
    </contour>
    <contour>
      <point x="180" y="38" type="line"/>
      <point x="180" y="510" type="line"/>
      <point x="348" y="510" type="line" smooth="yes"/>
      <point x="525" y="510"/>
      <point x="618" y="405"/>
      <point x="618" y="274" type="curve" smooth="yes"/>
      <point x="618" y="141"/>
      <point x="525" y="38"/>
      <point x="360" y="38" type="curve" smooth="yes"/>
    </contour>
    <contour>
      <point x="180" y="546" type="line"/>
      <point x="180" y="862" type="line"/>
      <point x="361" y="862" type="line" smooth="yes"/>
      <point x="470" y="862"/>
      <point x="539" y="792"/>
      <point x="539" y="705" type="curve" smooth="yes"/>
      <point x="539" y="617"/>
      <point x="470" y="546"/>
      <point x="355" y="546" type="curve" smooth="yes"/>
    </contour>
  </outline>
</glyph>
<glyph name="C" format="2">
  <advance width="880"/>
  <unicode hex="0043"/>
  <anchor x="520" y="0" name="bottom"/>
  <anchor x="520" y="900" name="top"/>
  <outline>
    <contour>
      <point x="520" y="-12" type="curve" smooth="yes"/>
      <point x="645" y="-12"/>
      <point x="759" y="40"/>
      <point x="841" y="124" type="curve"/>
      <point x="829" y="174" type="line"/>
      <point x="755" y="86"/>
      <point x="645" y="30"/>
      <point x="520" y="30" type="curve" smooth="yes"/>
      <point x="291" y="30"/>
      <point x="112" y="218"/>
      <point x="112" y="450" type="curve" smooth="yes"/>
      <point x="112" y="682"/>
      <point x="291" y="870"/>
      <point x="520" y="870" type="curve" smooth="yes"/>
      <point x="645" y="870"/>
      <point x="755" y="814"/>
      <point x="829" y="726" type="curve"/>
      <point x="842" y="782" type="line"/>
      <point x="760" y="862"/>
      <point x="645" y="912"/>
      <point x="520" y="912" type="curve" smooth="yes"/>
      <point x="269" y="912"/>
      <point x="66" y="706"/>
      <point x="66" y="450" type="curve" smooth="yes"/>
      <point x="66" y="194"/>
      <point x="269" y="-12"/>
    </contour>
  </outline>
</glyph>
<glyph name="D" format="2">
  <advance width="960"/>
  <unicode hex="0044"/>
  <anchor x="407" y="0" name="bottom"/>
  <anchor x="158" y="480" name="center"/>
  <anchor x="407" y="900" name="top"/>
  <outline>
    <contour>
      <point x="136" y="0" type="line"/>
      <point x="433" y="0" type="line" smooth="yes"/>
      <point x="694" y="0"/>
      <point x="894" y="201"/>
      <point x="894" y="450" type="curve" smooth="yes"/>
      <point x="894" y="699"/>
      <point x="694" y="900"/>
      <point x="433" y="900" type="curve" smooth="yes"/>
      <point x="136" y="900" type="line"/>
    </contour>
    <contour>
      <point x="180" y="40" type="line"/>
      <point x="180" y="860" type="line"/>
      <point x="428" y="860" type="line" smooth="yes"/>
      <point x="670" y="860"/>
      <point x="848" y="676"/>
      <point x="848" y="450" type="curve" smooth="yes"/>
      <point x="848" y="224"/>
      <point x="670" y="40"/>
      <point x="428" y="40" type="curve" smooth="yes"/>
    </contour>
  </outline>
</glyph>
<glyph name="E" format="2">
  <advance width="610"/>
  <unicode hex="0045"/>
  <anchor x="340" y="0" name="bottom"/>
  <anchor x="523" y="0" name="ogonek"/>
  <anchor x="340" y="900" name="top"/>
  <anchor x="136" y="900" name="topleft"/>
  <outline>
    <contour>
      <point x="136" y="0" type="line"/>
      <point x="544" y="0" type="line"/>
      <point x="544" y="40" type="line"/>
      <point x="180" y="40" type="line"/>
      <point x="180" y="536" type="line"/>
      <point x="474" y="536" type="line"/>
      <point x="474" y="574" type="line"/>
      <point x="180" y="574" type="line"/>
      <point x="180" y="860" type="line"/>
      <point x="544" y="860" type="line"/>
      <point x="544" y="900" type="line"/>
      <point x="136" y="900" type="line"/>
    </contour>
  </outline>
</glyph>
<glyph name="F" format="2">
  <advance width="580"/>
  <unicode hex="0046"/>
  <outline>
    <contour>
      <point x="136" y="0" type="line"/>
      <point x="180" y="-1" type="line"/>
      <point x="180" y="536" type="line"/>
      <point x="514" y="536" type="line"/>
      <point x="514" y="574" type="line"/>
      <point x="180" y="574" type="line"/>
      <point x="180" y="860" type="line"/>
      <point x="544" y="860" type="line"/>
      <point x="544" y="900" type="line"/>
      <point x="136" y="900" type="line"/>
    </contour>
  </outline>
</glyph>
<glyph name="H" format="2">
  <advance width="760"/>
  <unicode hex="0048"/>
  <anchor x="380" y="0" name="bottom"/>
  <anchor x="380" y="750" name="center"/>
  <anchor x="380" y="900" name="top"/>
  <anchor x="136" y="900" name="topleft"/>
  <outline>
    <contour>
      <point x="136" y="0" type="line"/>
      <point x="180" y="0" type="line"/>
      <point x="180" y="535" type="line"/>
      <point x="580" y="535" type="line"/>
      <point x="580" y="0" type="line"/>
      <point x="624" y="0" type="line"/>
      <point x="624" y="900" type="line"/>
      <point x="580" y="900" type="line"/>
      <point x="580" y="575" type="line"/>
      <point x="180" y="575" type="line"/>
      <point x="180" y="900" type="line"/>
      <point x="136" y="900" type="line"/>
    </contour>
  </outline>
</glyph>
<glyph name="I" format="2">
  <advance width="340"/>
  <unicode hex="0049"/>
  <anchor x="170" y="0" name="bottom"/>
  <anchor x="170" y="0" name="ogonek"/>
  <anchor x="170" y="900" name="top"/>
  <anchor x="-25" y="900" name="topleft"/>
  <outline>
    <contour>
      <point x="148" y="0" type="line"/>
      <point x="192" y="0" type="line"/>
      <point x="192" y="900" type="line"/>
      <point x="148" y="900" type="line"/>
    </contour>
  </outline>
</glyph>
<glyph name="J" format="2">
  <advance width="520"/>
  <unicode hex="004A"/>
  <anchor x="186" y="0" name="bottom"/>
  <anchor x="389" y="900" name="top"/>
  <outline>
    <contour>
      <point x="187" y="-12" type="curve" smooth="yes"/>
      <point x="324" y="-12"/>
      <point x="411" y="84"/>
      <point x="411" y="236" type="curve" smooth="yes"/>
      <point x="411" y="900" type="line"/>
      <point x="367" y="900" type="line"/>
      <point x="367" y="239" type="line" smooth="yes"/>
      <point x="367" y="104"/>
      <point x="302" y="28"/>
      <point x="187" y="28" type="curve" smooth="yes"/>
      <point x="123" y="28"/>
      <point x="73" y="52"/>
      <point x="38" y="100" type="curve"/>
      <point x="24" y="50" type="line"/>
      <point x="64" y="10"/>
      <point x="123" y="-12"/>
    </contour>
  </outline>
</glyph>
<glyph name="K" format="2">
  <advance width="740"/>
  <unicode hex="004B"/>
  <anchor x="418" y="0" name="bottom"/>
  <anchor x="350" y="900" name="top"/>
  <outline>
    <contour>
      <point x="656" y="0" type="line"/>
      <point x="712" y="0" type="line"/>
      <point x="274" y="554" type="line"/>
      <point x="643" y="900" type="line"/>
      <point x="584" y="900" type="line"/>
      <point x="216" y="555" type="line"/>
    </contour>
    <contour>
      <point x="136" y="0" type="line"/>
      <point x="180" y="0" type="line"/>
      <point x="180" y="900" type="line"/>
      <point x="136" y="900" type="line"/>
    </contour>
  </outline>
</glyph>
<glyph name="L" format="2">
  <advance width="580"/>
  <unicode hex="004C"/>
  <anchor x="331" y="0" name="bottom"/>
  <anchor x="158" y="450" name="center"/>
  <anchor x="420" y="480" name="periodcentered"/>
  <anchor x="158" y="900" name="top"/>
  <anchor x="222" y="900" name="topright"/>
  <outline>
    <contour>
      <point x="136" y="0" type="line"/>
      <point x="526" y="0" type="line"/>
      <point x="526" y="40" type="line"/>
      <point x="180" y="40" type="line"/>
      <point x="180" y="900" type="line"/>
      <point x="136" y="900" type="line"/>
    </contour>
  </outline>
</glyph>
<glyph name="M" format="2">
  <advance width="1060"/>
  <unicode hex="004D"/>
  <outline>
    <contour>
      <point x="136" y="0" type="line"/>
      <point x="178" y="0" type="line"/>
      <point x="178" y="570" type="line" smooth="yes"/>
      <point x="178" y="646"/>
      <point x="178" y="723"/>
      <point x="176" y="804" type="curve"/>
      <point x="226" y="733"/>
      <point x="274" y="666"/>
      <point x="322" y="600" type="curve" smooth="yes"/>
      <point x="528" y="315" type="line"/>
      <point x="734" y="600" type="line" smooth="yes"/>
      <point x="783" y="667"/>
      <point x="831" y="735"/>
      <point x="882" y="804" type="curve"/>
      <point x="880" y="725"/>
      <point x="880" y="647"/>
      <point x="880" y="570" type="curve" smooth="yes"/>
      <point x="880" y="0" type="line"/>
      <point x="924" y="0" type="line"/>
      <point x="924" y="930" type="line"/>
      <point x="922" y="930" type="line"/>
      <point x="530" y="387" type="line"/>
      <point x="138" y="930" type="line"/>
      <point x="136" y="930" type="line"/>
    </contour>
  </outline>
</glyph>
<glyph name="N" format="2">
  <advance width="970"/>
  <unicode hex="004E"/>
  <anchor x="485" y="0" name="bottom"/>
  <anchor x="485" y="900" name="top"/>
  <outline>
    <contour>
      <point x="832" y="-30" type="line"/>
      <point x="834" y="-30" type="line"/>
      <point x="834" y="900" type="line"/>
      <point x="792" y="900" type="line"/>
      <point x="792" y="95" type="line"/>
      <point x="138" y="930" type="line"/>
      <point x="136" y="930" type="line"/>
      <point x="136" y="0" type="line"/>
      <point x="178" y="0" type="line"/>
      <point x="178" y="805" type="line"/>
    </contour>
  </outline>
</glyph>
<glyph name="O" format="2">
  <advance width="1040"/>
  <unicode hex="004F"/>
  <anchor x="520" y="0" name="bottom"/>
  <anchor x="520" y="450" name="center"/>
  <anchor x="539" y="0" name="ogonek"/>
  <anchor x="520" y="900" name="top"/>
  <anchor x="520" y="540" name="top-vertical"/>
  <anchor x="50" y="900" name="topleft"/>
  <anchor x="990" y="900" name="topright"/>
  <outline>
    <contour>
      <point x="520" y="-12" type="curve" smooth="yes"/>
      <point x="771" y="-12"/>
      <point x="974" y="194"/>
      <point x="974" y="450" type="curve" smooth="yes"/>
      <point x="974" y="706"/>
      <point x="771" y="912"/>
      <point x="520" y="912" type="curve" smooth="yes"/>
      <point x="269" y="912"/>
      <point x="66" y="706"/>
      <point x="66" y="450" type="curve" smooth="yes"/>
      <point x="66" y="194"/>
      <point x="269" y="-12"/>
    </contour>
    <contour>
      <point x="520" y="30" type="curve" smooth="yes"/>
      <point x="291" y="30"/>
      <point x="112" y="218"/>
      <point x="112" y="450" type="curve" smooth="yes"/>
      <point x="112" y="682"/>
      <point x="291" y="870"/>
      <point x="520" y="870" type="curve" smooth="yes"/>
      <point x="750" y="870"/>
      <point x="928" y="682"/>
      <point x="928" y="450" type="curve" smooth="yes"/>
      <point x="928" y="218"/>
      <point x="750" y="30"/>
    </contour>
  </outline>
</glyph>
<glyph name="P" format="2">
  <advance width="700"/>
  <unicode hex="0050"/>
  <outline>
    <contour>
      <point x="136" y="0" type="line"/>
      <point x="180" y="0" type="line"/>
      <point x="180" y="348" type="line"/>
      <point x="344" y="348" type="line" smooth="yes"/>
      <point x="525" y="348"/>
      <point x="640" y="470"/>
      <point x="640" y="624" type="curve" smooth="yes"/>
      <point x="640" y="779"/>
      <point x="525" y="900"/>
      <point x="344" y="900" type="curve" smooth="yes"/>
      <point x="136" y="900" type="line"/>
    </contour>
    <contour>
      <point x="180" y="386" type="line"/>
      <point x="180" y="862" type="line"/>
      <point x="338" y="862" type="line" smooth="yes"/>
      <point x="504" y="862"/>
      <point x="598" y="758"/>
      <point x="598" y="624" type="curve" smooth="yes"/>
      <point x="598" y="491"/>
      <point x="504" y="386"/>
      <point x="338" y="386" type="curve" smooth="yes"/>
    </contour>
  </outline>
</glyph>
<glyph name="Q" format="2">
  <advance width="1040"/>
  <unicode hex="0051"/>
  <outline>
    <contour>
      <point x="891" y="-30" type="line"/>
      <point x="947" y="-30" type="line"/>
      <point x="829" y="111" type="line"/>
      <point x="918" y="196"/>
      <point x="974" y="316"/>
      <point x="974" y="450" type="curve" smooth="yes"/>
      <point x="974" y="706"/>
      <point x="771" y="912"/>
      <point x="520" y="912" type="curve" smooth="yes"/>
      <point x="269" y="912"/>
      <point x="66" y="706"/>
      <point x="66" y="450" type="curve" smooth="yes"/>
      <point x="66" y="194"/>
      <point x="269" y="-12"/>
      <point x="520" y="-12" type="curve" smooth="yes"/>
      <point x="624" y="-12"/>
      <point x="720" y="24"/>
      <point x="797" y="83" type="curve"/>
    </contour>
    <contour>
      <point x="520" y="30" type="curve" smooth="yes"/>
      <point x="291" y="30"/>
      <point x="112" y="218"/>
      <point x="112" y="450" type="curve" smooth="yes"/>
      <point x="112" y="682"/>
      <point x="291" y="870"/>
      <point x="520" y="870" type="curve" smooth="yes"/>
      <point x="750" y="870"/>
      <point x="928" y="682"/>
      <point x="928" y="450" type="curve" smooth="yes"/>
      <point x="928" y="330"/>
      <point x="880" y="221"/>
      <point x="802" y="145" type="curve"/>
      <point x="548" y="450" type="line"/>
      <point x="492" y="450" type="line"/>
      <point x="770" y="116" type="line"/>
      <point x="701" y="62"/>
      <point x="615" y="30"/>
    </contour>
  </outline>
</glyph>
<glyph name="R" format="2">
  <advance width="740"/>
  <unicode hex="0052"/>
  <anchor x="439" y="0" name="bottom"/>
  <anchor x="325" y="900" name="top"/>
  <outline>
    <contour>
      <point x="136" y="0" type="line"/>
      <point x="180" y="0" type="line"/>
      <point x="180" y="447" type="line"/>
      <point x="333" y="447" type="line"/>
      <point x="656" y="0" type="line"/>
      <point x="712" y="0" type="line"/>
      <point x="384" y="451" type="line"/>
      <point x="503" y="474"/>
      <point x="584" y="560"/>
      <point x="584" y="672" type="curve" smooth="yes"/>
      <point x="584" y="798"/>
      <point x="482" y="900"/>
      <point x="336" y="900" type="curve" smooth="yes"/>
      <point x="136" y="900" type="line"/>
    </contour>
    <contour>
      <point x="180" y="482" type="line"/>
      <point x="180" y="862" type="line"/>
      <point x="332" y="862" type="line" smooth="yes"/>
      <point x="457" y="862"/>
      <point x="540" y="777"/>
      <point x="540" y="672" type="curve" smooth="yes"/>
      <point x="540" y="567"/>
      <point x="457" y="482"/>
      <point x="320" y="482" type="curve" smooth="yes"/>
    </contour>
  </outline>
</glyph>
<glyph name="S" format="2">
  <advance width="640"/>
  <unicode hex="0053"/>
  <anchor x="310" y="0" name="bottom"/>
  <anchor x="329" y="900" name="top"/>
  <outline>
    <contour>
      <point x="308" y="-12" type="curve" smooth="yes"/>
      <point x="453" y="-12"/>
      <point x="568" y="94"/>
      <point x="568" y="229" type="curve" smooth="yes"/>
      <point x="568" y="328"/>
      <point x="506" y="415"/>
      <point x="395" y="470" type="curve" smooth="yes"/>
      <point x="275" y="530" type="line" smooth="yes"/>
      <point x="190" y="573"/>
      <point x="147" y="630"/>
      <point x="147" y="702" type="curve" smooth="yes"/>
      <point x="147" y="800"/>
      <point x="224" y="873"/>
      <point x="328" y="873" type="curve" smooth="yes"/>
      <point x="396" y="873"/>
      <point x="465" y="842"/>
      <point x="514" y="785" type="curve"/>
      <point x="526" y="835" type="line"/>
      <point x="471" y="884"/>
      <point x="400" y="912"/>
      <point x="329" y="912" type="curve" smooth="yes"/>
      <point x="203" y="912"/>
      <point x="104" y="820"/>
      <point x="104" y="703" type="curve" smooth="yes"/>
      <point x="104" y="617"/>
      <point x="159" y="540"/>
      <point x="255" y="492" type="curve" smooth="yes"/>
      <point x="375" y="432" type="line" smooth="yes"/>
      <point x="474" y="382"/>
      <point x="525" y="314"/>
      <point x="525" y="229" type="curve" smooth="yes"/>
      <point x="525" y="113"/>
      <point x="434" y="27"/>
      <point x="311" y="27" type="curve" smooth="yes"/>
      <point x="226" y="27"/>
      <point x="146" y="66"/>
      <point x="90" y="137" type="curve"/>
      <point x="78" y="87" type="line"/>
      <point x="139" y="24"/>
      <point x="222" y="-12"/>
    </contour>
  </outline>
</glyph>
<glyph name="T" format="2">
  <advance width="670"/>
  <unicode hex="0054"/>
  <anchor x="335" y="0" name="bottom"/>
  <anchor x="335" y="480" name="center"/>
  <anchor x="335" y="900" name="top"/>
  <outline>
    <contour>
      <point x="313" y="0" type="line"/>
      <point x="357" y="0" type="line"/>
      <point x="357" y="860" type="line"/>
      <point x="616" y="860" type="line"/>
      <point x="616" y="900" type="line"/>
      <point x="54" y="900" type="line"/>
      <point x="54" y="860" type="line"/>
      <point x="313" y="860" type="line"/>
    </contour>
  </outline>
</glyph>
<glyph name="U" format="2">
  <advance width="760"/>
  <unicode hex="0055"/>
  <anchor x="376" y="0" name="bottom"/>
  <anchor x="399" y="0" name="ogonek"/>
  <anchor x="380" y="900" name="top"/>
  <anchor x="380" y="720" name="top-vertical"/>
  <anchor x="651" y="900" name="topright"/>
  <outline>
    <contour>
      <point x="379" y="-12" type="curve" smooth="yes"/>
      <point x="540" y="-12"/>
      <point x="651" y="98"/>
      <point x="651" y="282" type="curve" smooth="yes"/>
      <point x="651" y="900" type="line"/>
      <point x="609" y="900" type="line"/>
      <point x="609" y="278" type="line" smooth="yes"/>
      <point x="609" y="117"/>
      <point x="517" y="28"/>
      <point x="381" y="28" type="curve" smooth="yes"/>
      <point x="243" y="28"/>
      <point x="153" y="118"/>
      <point x="153" y="282" type="curve" smooth="yes"/>
      <point x="153" y="900" type="line"/>
      <point x="109" y="900" type="line"/>
      <point x="109" y="278" type="line" smooth="yes"/>
      <point x="109" y="95"/>
      <point x="220" y="-12"/>
    </contour>
  </outline>
</glyph>
<glyph name="V" format="2">
  <advance width="730"/>
  <unicode hex="0056"/>
  <outline>
    <contour>
      <point x="364" y="-30" type="line"/>
      <point x="366" y="-30" type="line"/>
      <point x="710" y="900" type="line"/>
      <point x="666" y="900" type="line"/>
      <point x="423" y="240" type="line" smooth="yes"/>
      <point x="397" y="170"/>
      <point x="385" y="136"/>
      <point x="366" y="73" type="curve"/>
      <point x="347" y="136"/>
      <point x="335" y="170"/>
      <point x="309" y="240" type="curve" smooth="yes"/>
      <point x="66" y="900" type="line"/>
      <point x="20" y="900" type="line"/>
    </contour>
  </outline>
</glyph>
<glyph name="W" format="2">
  <advance width="1180"/>
  <unicode hex="0057"/>
  <anchor x="591" y="0" name="bottom"/>
  <anchor x="594" y="900" name="top"/>
  <outline>
    <contour>
      <point x="354" y="-30" type="line"/>
      <point x="356" y="-30" type="line"/>
      <point x="555" y="660" type="line"/>
      <point x="567" y="700"/>
      <point x="578" y="741"/>
      <point x="590" y="793" type="curve"/>
      <point x="602" y="741"/>
      <point x="613" y="700"/>
      <point x="625" y="660" type="curve"/>
      <point x="824" y="-30" type="line"/>
      <point x="826" y="-30" type="line"/>
      <point x="1160" y="900" type="line"/>
      <point x="1116" y="900" type="line"/>
      <point x="879" y="240" type="line"/>
      <point x="863" y="195"/>
      <point x="846" y="149"/>
      <point x="830" y="98" type="curve"/>
      <point x="817" y="149"/>
      <point x="804" y="195"/>
      <point x="791" y="240" type="curve"/>
      <point x="592" y="930" type="line"/>
      <point x="590" y="930" type="line"/>
      <point x="392" y="240" type="line" smooth="yes"/>
      <point x="379" y="195"/>
      <point x="366" y="150"/>
      <point x="353" y="99" type="curve"/>
      <point x="337" y="150"/>
      <point x="320" y="195"/>
      <point x="304" y="240" type="curve" smooth="yes"/>
      <point x="66" y="900" type="line"/>
      <point x="20" y="900" type="line"/>
    </contour>
  </outline>
</glyph>
<glyph name="X" format="2">
  <advance width="870"/>
  <unicode hex="0058"/>
  <outline>
    <contour>
      <point x="30" y="0" type="line"/>
      <point x="84" y="0" type="line"/>
      <point x="331" y="330" type="line" smooth="yes"/>
      <point x="366" y="376"/>
      <point x="400" y="426"/>
      <point x="435" y="475" type="curve"/>
      <point x="469" y="426"/>
      <point x="504" y="376"/>
      <point x="538" y="330" type="curve" smooth="yes"/>
      <point x="784" y="0" type="line"/>
      <point x="840" y="0" type="line"/>
      <point x="463" y="507" type="line"/>
      <point x="756" y="900" type="line"/>
      <point x="704" y="900" type="line"/>
      <point x="530" y="666" type="line" smooth="yes"/>
      <point x="499" y="624"/>
      <point x="468" y="579"/>
      <point x="436" y="534" type="curve"/>
      <point x="404" y="580"/>
      <point x="373" y="625"/>
      <point x="341" y="668" type="curve" smooth="yes"/>
      <point x="168" y="900" type="line"/>
      <point x="114" y="900" type="line"/>
      <point x="408" y="506" type="line"/>
    </contour>
  </outline>
</glyph>
<glyph name="Y" format="2">
  <advance width="670"/>
  <unicode hex="0059"/>
  <anchor x="336" y="0" name="bottom"/>
  <anchor x="336" y="900" name="top"/>
  <anchor x="13" y="900" name="topleft"/>
  <outline>
    <contour>
      <point x="313" y="0" type="line"/>
      <point x="357" y="0" type="line"/>
      <point x="357" y="441" type="line"/>
      <point x="640" y="900" type="line"/>
      <point x="590" y="900" type="line"/>
      <point x="406" y="600" type="line"/>
      <point x="383" y="562"/>
      <point x="359" y="521"/>
      <point x="336" y="480" type="curve"/>
      <point x="313" y="521"/>
      <point x="289" y="562"/>
      <point x="266" y="600" type="curve"/>
      <point x="82" y="900" type="line"/>
      <point x="30" y="900" type="line"/>
      <point x="313" y="441" type="line"/>
    </contour>
  </outline>
</glyph>
<glyph name="Z" format="2">
  <advance width="640"/>
  <unicode hex="005A"/>
  <anchor x="306" y="0" name="bottom"/>
  <anchor x="315" y="450" name="center"/>
  <anchor x="336" y="900" name="top"/>
  <outline>
    <contour>
      <point x="66" y="0" type="line"/>
      <point x="547" y="0" type="line"/>
      <point x="547" y="40" type="line"/>
      <point x="132" y="40" type="line"/>
      <point x="562" y="898" type="line"/>
      <point x="562" y="900" type="line"/>
      <point x="105" y="900" type="line"/>
      <point x="105" y="860" type="line"/>
      <point x="496" y="860" type="line"/>
      <point x="66" y="2" type="line"/>
    </contour>
  </outline>
</glyph>
<glyph name="bracketleft" format="2">
  <advance width="480"/>
  <unicode hex="005B"/>
  <outline>
    <contour>
      <point x="144" y="-180" type="line"/>
      <point x="408" y="-180" type="line"/>
      <point x="408" y="-142" type="line"/>
      <point x="186" y="-142" type="line"/>
      <point x="186" y="922" type="line"/>
      <point x="408" y="922" type="line"/>
      <point x="408" y="960" type="line"/>
      <point x="144" y="960" type="line"/>
    </contour>
  </outline>
</glyph>
<glyph name="backslash" format="2">
  <advance width="440"/>
  <unicode hex="005C"/>
  <outline>
    <contour>
      <point x="478" y="-180" type="line"/>
      <point x="524" y="-180" type="line"/>
      <point x="-39" y="960" type="line"/>
      <point x="-84" y="960" type="line"/>
    </contour>
  </outline>
</glyph>
<glyph name="bracketright" format="2">
  <advance width="480"/>
  <unicode hex="005D"/>
  <outline>
    <contour>
      <point x="72" y="-180" type="line"/>
      <point x="336" y="-180" type="line"/>
      <point x="336" y="960" type="line"/>
      <point x="72" y="960" type="line"/>
      <point x="72" y="922" type="line"/>
      <point x="294" y="922" type="line"/>
      <point x="294" y="-142" type="line"/>
      <point x="72" y="-142" type="line"/>
    </contour>
  </outline>
</glyph>
<glyph name="asciicircum" format="2">
  <advance width="750"/>
  <unicode hex="005E"/>
  <outline>
    <contour>
      <point x="102" y="225" type="line"/>
      <point x="144" y="225" type="line"/>
      <point x="281" y="514" type="line" smooth="yes"/>
      <point x="311" y="577"/>
      <point x="342" y="644"/>
      <point x="372" y="710" type="curve"/>
      <point x="403" y="644"/>
      <point x="434" y="577"/>
      <point x="465" y="514" type="curve" smooth="yes"/>
      <point x="606" y="225" type="line"/>
      <point x="648" y="225" type="line"/>
      <point x="373" y="792" type="line"/>
      <point x="371" y="792" type="line"/>
    </contour>
  </outline>
</glyph>
<glyph name="b" format="2">
  <advance width="740"/>
  <unicode hex="0062"/>
  <anchor x="408" y="0" name="bottom"/>
  <anchor x="408" y="914" name="top"/>
  <outline>
    <contour>
      <point x="392" y="-8" type="curve" smooth="yes"/>
      <point x="551" y="-8"/>
      <point x="680" y="123"/>
      <point x="680" y="285" type="curve" smooth="yes"/>
      <point x="680" y="447"/>
      <point x="551" y="578"/>
      <point x="392" y="578" type="curve" smooth="yes"/>
      <point x="288" y="578"/>
      <point x="199" y="522"/>
      <point x="148" y="438" type="curve"/>
      <point x="148" y="960" type="line"/>
      <point x="106" y="960" type="line"/>
      <point x="106" y="0" type="line"/>
      <point x="144" y="0" type="line"/>
      <point x="144" y="138" type="line"/>
      <point x="194" y="51"/>
      <point x="285" y="-8"/>
    </contour>
    <contour>
      <point x="389" y="32" type="curve" smooth="yes"/>
      <point x="251" y="32"/>
      <point x="140" y="145"/>
      <point x="140" y="285" type="curve" smooth="yes"/>
      <point x="140" y="425"/>
      <point x="251" y="538"/>
      <point x="389" y="538" type="curve" smooth="yes"/>
      <point x="527" y="538"/>
      <point x="638" y="425"/>
      <point x="638" y="285" type="curve" smooth="yes"/>
      <point x="638" y="145"/>
      <point x="527" y="32"/>
    </contour>
  </outline>
</glyph>
<glyph name="c" format="2">
  <advance width="610"/>
  <unicode hex="0063"/>
  <anchor x="371" y="0" name="bottom"/>
  <anchor x="371" y="600" name="top"/>
  <outline>
    <contour>
      <point x="360" y="-12" type="curve" smooth="yes"/>
      <point x="448" y="-12"/>
      <point x="525" y="25"/>
      <point x="580" y="84" type="curve"/>
      <point x="568" y="134" type="line"/>
      <point x="521" y="69"/>
      <point x="446" y="28"/>
      <point x="360" y="28" type="curve" smooth="yes"/>
      <point x="217" y="28"/>
      <point x="102" y="143"/>
      <point x="102" y="285" type="curve" smooth="yes"/>
      <point x="102" y="427"/>
      <point x="217" y="542"/>
      <point x="360" y="542" type="curve" smooth="yes"/>
      <point x="446" y="542"/>
      <point x="521" y="501"/>
      <point x="568" y="436" type="curve"/>
      <point x="580" y="486" type="line"/>
      <point x="525" y="545"/>
      <point x="448" y="582"/>
      <point x="360" y="582" type="curve" smooth="yes"/>
      <point x="194" y="582"/>
      <point x="60" y="449"/>
      <point x="60" y="285" type="curve" smooth="yes"/>
      <point x="60" y="121"/>
      <point x="194" y="-12"/>
    </contour>
  </outline>
</glyph>
<glyph name="d" format="2">
  <advance width="740"/>
  <unicode hex="0064"/>
  <anchor x="350" y="0" name="bottom"/>
  <anchor x="613" y="780" name="center"/>
  <anchor x="350" y="570" name="top"/>
  <anchor x="714" y="960" name="topright"/>
  <outline>
    <contour>
      <point x="348" y="-8" type="curve" smooth="yes"/>
      <point x="455" y="-8"/>
      <point x="546" y="51"/>
      <point x="596" y="138" type="curve"/>
      <point x="596" y="0" type="line"/>
      <point x="634" y="0" type="line"/>
      <point x="634" y="960" type="line"/>
      <point x="592" y="960" type="line"/>
      <point x="592" y="438" type="line"/>
      <point x="541" y="522"/>
      <point x="452" y="578"/>
      <point x="348" y="578" type="curve" smooth="yes"/>
      <point x="189" y="578"/>
      <point x="60" y="447"/>
      <point x="60" y="285" type="curve" smooth="yes"/>
      <point x="60" y="123"/>
      <point x="189" y="-8"/>
    </contour>
    <contour>
      <point x="351" y="32" type="curve" smooth="yes"/>
      <point x="213" y="32"/>
      <point x="102" y="145"/>
      <point x="102" y="285" type="curve" smooth="yes"/>
      <point x="102" y="425"/>
      <point x="213" y="538"/>
      <point x="351" y="538" type="curve" smooth="yes"/>
      <point x="489" y="538"/>
      <point x="600" y="425"/>
      <point x="600" y="285" type="curve" smooth="yes"/>
      <point x="600" y="145"/>
      <point x="489" y="32"/>
    </contour>
  </outline>
</glyph>
<glyph name="e" format="2">
  <advance width="690"/>
  <unicode hex="0065"/>
  <anchor x="366" y="0" name="bottom"/>
  <anchor x="486" y="0" name="ogonek"/>
  <anchor x="349" y="570" name="top"/>
  <outline>
    <contour>
      <point x="366" y="-12" type="curve" smooth="yes"/>
      <point x="454" y="-12"/>
      <point x="531" y="25"/>
      <point x="586" y="84" type="curve"/>
      <point x="574" y="134" type="line"/>
      <point x="527" y="69"/>
      <point x="452" y="28"/>
      <point x="366" y="28" type="curve" smooth="yes"/>
      <point x="220" y="28"/>
      <point x="102" y="140"/>
      <point x="102" y="294" type="curve"/>
      <point x="128" y="292"/>
      <point x="154" y="291"/>
      <point x="180" y="291" type="curve" smooth="yes"/>
      <point x="630" y="291" type="line"/>
      <point x="630" y="300" type="line" smooth="yes"/>
      <point x="630" y="456"/>
      <point x="507" y="582"/>
      <point x="349" y="582" type="curve" smooth="yes"/>
      <point x="191" y="582"/>
      <point x="60" y="456"/>
      <point x="60" y="292" type="curve" smooth="yes"/>
      <point x="60" y="118"/>
      <point x="197" y="-12"/>
    </contour>
    <contour>
      <point x="104" y="324" type="curve"/>
      <point x="119" y="451"/>
      <point x="225" y="544"/>
      <point x="349" y="544" type="curve" smooth="yes"/>
      <point x="476" y="544"/>
      <point x="574" y="448"/>
      <point x="587" y="323" type="curve"/>
      <point x="566" y="325"/>
      <point x="545" y="327"/>
      <point x="510" y="327" type="curve" smooth="yes"/>
      <point x="180" y="327" type="line" smooth="yes"/>
      <point x="155" y="327"/>
      <point x="129" y="326"/>
    </contour>
  </outline>
</glyph>
<glyph name="k" format="2">
  <advance width="590"/>
  <unicode hex="006B"/>
  <anchor x="324" y="0" name="bottom"/>
  <anchor x="130" y="960" name="top"/>
  <outline>
    <contour>
      <point x="497" y="0" type="line"/>
      <point x="554" y="0" type="line"/>
      <point x="241" y="318" type="line"/>
      <point x="494" y="570" type="line"/>
      <point x="443" y="570" type="line"/>
      <point x="187" y="315" type="line"/>
    </contour>
    <contour>
      <point x="109" y="0" type="line"/>
      <point x="151" y="0" type="line"/>
      <point x="151" y="960" type="line"/>
      <point x="109" y="960" type="line"/>
    </contour>
  </outline>
</glyph>
<glyph name="l" format="2">
  <advance width="260"/>
  <unicode hex="006C"/>
  <anchor x="130" y="0" name="bottom"/>
  <anchor x="130" y="480" name="center"/>
  <anchor x="335" y="420" name="periodcentered"/>
  <anchor x="130" y="960" name="top"/>
  <anchor x="231" y="960" name="topright"/>
  <outline>
    <contour>
      <point x="109" y="0" type="line"/>
      <point x="151" y="0" type="line"/>
      <point x="151" y="960" type="line"/>
      <point x="109" y="960" type="line"/>
    </contour>
  </outline>
</glyph>
<glyph name="m" format="2">
  <advance width="1120"/>
  <unicode hex="006D"/>
  <anchor x="566" y="0" name="bottom"/>
  <anchor x="566" y="600" name="top"/>
  <outline>
    <contour>
      <point x="109" y="0" type="line"/>
      <point x="151" y="0" type="line"/>
      <point x="151" y="327" type="line" smooth="yes"/>
      <point x="151" y="453"/>
      <point x="243" y="542"/>
      <point x="356" y="542" type="curve" smooth="yes"/>
      <point x="460" y="542"/>
      <point x="545" y="464"/>
      <point x="545" y="327" type="curve" smooth="yes"/>
      <point x="545" y="0" type="line"/>
      <point x="587" y="0" type="line"/>
      <point x="587" y="327" type="line" smooth="yes"/>
      <point x="587" y="453"/>
      <point x="679" y="542"/>
      <point x="792" y="542" type="curve" smooth="yes"/>
      <point x="896" y="542"/>
      <point x="981" y="464"/>
      <point x="981" y="327" type="curve" smooth="yes"/>
      <point x="981" y="0" type="line"/>
      <point x="1023" y="0" type="line"/>
      <point x="1023" y="334" type="line" smooth="yes"/>
      <point x="1023" y="483"/>
      <point x="922" y="582"/>
      <point x="793" y="582" type="curve" smooth="yes"/>
      <point x="694" y="582"/>
      <point x="608" y="524"/>
      <point x="573" y="434" type="curve"/>
      <point x="535" y="527"/>
      <point x="456" y="582"/>
      <point x="361" y="582" type="curve" smooth="yes"/>
      <point x="268" y="582"/>
      <point x="185" y="529"/>
      <point x="147" y="444" type="curve"/>
      <point x="147" y="570" type="line"/>
      <point x="109" y="570" type="line"/>
    </contour>
  </outline>
</glyph>
<glyph name="n" format="2">
  <advance width="700"/>
  <unicode hex="006E"/>
  <anchor x="356" y="0" name="bottom"/>
  <anchor x="356" y="570" name="top"/>
  <outline>
    <contour>
      <point x="109" y="0" type="line"/>
      <point x="151" y="0" type="line"/>
      <point x="151" y="319" type="line" smooth="yes"/>
      <point x="151" y="450"/>
      <point x="247" y="542"/>
      <point x="364" y="542" type="curve" smooth="yes"/>
      <point x="473" y="542"/>
      <point x="561" y="461"/>
      <point x="561" y="319" type="curve" smooth="yes"/>
      <point x="561" y="0" type="line"/>
      <point x="603" y="0" type="line"/>
      <point x="603" y="326" type="line" smooth="yes"/>
      <point x="603" y="480"/>
      <point x="501" y="582"/>
      <point x="370" y="582" type="curve" smooth="yes"/>
      <point x="272" y="582"/>
      <point x="187" y="528"/>
      <point x="147" y="438" type="curve"/>
      <point x="147" y="570" type="line"/>
      <point x="109" y="570" type="line"/>
    </contour>
  </outline>
</glyph>
<glyph name="o" format="2">
  <advance width="720"/>
  <unicode hex="006F"/>
  <anchor x="360" y="0" name="bottom"/>
  <anchor x="360" y="285" name="center"/>
  <anchor x="390" y="0" name="ogonek"/>
  <anchor x="360" y="570" name="top"/>
  <anchor x="600" y="600" name="topright"/>
  <outline>
    <contour>
      <point x="360" y="-12" type="curve" smooth="yes"/>
      <point x="526" y="-12"/>
      <point x="660" y="121"/>
      <point x="660" y="285" type="curve" smooth="yes"/>
      <point x="660" y="449"/>
      <point x="526" y="582"/>
      <point x="360" y="582" type="curve" smooth="yes"/>
      <point x="194" y="582"/>
      <point x="60" y="449"/>
      <point x="60" y="285" type="curve" smooth="yes"/>
      <point x="60" y="121"/>
      <point x="194" y="-12"/>
    </contour>
    <contour>
      <point x="360" y="28" type="curve" smooth="yes"/>
      <point x="217" y="28"/>
      <point x="102" y="143"/>
      <point x="102" y="285" type="curve" smooth="yes"/>
      <point x="102" y="427"/>
      <point x="217" y="542"/>
      <point x="360" y="542" type="curve" smooth="yes"/>
      <point x="503" y="542"/>
      <point x="618" y="427"/>
      <point x="618" y="285" type="curve" smooth="yes"/>
      <point x="618" y="143"/>
      <point x="503" y="28"/>
    </contour>
  </outline>
</glyph>
<glyph name="q" format="2">
  <advance width="740"/>
  <unicode hex="0071"/>
  <outline>
    <contour>
      <point x="592" y="-300" type="line"/>
      <point x="634" y="-300" type="line"/>
      <point x="634" y="570" type="line"/>
      <point x="596" y="570" type="line"/>
      <point x="596" y="432" type="line"/>
      <point x="546" y="519"/>
      <point x="455" y="578"/>
      <point x="348" y="578" type="curve" smooth="yes"/>
      <point x="189" y="578"/>
      <point x="60" y="447"/>
      <point x="60" y="285" type="curve" smooth="yes"/>
      <point x="60" y="123"/>
      <point x="189" y="-8"/>
      <point x="348" y="-8" type="curve" smooth="yes"/>
      <point x="452" y="-8"/>
      <point x="541" y="48"/>
      <point x="592" y="132" type="curve"/>
    </contour>
    <contour>
      <point x="351" y="32" type="curve" smooth="yes"/>
      <point x="213" y="32"/>
      <point x="102" y="145"/>
      <point x="102" y="285" type="curve" smooth="yes"/>
      <point x="102" y="425"/>
      <point x="213" y="538"/>
      <point x="351" y="538" type="curve" smooth="yes"/>
      <point x="489" y="538"/>
      <point x="600" y="425"/>
      <point x="600" y="285" type="curve" smooth="yes"/>
      <point x="600" y="145"/>
      <point x="489" y="32"/>
    </contour>
  </outline>
</glyph>
<glyph name="r" format="2">
  <advance width="430"/>
  <unicode hex="0072"/>
  <anchor x="150" y="0" name="bottom"/>
  <anchor x="252" y="600" name="top"/>
  <outline>
    <contour>
      <point x="109" y="0" type="line"/>
      <point x="151" y="0" type="line"/>
      <point x="151" y="293" type="line" smooth="yes"/>
      <point x="151" y="439"/>
      <point x="256" y="536"/>
      <point x="381" y="536" type="curve" smooth="yes"/>
      <point x="387" y="536"/>
      <point x="393" y="536"/>
      <point x="400" y="535" type="curve"/>
      <point x="390" y="575" type="line"/>
      <point x="285" y="575"/>
      <point x="191" y="519"/>
      <point x="147" y="414" type="curve"/>
      <point x="147" y="570" type="line"/>
      <point x="109" y="570" type="line"/>
    </contour>
  </outline>
</glyph>
<glyph name="s" format="2">
  <advance width="490"/>
  <unicode hex="0073"/>
  <anchor x="243" y="0" name="bottom"/>
  <anchor x="248" y="570" name="top"/>
  <outline>
    <contour>
      <point x="241" y="-12" type="curve" smooth="yes"/>
      <point x="343" y="-12"/>
      <point x="418" y="56"/>
      <point x="418" y="147" type="curve" smooth="yes"/>
      <point x="418" y="216"/>
      <point x="374" y="271"/>
      <point x="295" y="302" type="curve" smooth="yes"/>
      <point x="214" y="334" type="line" smooth="yes"/>
      <point x="159" y="356"/>
      <point x="131" y="392"/>
      <point x="131" y="439" type="curve" smooth="yes"/>
      <point x="131" y="500"/>
      <point x="178" y="545"/>
      <point x="246" y="545" type="curve" smooth="yes"/>
      <point x="298" y="545"/>
      <point x="346" y="519"/>
      <point x="377" y="475" type="curve"/>
      <point x="390" y="525" type="line"/>
      <point x="350" y="562"/>
      <point x="300" y="582"/>
      <point x="249" y="582" type="curve" smooth="yes"/>
      <point x="158" y="582"/>
      <point x="90" y="519"/>
      <point x="90" y="434" type="curve" smooth="yes"/>
      <point x="90" y="373"/>
      <point x="129" y="323"/>
      <point x="198" y="296" type="curve" smooth="yes"/>
      <point x="279" y="264" type="line" smooth="yes"/>
      <point x="345" y="238"/>
      <point x="377" y="197"/>
      <point x="377" y="144" type="curve" smooth="yes"/>
      <point x="377" y="74"/>
      <point x="323" y="25"/>
      <point x="244" y="25" type="curve" smooth="yes"/>
      <point x="181" y="25"/>
      <point x="123" y="57"/>
      <point x="88" y="108" type="curve"/>
      <point x="75" y="58" type="line"/>
      <point x="117" y="14"/>
      <point x="178" y="-12"/>
    </contour>
  </outline>
</glyph>
<glyph name="t" format="2">
  <advance width="450"/>
  <unicode hex="0074"/>
  <anchor x="210" y="0" name="bottom"/>
  <anchor x="210" y="285" name="center"/>
  <anchor x="210" y="800" name="top"/>
  <anchor x="354" y="960" name="topright"/>
  <outline>
    <contour>
      <point x="189" y="0" type="line"/>
      <point x="231" y="0" type="line"/>
      <point x="231" y="534" type="line"/>
      <point x="414" y="534" type="line"/>
      <point x="414" y="570" type="line"/>
      <point x="231" y="570" type="line"/>
      <point x="231" y="800" type="line"/>
      <point x="189" y="800" type="line"/>
      <point x="189" y="570" type="line"/>
      <point x="36" y="570" type="line"/>
      <point x="36" y="534" type="line"/>
      <point x="189" y="534" type="line"/>
    </contour>
  </outline>
</glyph>
<glyph name="u" format="2">
  <advance width="700"/>
  <unicode hex="0075"/>
  <anchor x="350" y="0" name="bottom"/>
  <anchor x="572" y="0" name="ogonek"/>
  <anchor x="344" y="570" name="top"/>
  <anchor x="591" y="570" name="topright"/>
  <outline>
    <contour>
      <point x="330" y="-12" type="curve" smooth="yes"/>
      <point x="428" y="-12"/>
      <point x="513" y="42"/>
      <point x="553" y="132" type="curve"/>
      <point x="553" y="0" type="line"/>
      <point x="591" y="0" type="line"/>
      <point x="591" y="570" type="line"/>
      <point x="549" y="570" type="line"/>
      <point x="549" y="251" type="line" smooth="yes"/>
      <point x="549" y="120"/>
      <point x="453" y="28"/>
      <point x="336" y="28" type="curve" smooth="yes"/>
      <point x="227" y="28"/>
      <point x="139" y="109"/>
      <point x="139" y="251" type="curve" smooth="yes"/>
      <point x="139" y="570" type="line"/>
      <point x="97" y="570" type="line"/>
      <point x="97" y="244" type="line" smooth="yes"/>
      <point x="97" y="90"/>
      <point x="199" y="-12"/>
    </contour>
  </outline>
</glyph>
<glyph name="v" format="2">
  <advance width="590"/>
  <unicode hex="0076"/>
  <outline>
    <contour>
      <point x="294" y="-30" type="line"/>
      <point x="296" y="-30" type="line"/>
      <point x="560" y="570" type="line"/>
      <point x="517" y="570" type="line"/>
      <point x="385" y="273" type="line" smooth="yes"/>
      <point x="356" y="207"/>
      <point x="327" y="138"/>
      <point x="297" y="65" type="curve"/>
      <point x="267" y="138"/>
      <point x="237" y="207"/>
      <point x="208" y="273" type="curve" smooth="yes"/>
      <point x="77" y="570" type="line"/>
      <point x="30" y="570" type="line"/>
    </contour>
  </outline>
</glyph>
<glyph name="w" format="2">
  <advance width="1000"/>
  <unicode hex="0077"/>
  <anchor x="500" y="0" name="bottom"/>
  <anchor x="504" y="600" name="top"/>
  <outline>
    <contour>
      <point x="294" y="-30" type="line"/>
      <point x="296" y="-30" type="line"/>
      <point x="425" y="300" type="line" smooth="yes"/>
      <point x="450" y="363"/>
      <point x="474" y="429"/>
      <point x="499" y="495" type="curve"/>
      <point x="524" y="429"/>
      <point x="549" y="363"/>
      <point x="574" y="300" type="curve" smooth="yes"/>
      <point x="705" y="-30" type="line"/>
      <point x="707" y="-30" type="line"/>
      <point x="970" y="570" type="line"/>
      <point x="926" y="570" type="line"/>
      <point x="795" y="273" type="line" smooth="yes"/>
      <point x="766" y="207"/>
      <point x="737" y="137"/>
      <point x="708" y="68" type="curve"/>
      <point x="682" y="137"/>
      <point x="655" y="207"/>
      <point x="629" y="273" type="curve" smooth="yes"/>
      <point x="501" y="600" type="line"/>
      <point x="499" y="600" type="line"/>
      <point x="373" y="273" type="line" smooth="yes"/>
      <point x="347" y="207"/>
      <point x="322" y="137"/>
      <point x="296" y="68" type="curve"/>
      <point x="267" y="137"/>
      <point x="237" y="207"/>
      <point x="208" y="273" type="curve" smooth="yes"/>
      <point x="77" y="570" type="line"/>
      <point x="30" y="570" type="line"/>
    </contour>
  </outline>
</glyph>
<glyph name="x" format="2">
  <advance width="560"/>
  <unicode hex="0078"/>
  <outline>
    <contour>
      <point x="36" y="0" type="line"/>
      <point x="84" y="0" type="line"/>
      <point x="212" y="180" type="line" smooth="yes"/>
      <point x="234" y="211"/>
      <point x="257" y="244"/>
      <point x="279" y="278" type="curve"/>
      <point x="301" y="244"/>
      <point x="324" y="211"/>
      <point x="346" y="180" type="curve" smooth="yes"/>
      <point x="474" y="0" type="line"/>
      <point x="524" y="0" type="line"/>
      <point x="305" y="307" type="line"/>
      <point x="494" y="570" type="line"/>
      <point x="446" y="570" type="line"/>
      <point x="340" y="420" type="line" smooth="yes"/>
      <point x="321" y="393"/>
      <point x="300" y="364"/>
      <point x="281" y="334" type="curve"/>
      <point x="262" y="364"/>
      <point x="241" y="393"/>
      <point x="222" y="420" type="curve" smooth="yes"/>
      <point x="116" y="570" type="line"/>
      <point x="66" y="570" type="line"/>
      <point x="256" y="305" type="line"/>
    </contour>
  </outline>
</glyph>
<glyph name="y" format="2">
  <advance width="610"/>
  <unicode hex="0079"/>
  <anchor x="425" y="0" name="bottom"/>
  <anchor x="305" y="570" name="top"/>
  <outline>
    <contour>
      <point x="112" y="-300" type="line"/>
      <point x="156" y="-300" type="line"/>
      <point x="580" y="570" type="line"/>
      <point x="536" y="570" type="line"/>
      <point x="392" y="273" type="line" smooth="yes"/>
      <point x="360" y="207"/>
      <point x="327" y="138"/>
      <point x="295" y="69" type="curve"/>
      <point x="266" y="138"/>
      <point x="236" y="207"/>
      <point x="207" y="273" type="curve" smooth="yes"/>
      <point x="76" y="570" type="line"/>
      <point x="30" y="570" type="line"/>
      <point x="271" y="26" type="line"/>
    </contour>
  </outline>
</glyph>
<glyph name="z" format="2">
  <advance width="510"/>
  <unicode hex="007A"/>
  <anchor x="265" y="0" name="bottom"/>
  <anchor x="265" y="285" name="center"/>
  <anchor x="265" y="570" name="top"/>
  <outline>
    <contour>
      <point x="60" y="0" type="line"/>
      <point x="438" y="0" type="line"/>
      <point x="438" y="38" type="line"/>
      <point x="126" y="38" type="line"/>
      <point x="450" y="568" type="line"/>
      <point x="450" y="570" type="line"/>
      <point x="78" y="570" type="line"/>
      <point x="78" y="532" type="line"/>
      <point x="384" y="532" type="line"/>
      <point x="60" y="2" type="line"/>
    </contour>
  </outline>
</glyph>
<glyph name="braceleft" format="2">
  <advance width="480"/>
  <unicode hex="007B"/>
  <outline>
    <contour>
      <point x="408" y="-180" type="curve"/>
      <point x="408" y="-142" type="line"/>
      <point x="293" y="-142"/>
      <point x="203" y="-86"/>
      <point x="203" y="74" type="curve" smooth="yes"/>
      <point x="203" y="134"/>
      <point x="215" y="185"/>
      <point x="215" y="235" type="curve" smooth="yes"/>
      <point x="215" y="311"/>
      <point x="188" y="357"/>
      <point x="123" y="390" type="curve"/>
      <point x="185" y="421"/>
      <point x="215" y="464"/>
      <point x="215" y="544" type="curve" smooth="yes"/>
      <point x="215" y="594"/>
      <point x="203" y="645"/>
      <point x="203" y="705" type="curve" smooth="yes"/>
      <point x="203" y="865"/>
      <point x="293" y="922"/>
      <point x="408" y="922" type="curve"/>
      <point x="408" y="960" type="line"/>
      <point x="252" y="960"/>
      <point x="161" y="865"/>
      <point x="161" y="704" type="curve" smooth="yes"/>
      <point x="161" y="644"/>
      <point x="173" y="590"/>
      <point x="173" y="542" type="curve" smooth="yes"/>
      <point x="173" y="449"/>
      <point x="129" y="422"/>
      <point x="54" y="390" type="curve"/>
      <point x="129" y="358"/>
      <point x="173" y="330"/>
      <point x="173" y="237" type="curve" smooth="yes"/>
      <point x="173" y="189"/>
      <point x="161" y="135"/>
      <point x="161" y="75" type="curve" smooth="yes"/>
      <point x="161" y="-114"/>
      <point x="279" y="-180"/>
    </contour>
  </outline>
</glyph>
<glyph name="braceright" format="2">
  <advance width="480"/>
  <unicode hex="007D"/>
  <outline>
    <contour>
      <point x="72" y="-180" type="line"/>
      <point x="228" y="-180"/>
      <point x="319" y="-85"/>
      <point x="319" y="76" type="curve" smooth="yes"/>
      <point x="319" y="136"/>
      <point x="307" y="190"/>
      <point x="307" y="238" type="curve" smooth="yes"/>
      <point x="307" y="331"/>
      <point x="351" y="358"/>
      <point x="426" y="390" type="curve"/>
      <point x="351" y="422"/>
      <point x="307" y="450"/>
      <point x="307" y="543" type="curve" smooth="yes"/>
      <point x="307" y="591"/>
      <point x="319" y="645"/>
      <point x="319" y="705" type="curve" smooth="yes"/>
      <point x="319" y="894"/>
      <point x="201" y="960"/>
      <point x="72" y="960" type="curve"/>
      <point x="72" y="922" type="line"/>
      <point x="187" y="922"/>
      <point x="277" y="866"/>
      <point x="277" y="706" type="curve" smooth="yes"/>
      <point x="277" y="646"/>
      <point x="265" y="595"/>
      <point x="265" y="545" type="curve" smooth="yes"/>
      <point x="265" y="469"/>
      <point x="292" y="423"/>
      <point x="357" y="390" type="curve"/>
      <point x="295" y="359"/>
      <point x="265" y="316"/>
      <point x="265" y="236" type="curve" smooth="yes"/>
      <point x="265" y="186"/>
      <point x="277" y="135"/>
      <point x="277" y="75" type="curve" smooth="yes"/>
      <point x="277" y="-85"/>
      <point x="187" y="-142"/>
      <point x="72" y="-142" type="curve"/>
    </contour>
  </outline>
</glyph>
<glyph name="asciitilde" format="2">
  <advance width="750"/>
  <unicode hex="007E"/>
  <outline>
    <contour>
      <point x="81" y="366" type="line"/>
      <point x="116" y="441"/>
      <point x="169" y="483"/>
      <point x="231" y="483" type="curve" smooth="yes"/>
      <point x="329" y="483"/>
      <point x="407" y="381"/>
      <point x="517" y="381" type="curve" smooth="yes"/>
      <point x="592" y="381"/>
      <point x="654" y="427"/>
      <point x="690" y="497" type="curve"/>
      <point x="669" y="534" type="line"/>
      <point x="633" y="458"/>
      <point x="580" y="417"/>
      <point x="519" y="417" type="curve" smooth="yes"/>
      <point x="421" y="417"/>
      <point x="343" y="519"/>
      <point x="233" y="519" type="curve" smooth="yes"/>
      <point x="158" y="519"/>
      <point x="96" y="473"/>
      <point x="60" y="403" type="curve"/>
    </contour>
  </outline>
</glyph>
<glyph name="exclamdown" format="2">
  <advance width="480"/>
  <unicode hex="00A1"/>
  <outline>
    <contour>
      <point x="219" y="-300" type="line"/>
      <point x="261" y="-300" type="line"/>
      <point x="259" y="330" type="line"/>
      <point x="221" y="330" type="line"/>
    </contour>
    <contour>
      <point x="240" y="524" type="curve" smooth="yes"/>
      <point x="263" y="524"/>
      <point x="282" y="543"/>
      <point x="282" y="566" type="curve" smooth="yes"/>
      <point x="282" y="589"/>
      <point x="263" y="608"/>
      <point x="240" y="608" type="curve" smooth="yes"/>
      <point x="217" y="608"/>
      <point x="198" y="589"/>
      <point x="198" y="566" type="curve" smooth="yes"/>
      <point x="198" y="543"/>
      <point x="217" y="524"/>
    </contour>
  </outline>
</glyph>
<glyph name="cent" format="2">
  <advance width="750"/>
  <unicode hex="00A2"/>
  <outline>
    <contour>
      <point x="402" y="0" type="line"/>
      <point x="438" y="0" type="line"/>
      <point x="438" y="153" type="line"/>
      <point x="521" y="156"/>
      <point x="594" y="193"/>
      <point x="646" y="249" type="curve"/>
      <point x="634" y="299" type="line"/>
      <point x="587" y="234"/>
      <point x="512" y="193"/>
      <point x="426" y="193" type="curve" smooth="yes"/>
      <point x="283" y="193"/>
      <point x="168" y="308"/>
      <point x="168" y="450" type="curve" smooth="yes"/>
      <point x="168" y="592"/>
      <point x="283" y="707"/>
      <point x="426" y="707" type="curve" smooth="yes"/>
      <point x="512" y="707"/>
      <point x="587" y="666"/>
      <point x="634" y="601" type="curve"/>
      <point x="646" y="651" type="line"/>
      <point x="594" y="707"/>
      <point x="521" y="744"/>
      <point x="438" y="747" type="curve"/>
      <point x="438" y="870" type="line"/>
      <point x="402" y="870" type="line"/>
      <point x="402" y="746" type="line"/>
      <point x="247" y="734"/>
      <point x="126" y="606"/>
      <point x="126" y="450" type="curve" smooth="yes"/>
      <point x="126" y="294"/>
      <point x="247" y="166"/>
      <point x="402" y="154" type="curve"/>
    </contour>
  </outline>
</glyph>
<glyph name="sterling" format="2">
  <advance width="750"/>
  <unicode hex="00A3"/>
  <outline>
    <contour>
      <point x="174" y="0" type="line"/>
      <point x="642" y="0" type="line"/>
      <point x="642" y="40" type="line"/>
      <point x="260" y="40" type="line"/>
      <point x="303" y="91"/>
      <point x="324" y="137"/>
      <point x="324" y="212" type="curve" smooth="yes"/>
      <point x="324" y="275"/>
      <point x="309" y="354"/>
      <point x="296" y="432" type="curve"/>
      <point x="582" y="432" type="line"/>
      <point x="582" y="468" type="line"/>
      <point x="289" y="468" type="line"/>
      <point x="279" y="527"/>
      <point x="271" y="583"/>
      <point x="271" y="632" type="curve" smooth="yes"/>
      <point x="271" y="790"/>
      <point x="359" y="872"/>
      <point x="472" y="872" type="curve" smooth="yes"/>
      <point x="549" y="872"/>
      <point x="609" y="834"/>
      <point x="650" y="770" type="curve"/>
      <point x="663" y="821" type="line"/>
      <point x="614" y="880"/>
      <point x="549" y="912"/>
      <point x="474" y="912" type="curve" smooth="yes"/>
      <point x="328" y="912"/>
      <point x="229" y="798"/>
      <point x="229" y="630" type="curve" smooth="yes"/>
      <point x="229" y="581"/>
      <point x="237" y="525"/>
      <point x="247" y="468" type="curve"/>
      <point x="90" y="468" type="line"/>
      <point x="90" y="432" type="line"/>
      <point x="254" y="432" type="line"/>
      <point x="268" y="352"/>
      <point x="284" y="273"/>
      <point x="284" y="209" type="curve" smooth="yes"/>
      <point x="284" y="119"/>
      <point x="252" y="79"/>
      <point x="174" y="2" type="curve"/>
    </contour>
  </outline>
</glyph>
<glyph name="currency" format="2">
  <advance width="750"/>
  <unicode hex="00A4"/>
  <outline>
    <contour>
      <point x="375" y="153" type="curve" smooth="yes"/>
      <point x="451" y="153"/>
      <point x="519" y="181"/>
      <point x="572" y="226" type="curve"/>
      <point x="666" y="132" type="line"/>
      <point x="693" y="159" type="line"/>
      <point x="599" y="253" type="line"/>
      <point x="646" y="305"/>
      <point x="675" y="374"/>
      <point x="675" y="450" type="curve" smooth="yes"/>
      <point x="675" y="526"/>
      <point x="646" y="596"/>
      <point x="598" y="648" type="curve"/>
      <point x="693" y="743" type="line"/>
      <point x="668" y="768" type="line"/>
      <point x="573" y="673" type="line"/>
      <point x="520" y="719"/>
      <point x="451" y="747"/>
      <point x="375" y="747" type="curve" smooth="yes"/>
      <point x="299" y="747"/>
      <point x="231" y="719"/>
      <point x="178" y="674" type="curve"/>
      <point x="84" y="768" type="line"/>
      <point x="57" y="741" type="line"/>
      <point x="151" y="647" type="line"/>
      <point x="104" y="595"/>
      <point x="75" y="526"/>
      <point x="75" y="450" type="curve" smooth="yes"/>
      <point x="75" y="374"/>
      <point x="104" y="304"/>
      <point x="152" y="252" type="curve"/>
      <point x="57" y="157" type="line"/>
      <point x="82" y="132" type="line"/>
      <point x="177" y="227" type="line"/>
      <point x="230" y="181"/>
      <point x="299" y="153"/>
    </contour>
    <contour>
      <point x="375" y="193" type="curve" smooth="yes"/>
      <point x="232" y="193"/>
      <point x="117" y="308"/>
      <point x="117" y="450" type="curve" smooth="yes"/>
      <point x="117" y="592"/>
      <point x="232" y="707"/>
      <point x="375" y="707" type="curve" smooth="yes"/>
      <point x="518" y="707"/>
      <point x="633" y="592"/>
      <point x="633" y="450" type="curve" smooth="yes"/>
      <point x="633" y="308"/>
      <point x="518" y="193"/>
    </contour>
  </outline>
</glyph>
<glyph name="yen" format="2">
  <advance width="750"/>
  <unicode hex="00A5"/>
  <outline>
    <contour>
      <point x="353" y="0" type="line"/>
      <point x="397" y="0" type="line"/>
      <point x="397" y="343" type="line"/>
      <point x="660" y="343" type="line"/>
      <point x="660" y="377" type="line"/>
      <point x="397" y="377" type="line"/>
      <point x="397" y="441" type="line"/>
      <point x="448" y="523" type="line"/>
      <point x="660" y="523" type="line"/>
      <point x="660" y="557" type="line"/>
      <point x="469" y="557" type="line"/>
      <point x="680" y="900" type="line"/>
      <point x="630" y="900" type="line"/>
      <point x="446" y="600" type="line" smooth="yes"/>
      <point x="423" y="562"/>
      <point x="399" y="521"/>
      <point x="376" y="480" type="curve"/>
      <point x="353" y="521"/>
      <point x="329" y="562"/>
      <point x="306" y="600" type="curve" smooth="yes"/>
      <point x="122" y="900" type="line"/>
      <point x="70" y="900" type="line"/>
      <point x="281" y="557" type="line"/>
      <point x="90" y="557" type="line"/>
      <point x="90" y="523" type="line"/>
      <point x="302" y="523" type="line"/>
      <point x="353" y="441" type="line"/>
      <point x="353" y="377" type="line"/>
      <point x="90" y="377" type="line"/>
      <point x="90" y="343" type="line"/>
      <point x="353" y="343" type="line"/>
    </contour>
  </outline>
</glyph>
<glyph name="brokenbar" format="2">
  <advance width="480"/>
  <unicode hex="00A6"/>
  <outline>
    <contour>
      <point x="222" y="-180" type="line"/>
      <point x="258" y="-180" type="line"/>
      <point x="258" y="240" type="line"/>
      <point x="222" y="240" type="line"/>
    </contour>
    <contour>
      <point x="222" y="540" type="line"/>
      <point x="258" y="540" type="line"/>
      <point x="258" y="960" type="line"/>
      <point x="222" y="960" type="line"/>
    </contour>
  </outline>
</glyph>
<glyph name="section" format="2">
  <advance width="750"/>
  <unicode hex="00A7"/>
  <outline>
    <contour>
      <point x="361" y="-189" type="curve" smooth="yes"/>
      <point x="484" y="-189"/>
      <point x="579" y="-102"/>
      <point x="579" y="11" type="curve" smooth="yes"/>
      <point x="579" y="81"/>
      <point x="542" y="142"/>
      <point x="473" y="186" type="curve"/>
      <point x="578" y="203"/>
      <point x="651" y="285"/>
      <point x="651" y="383" type="curve" smooth="yes"/>
      <point x="651" y="467"/>
      <point x="598" y="538"/>
      <point x="503" y="581" type="curve" smooth="yes"/>
      <point x="343" y="654" type="line" smooth="yes"/>
      <point x="273" y="686"/>
      <point x="237" y="732"/>
      <point x="237" y="793" type="curve" smooth="yes"/>
      <point x="237" y="873"/>
      <point x="300" y="931"/>
      <point x="385" y="931" type="curve" smooth="yes"/>
      <point x="446" y="931"/>
      <point x="505" y="903"/>
      <point x="544" y="856" type="curve"/>
      <point x="556" y="906" type="line"/>
      <point x="509" y="947"/>
      <point x="445" y="972"/>
      <point x="384" y="972" type="curve" smooth="yes"/>
      <point x="277" y="972"/>
      <point x="195" y="894"/>
      <point x="195" y="792" type="curve" smooth="yes"/>
      <point x="195" y="732"/>
      <point x="224" y="680"/>
      <point x="279" y="642" type="curve"/>
      <point x="173" y="626"/>
      <point x="99" y="544"/>
      <point x="99" y="445" type="curve" smooth="yes"/>
      <point x="99" y="362"/>
      <point x="153" y="290"/>
      <point x="247" y="247" type="curve" smooth="yes"/>
      <point x="413" y="171" type="line" smooth="yes"/>
      <point x="494" y="134"/>
      <point x="537" y="79"/>
      <point x="537" y="10" type="curve" smooth="yes"/>
      <point x="537" y="-83"/>
      <point x="464" y="-151"/>
      <point x="364" y="-151" type="curve" smooth="yes"/>
      <point x="291" y="-151"/>
      <point x="221" y="-115"/>
      <point x="175" y="-54" type="curve"/>
      <point x="163" y="-104" type="line"/>
      <point x="214" y="-158"/>
      <point x="286" y="-189"/>
    </contour>
    <contour>
      <point x="446" y="218" type="curve" smooth="yes"/>
      <point x="419" y="218"/>
      <point x="398" y="224"/>
      <point x="361" y="240" type="curve" smooth="yes"/>
      <point x="329" y="254"/>
      <point x="297" y="269"/>
      <point x="265" y="285" type="curve" smooth="yes"/>
      <point x="181" y="328"/>
      <point x="141" y="381"/>
      <point x="141" y="449" type="curve" smooth="yes"/>
      <point x="141" y="541"/>
      <point x="214" y="610"/>
      <point x="304" y="610" type="curve" smooth="yes"/>
      <point x="331" y="610"/>
      <point x="352" y="604"/>
      <point x="389" y="588" type="curve" smooth="yes"/>
      <point x="421" y="574"/>
      <point x="453" y="559"/>
      <point x="485" y="543" type="curve" smooth="yes"/>
      <point x="569" y="500"/>
      <point x="609" y="447"/>
      <point x="609" y="379" type="curve" smooth="yes"/>
      <point x="609" y="287"/>
      <point x="536" y="218"/>
    </contour>
  </outline>
</glyph>
<glyph name="copyright" format="2">
  <advance width="1260"/>
  <unicode hex="00A9"/>
  <outline>
    <contour>
      <point x="630" y="-102" type="curve" smooth="yes"/>
      <point x="936" y="-102"/>
      <point x="1184" y="145"/>
      <point x="1184" y="450" type="curve" smooth="yes"/>
      <point x="1184" y="755"/>
      <point x="936" y="1002"/>
      <point x="630" y="1002" type="curve" smooth="yes"/>
      <point x="324" y="1002"/>
      <point x="76" y="755"/>
      <point x="76" y="450" type="curve" smooth="yes"/>
      <point x="76" y="145"/>
      <point x="324" y="-102"/>
    </contour>
    <contour>
      <point x="630" y="-62" type="curve" smooth="yes"/>
      <point x="347" y="-62"/>
      <point x="118" y="167"/>
      <point x="118" y="450" type="curve" smooth="yes"/>
      <point x="118" y="733"/>
      <point x="347" y="962"/>
      <point x="630" y="962" type="curve" smooth="yes"/>
      <point x="913" y="962"/>
      <point x="1142" y="733"/>
      <point x="1142" y="450" type="curve" smooth="yes"/>
      <point x="1142" y="167"/>
      <point x="913" y="-62"/>
    </contour>
    <contour>
      <point x="646" y="168" type="curve" smooth="yes"/>
      <point x="729" y="168"/>
      <point x="803" y="203"/>
      <point x="855" y="259" type="curve"/>
      <point x="843" y="307" type="line"/>
      <point x="799" y="245"/>
      <point x="728" y="206"/>
      <point x="646" y="206" type="curve" smooth="yes"/>
      <point x="510" y="206"/>
      <point x="401" y="315"/>
      <point x="401" y="450" type="curve" smooth="yes"/>
      <point x="401" y="585"/>
      <point x="510" y="694"/>
      <point x="646" y="694" type="curve" smooth="yes"/>
      <point x="728" y="694"/>
      <point x="799" y="655"/>
      <point x="843" y="593" type="curve"/>
      <point x="855" y="641" type="line"/>
      <point x="803" y="697"/>
      <point x="729" y="732"/>
      <point x="646" y="732" type="curve" smooth="yes"/>
      <point x="488" y="732"/>
      <point x="361" y="606"/>
      <point x="361" y="450" type="curve" smooth="yes"/>
      <point x="361" y="294"/>
      <point x="488" y="168"/>
    </contour>
  </outline>
</glyph>
<glyph name="ordfeminine" format="2">
  <advance width="480"/>
  <unicode hex="00AA"/>
  <outline>
    <contour>
      <point x="234" y="415" type="curve" smooth="yes"/>
      <point x="294" y="415"/>
      <point x="349" y="445"/>
      <point x="383" y="497" type="curve"/>
      <point x="383" y="420" type="line"/>
      <point x="417" y="420" type="line"/>
      <point x="417" y="780" type="line"/>
      <point x="383" y="780" type="line"/>
      <point x="383" y="702" type="line"/>
      <point x="350" y="754"/>
      <point x="294" y="785"/>
      <point x="234" y="785" type="curve" smooth="yes"/>
      <point x="133" y="785"/>
      <point x="52" y="702"/>
      <point x="52" y="600" type="curve" smooth="yes"/>
      <point x="52" y="498"/>
      <point x="133" y="415"/>
    </contour>
    <contour>
      <point x="237" y="449" type="curve" smooth="yes"/>
      <point x="155" y="449"/>
      <point x="88" y="517"/>
      <point x="88" y="600" type="curve" smooth="yes"/>
      <point x="88" y="683"/>
      <point x="155" y="751"/>
      <point x="237" y="751" type="curve" smooth="yes"/>
      <point x="319" y="751"/>
      <point x="386" y="684"/>
      <point x="386" y="600" type="curve" smooth="yes"/>
      <point x="386" y="516"/>
      <point x="319" y="449"/>
    </contour>
  </outline>
</glyph>
<glyph name="logicalnot" format="2">
  <advance width="750"/>
  <unicode hex="00AC"/>
  <outline>
    <contour>
      <point x="606" y="225" type="line"/>
      <point x="640" y="225" type="line"/>
      <point x="640" y="468" type="line"/>
      <point x="70" y="468" type="line"/>
      <point x="70" y="432" type="line"/>
      <point x="606" y="432" type="line"/>
    </contour>
  </outline>
</glyph>
<glyph name="registered" format="2">
  <advance width="600"/>
  <unicode hex="00AE"/>
  <outline>
    <contour>
      <point x="300" y="402" type="curve" smooth="yes"/>
      <point x="445" y="402"/>
      <point x="564" y="517"/>
      <point x="564" y="660" type="curve" smooth="yes"/>
      <point x="564" y="803"/>
      <point x="445" y="918"/>
      <point x="300" y="918" type="curve" smooth="yes"/>
      <point x="154" y="918"/>
      <point x="36" y="803"/>
      <point x="36" y="660" type="curve" smooth="yes"/>
      <point x="36" y="517"/>
      <point x="154" y="402"/>
    </contour>
    <contour>
      <point x="300" y="433" type="curve" smooth="yes"/>
      <point x="172" y="433"/>
      <point x="70" y="535"/>
      <point x="70" y="660" type="curve" smooth="yes"/>
      <point x="70" y="785"/>
      <point x="172" y="887"/>
      <point x="300" y="887" type="curve" smooth="yes"/>
      <point x="427" y="887"/>
      <point x="530" y="785"/>
      <point x="530" y="660" type="curve" smooth="yes"/>
      <point x="530" y="535"/>
      <point x="427" y="433"/>
    </contour>
    <contour>
      <point x="218" y="546" type="line"/>
      <point x="250" y="546" type="line"/>
      <point x="250" y="632" type="line"/>
      <point x="309" y="632" type="line"/>
      <point x="369" y="546" type="line"/>
      <point x="409" y="546" type="line"/>
      <point x="341" y="641" type="line"/>
      <point x="371" y="653"/>
      <point x="388" y="678"/>
      <point x="388" y="708" type="curve" smooth="yes"/>
      <point x="388" y="750"/>
      <point x="354" y="786"/>
      <point x="304" y="786" type="curve" smooth="yes"/>
      <point x="218" y="786" type="line"/>
    </contour>
    <contour>
      <point x="250" y="662" type="line"/>
      <point x="250" y="756" type="line"/>
      <point x="302" y="756" type="line" smooth="yes"/>
      <point x="332" y="756"/>
      <point x="356" y="737"/>
      <point x="356" y="709" type="curve" smooth="yes"/>
      <point x="356" y="683"/>
      <point x="337" y="662"/>
      <point x="302" y="662" type="curve" smooth="yes"/>
    </contour>
  </outline>
</glyph>
<glyph name="degree" format="2">
  <advance width="480"/>
  <unicode hex="00B0"/>
  <outline>
    <contour>
      <point x="240" y="588" type="curve" smooth="yes"/>
      <point x="330" y="588"/>
      <point x="404" y="660"/>
      <point x="404" y="750" type="curve" smooth="yes"/>
      <point x="404" y="840"/>
      <point x="330" y="912"/>
      <point x="240" y="912" type="curve" smooth="yes"/>
      <point x="150" y="912"/>
      <point x="76" y="840"/>
      <point x="76" y="750" type="curve" smooth="yes"/>
      <point x="76" y="660"/>
      <point x="150" y="588"/>
    </contour>
    <contour>
      <point x="240" y="622" type="curve" smooth="yes"/>
      <point x="168" y="622"/>
      <point x="112" y="680"/>
      <point x="112" y="750" type="curve" smooth="yes"/>
      <point x="112" y="820"/>
      <point x="168" y="878"/>
      <point x="240" y="878" type="curve" smooth="yes"/>
      <point x="311" y="878"/>
      <point x="368" y="820"/>
      <point x="368" y="750" type="curve" smooth="yes"/>
      <point x="368" y="680"/>
      <point x="311" y="622"/>
    </contour>
  </outline>
</glyph>
<glyph name="plusminus" format="2">
  <advance width="750"/>
  <unicode hex="00B1"/>
  <outline>
    <contour>
      <point x="356" y="265" type="line"/>
      <point x="394" y="265" type="line"/>
      <point x="394" y="492" type="line"/>
      <point x="650" y="492" type="line"/>
      <point x="650" y="528" type="line"/>
      <point x="394" y="528" type="line"/>
      <point x="394" y="785" type="line"/>
      <point x="356" y="785" type="line"/>
      <point x="356" y="528" type="line"/>
      <point x="100" y="528" type="line"/>
      <point x="100" y="492" type="line"/>
      <point x="356" y="492" type="line"/>
    </contour>
    <contour>
      <point x="108" y="103" type="line"/>
      <point x="642" y="103" type="line"/>
      <point x="642" y="137" type="line"/>
      <point x="108" y="137" type="line"/>
    </contour>
  </outline>
</glyph>
<glyph name="micro" format="2">
  <advance width="730"/>
  <unicode hex="00B5"/>
  <unicode hex="03BC"/>
  <outline>
    <contour>
      <point x="106" y="-300" type="line"/>
      <point x="148" y="-300" type="line"/>
      <point x="148" y="117" type="line"/>
      <point x="185" y="38"/>
      <point x="259" y="-12"/>
      <point x="347" y="-12" type="curve" smooth="yes"/>
      <point x="438" y="-12"/>
      <point x="519" y="42"/>
      <point x="555" y="132" type="curve"/>
      <point x="555" y="47"/>
      <point x="623" y="-9"/>
      <point x="688" y="-9" type="curve"/>
      <point x="697" y="29" type="line"/>
      <point x="628" y="30"/>
      <point x="591" y="74"/>
      <point x="591" y="155" type="curve" smooth="yes"/>
      <point x="591" y="570" type="line"/>
      <point x="549" y="570" type="line"/>
      <point x="549" y="251" type="line" smooth="yes"/>
      <point x="549" y="120"/>
      <point x="460" y="28"/>
      <point x="353" y="28" type="curve" smooth="yes"/>
      <point x="233" y="28"/>
      <point x="148" y="123"/>
      <point x="148" y="257" type="curve" smooth="yes"/>
      <point x="148" y="570" type="line"/>
      <point x="106" y="570" type="line"/>
    </contour>
  </outline>
</glyph>
<glyph name="paragraph" format="2">
  <advance width="750"/>
  <unicode hex="00B6"/>
  <outline>
    <contour>
      <point x="348" y="-180" type="line"/>
      <point x="384" y="-180" type="line"/>
      <point x="384" y="928" type="line"/>
      <point x="576" y="928" type="line"/>
      <point x="576" y="-180" type="line"/>
      <point x="612" y="-180" type="line"/>
      <point x="612" y="960" type="line"/>
      <point x="377" y="960" type="line" smooth="yes"/>
      <point x="191" y="960"/>
      <point x="60" y="845"/>
      <point x="60" y="682" type="curve" smooth="yes"/>
      <point x="60" y="529"/>
      <point x="177" y="415"/>
      <point x="348" y="400" type="curve"/>
    </contour>
  </outline>
</glyph>
<glyph name="ordmasculine" format="2">
  <advance width="480"/>
  <unicode hex="00BA"/>
  <outline>
    <contour>
      <point x="240" y="414" type="curve" smooth="yes"/>
      <point x="344" y="414"/>
      <point x="428" y="497"/>
      <point x="428" y="600" type="curve" smooth="yes"/>
      <point x="428" y="703"/>
      <point x="344" y="786"/>
      <point x="240" y="786" type="curve" smooth="yes"/>
      <point x="136" y="786"/>
      <point x="52" y="703"/>
      <point x="52" y="600" type="curve" smooth="yes"/>
      <point x="52" y="497"/>
      <point x="136" y="414"/>
    </contour>
    <contour>
      <point x="240" y="448" type="curve" smooth="yes"/>
      <point x="156" y="448"/>
      <point x="88" y="516"/>
      <point x="88" y="600" type="curve" smooth="yes"/>
      <point x="88" y="684"/>
      <point x="156" y="752"/>
      <point x="240" y="752" type="curve" smooth="yes"/>
      <point x="323" y="752"/>
      <point x="391" y="684"/>
      <point x="391" y="600" type="curve" smooth="yes"/>
      <point x="391" y="516"/>
      <point x="324" y="448"/>
    </contour>
  </outline>
</glyph>
<glyph name="questiondown" format="2">
  <advance width="480"/>
  <unicode hex="00BF"/>
  <outline>
    <contour>
      <point x="250" y="-308" type="curve" smooth="yes"/>
      <point x="304" y="-308"/>
      <point x="352" y="-291"/>
      <point x="390" y="-262" type="curve"/>
      <point x="390" y="-210" type="line"/>
      <point x="355" y="-248"/>
      <point x="311" y="-268"/>
      <point x="254" y="-268" type="curve" smooth="yes"/>
      <point x="148" y="-268"/>
      <point x="84" y="-198"/>
      <point x="84" y="-105" type="curve" smooth="yes"/>
      <point x="84" y="47"/>
      <point x="255" y="118"/>
      <point x="254" y="334" type="curve"/>
      <point x="218" y="334" type="line"/>
      <point x="217" y="135"/>
      <point x="42" y="59"/>
      <point x="42" y="-105" type="curve" smooth="yes"/>
      <point x="42" y="-217"/>
      <point x="125" y="-308"/>
    </contour>
    <contour>
      <point x="241" y="528" type="curve" smooth="yes"/>
      <point x="264" y="528"/>
      <point x="283" y="547"/>
      <point x="283" y="570" type="curve" smooth="yes"/>
      <point x="283" y="593"/>
      <point x="264" y="612"/>
      <point x="241" y="612" type="curve" smooth="yes"/>
      <point x="218" y="612"/>
      <point x="199" y="593"/>
      <point x="199" y="570" type="curve" smooth="yes"/>
      <point x="199" y="547"/>
      <point x="218" y="528"/>
    </contour>
  </outline>
</glyph>
<glyph name="Aring" format="2">
  <advance width="780"/>
  <unicode hex="00C5"/>
  <outline>
    <contour>
      <point x="45" y="0" type="line"/>
      <point x="89" y="0" type="line"/>
      <point x="227" y="374" type="line"/>
      <point x="551" y="374" type="line"/>
      <point x="689" y="0" type="line"/>
      <point x="735" y="0" type="line"/>
      <point x="409" y="881" type="line"/>
      <point x="474" y="890"/>
      <point x="526" y="944"/>
      <point x="526" y="1013" type="curve" smooth="yes"/>
      <point x="526" y="1088"/>
      <point x="464" y="1146"/>
      <point x="390" y="1146" type="curve" smooth="yes"/>
      <point x="315" y="1146"/>
      <point x="254" y="1088"/>
      <point x="254" y="1013" type="curve" smooth="yes"/>
      <point x="254" y="944"/>
      <point x="305" y="890"/>
      <point x="371" y="881" type="curve"/>
    </contour>
    <contour>
      <point x="240" y="412" type="line"/>
      <point x="331" y="660" type="line" smooth="yes"/>
      <point x="357" y="730"/>
      <point x="370" y="764"/>
      <point x="389" y="828" type="curve"/>
      <point x="408" y="764"/>
      <point x="421" y="730"/>
      <point x="447" y="660" type="curve" smooth="yes"/>
      <point x="538" y="412" type="line"/>
    </contour>
    <contour>
      <point x="390" y="914" type="curve" smooth="yes"/>
      <point x="336" y="914"/>
      <point x="291" y="959"/>
      <point x="291" y="1013" type="curve" smooth="yes"/>
      <point x="291" y="1066"/>
      <point x="336" y="1112"/>
      <point x="390" y="1112" type="curve" smooth="yes"/>
      <point x="443" y="1112"/>
      <point x="489" y="1066"/>
      <point x="489" y="1013" type="curve" smooth="yes"/>
      <point x="489" y="959"/>
      <point x="443" y="914"/>
    </contour>
  </outline>
</glyph>
<glyph name="AE" format="2">
  <advance width="1000"/>
  <unicode hex="00C6"/>
  <anchor x="353" y="0" name="bottom"/>
  <anchor x="570" y="900" name="top"/>
  <outline>
    <contour>
      <point x="45" y="0" type="line"/>
      <point x="89" y="0" type="line"/>
      <point x="227" y="374" type="line"/>
      <point x="519" y="374" type="line"/>
      <point x="629" y="0" type="line"/>
      <point x="964" y="0" type="line"/>
      <point x="955" y="40" type="line"/>
      <point x="663" y="40" type="line"/>
      <point x="515" y="536" type="line"/>
      <point x="777" y="536" type="line"/>
      <point x="768" y="574" type="line"/>
      <point x="503" y="574" type="line"/>
      <point x="418" y="860" type="line"/>
      <point x="760" y="860" type="line"/>
      <point x="751" y="900" type="line"/>
      <point x="378" y="900" type="line"/>
    </contour>
    <contour>
      <point x="240" y="412" type="line"/>
      <point x="331" y="660" type="line" smooth="yes"/>
      <point x="357" y="730"/>
      <point x="370" y="764"/>
      <point x="389" y="828" type="curve"/>
      <point x="404" y="764"/>
      <point x="414" y="730"/>
      <point x="435" y="660" type="curve" smooth="yes"/>
      <point x="508" y="412" type="line"/>
    </contour>
  </outline>
</glyph>
<glyph name="Ccedilla" format="2">
  <advance width="880"/>
  <unicode hex="00C7"/>
  <outline>
    <contour>
      <point x="321" y="-180" type="line"/>
      <point x="375" y="-180" type="line"/>
      <point x="530" y="-12" type="line"/>
      <point x="651" y="-9"/>
      <point x="761" y="42"/>
      <point x="841" y="124" type="curve"/>
      <point x="829" y="174" type="line"/>
      <point x="755" y="86"/>
      <point x="645" y="30"/>
      <point x="520" y="30" type="curve" smooth="yes"/>
      <point x="291" y="30"/>
      <point x="112" y="218"/>
      <point x="112" y="450" type="curve" smooth="yes"/>
      <point x="112" y="682"/>
      <point x="291" y="870"/>
      <point x="520" y="870" type="curve" smooth="yes"/>
      <point x="645" y="870"/>
      <point x="755" y="814"/>
      <point x="829" y="726" type="curve"/>
      <point x="842" y="782" type="line"/>
      <point x="760" y="862"/>
      <point x="645" y="912"/>
      <point x="520" y="912" type="curve" smooth="yes"/>
      <point x="269" y="912"/>
      <point x="66" y="706"/>
      <point x="66" y="450" type="curve" smooth="yes"/>
      <point x="66" y="205"/>
      <point x="252" y="6"/>
      <point x="488" y="-11" type="curve"/>
    </contour>
  </outline>
</glyph>
<glyph name="Eth" format="2">
  <advance width="990"/>
  <unicode hex="00D0"/>
  <outline>
    <contour>
      <point x="166" y="0" type="line"/>
      <point x="463" y="0" type="line" smooth="yes"/>
      <point x="724" y="0"/>
      <point x="924" y="201"/>
      <point x="924" y="450" type="curve" smooth="yes"/>
      <point x="924" y="699"/>
      <point x="724" y="900"/>
      <point x="463" y="900" type="curve" smooth="yes"/>
      <point x="166" y="900" type="line"/>
      <point x="166" y="499" type="line"/>
      <point x="60" y="499" type="line"/>
      <point x="60" y="461" type="line"/>
      <point x="166" y="461" type="line"/>
    </contour>
    <contour>
      <point x="210" y="40" type="line"/>
      <point x="210" y="461" type="line"/>
      <point x="540" y="461" type="line"/>
      <point x="540" y="499" type="line"/>
      <point x="210" y="499" type="line"/>
      <point x="210" y="860" type="line"/>
      <point x="458" y="860" type="line" smooth="yes"/>
      <point x="700" y="860"/>
      <point x="878" y="676"/>
      <point x="878" y="450" type="curve" smooth="yes"/>
      <point x="878" y="224"/>
      <point x="700" y="40"/>
      <point x="458" y="40" type="curve" smooth="yes"/>
    </contour>
  </outline>
</glyph>
<glyph name="multiply" format="2">
  <advance width="750"/>
  <unicode hex="00D7"/>
  <outline>
    <contour>
      <point x="142" y="192" type="line"/>
      <point x="374" y="424" type="line"/>
      <point x="606" y="192" type="line"/>
      <point x="633" y="219" type="line"/>
      <point x="401" y="451" type="line"/>
      <point x="633" y="683" type="line"/>
      <point x="608" y="708" type="line"/>
      <point x="376" y="476" type="line"/>
      <point x="144" y="708" type="line"/>
      <point x="117" y="681" type="line"/>
      <point x="349" y="449" type="line"/>
      <point x="117" y="217" type="line"/>
    </contour>
  </outline>
</glyph>
<glyph name="Oslash" format="2">
  <advance width="1040"/>
  <unicode hex="00D8"/>
  <anchor x="520" y="0" name="bottom"/>
  <anchor x="520" y="900" name="top"/>
  <outline>
    <contour>
      <point x="520" y="-12" type="curve" smooth="yes"/>
      <point x="771" y="-12"/>
      <point x="974" y="194"/>
      <point x="974" y="450" type="curve" smooth="yes"/>
      <point x="974" y="585"/>
      <point x="917" y="707"/>
      <point x="827" y="791" type="curve"/>
      <point x="900" y="880" type="line"/>
      <point x="871" y="904" type="line"/>
      <point x="798" y="816" type="line"/>
      <point x="721" y="876"/>
      <point x="625" y="912"/>
      <point x="520" y="912" type="curve" smooth="yes"/>
      <point x="269" y="912"/>
      <point x="66" y="706"/>
      <point x="66" y="450" type="curve" smooth="yes"/>
      <point x="66" y="315"/>
      <point x="123" y="193"/>
      <point x="213" y="109" type="curve"/>
      <point x="140" y="20" type="line"/>
      <point x="169" y="-4" type="line"/>
      <point x="242" y="84" type="line"/>
      <point x="319" y="24"/>
      <point x="415" y="-12"/>
    </contour>
    <contour>
      <point x="241" y="142" type="line"/>
      <point x="161" y="219"/>
      <point x="112" y="328"/>
      <point x="112" y="450" type="curve" smooth="yes"/>
      <point x="112" y="682"/>
      <point x="291" y="870"/>
      <point x="520" y="870" type="curve" smooth="yes"/>
      <point x="616" y="870"/>
      <point x="702" y="838"/>
      <point x="771" y="783" type="curve"/>
    </contour>
    <contour>
      <point x="520" y="30" type="curve" smooth="yes"/>
      <point x="425" y="30"/>
      <point x="338" y="63"/>
      <point x="269" y="117" type="curve"/>
      <point x="799" y="758" type="line"/>
      <point x="879" y="681"/>
      <point x="928" y="572"/>
      <point x="928" y="450" type="curve" smooth="yes"/>
      <point x="928" y="218"/>
      <point x="750" y="30"/>
    </contour>
  </outline>
</glyph>
<glyph name="Thorn" format="2">
  <advance width="700"/>
  <unicode hex="00DE"/>
  <outline>
    <contour>
      <point x="136" y="0" type="line"/>
      <point x="180" y="0" type="line"/>
      <point x="180" y="228" type="line"/>
      <point x="344" y="228" type="line" smooth="yes"/>
      <point x="525" y="228"/>
      <point x="640" y="350"/>
      <point x="640" y="504" type="curve" smooth="yes"/>
      <point x="640" y="659"/>
      <point x="525" y="780"/>
      <point x="344" y="780" type="curve" smooth="yes"/>
      <point x="180" y="780" type="line"/>
      <point x="180" y="900" type="line"/>
      <point x="136" y="900" type="line"/>
    </contour>
    <contour>
      <point x="180" y="266" type="line"/>
      <point x="180" y="742" type="line"/>
      <point x="338" y="742" type="line" smooth="yes"/>
      <point x="504" y="742"/>
      <point x="598" y="638"/>
      <point x="598" y="504" type="curve" smooth="yes"/>
      <point x="598" y="371"/>
      <point x="504" y="266"/>
      <point x="338" y="266" type="curve" smooth="yes"/>
    </contour>
  </outline>
</glyph>
<glyph name="germandbls" format="2">
  <advance width="710"/>
  <unicode hex="00DF"/>
  <outline>
    <contour>
      <point x="347" y="-6" type="line"/>
      <point x="511" y="12"/>
      <point x="630" y="144"/>
      <point x="630" y="306" type="curve" smooth="yes"/>
      <point x="630" y="434"/>
      <point x="555" y="538"/>
      <point x="415" y="602" type="curve"/>
      <point x="489" y="650"/>
      <point x="526" y="711"/>
      <point x="526" y="781" type="curve" smooth="yes"/>
      <point x="526" y="889"/>
      <point x="437" y="972"/>
      <point x="322" y="972" type="curve" smooth="yes"/>
      <point x="199" y="972"/>
      <point x="109" y="877"/>
      <point x="109" y="746" type="curve" smooth="yes"/>
      <point x="109" y="0" type="line"/>
      <point x="151" y="0" type="line"/>
      <point x="151" y="742" type="line" smooth="yes"/>
      <point x="151" y="858"/>
      <point x="219" y="934"/>
      <point x="321" y="934" type="curve" smooth="yes"/>
      <point x="416" y="934"/>
      <point x="484" y="869"/>
      <point x="484" y="779" type="curve" smooth="yes"/>
      <point x="484" y="703"/>
      <point x="436" y="643"/>
      <point x="338" y="595" type="curve"/>
      <point x="338" y="593" type="line"/>
      <point x="503" y="538"/>
      <point x="588" y="439"/>
      <point x="588" y="306" type="curve" smooth="yes"/>
      <point x="588" y="158"/>
      <point x="484" y="45"/>
      <point x="337" y="31" type="curve"/>
    </contour>
  </outline>
</glyph>
<glyph name="ae" format="2">
  <advance width="1160"/>
  <unicode hex="00E6"/>
  <anchor x="580" y="0" name="bottom"/>
  <anchor x="580" y="570" name="top"/>
  <outline>
    <contour>
      <point x="273" y="-8" type="curve" smooth="yes"/>
      <point x="372" y="-8"/>
      <point x="495" y="40"/>
      <point x="553" y="173" type="curve"/>
      <point x="599" y="62"/>
      <point x="709" y="-12"/>
      <point x="836" y="-12" type="curve" smooth="yes"/>
      <point x="924" y="-12"/>
      <point x="1001" y="25"/>
      <point x="1056" y="84" type="curve"/>
      <point x="1044" y="134" type="line"/>
      <point x="997" y="69"/>
      <point x="922" y="28"/>
      <point x="836" y="28" type="curve" smooth="yes"/>
      <point x="690" y="28"/>
      <point x="572" y="140"/>
      <point x="572" y="294" type="curve"/>
      <point x="598" y="292"/>
      <point x="624" y="291"/>
      <point x="650" y="291" type="curve" smooth="yes"/>
      <point x="1100" y="291" type="line"/>
      <point x="1100" y="300" type="line" smooth="yes"/>
      <point x="1100" y="456"/>
      <point x="977" y="582"/>
      <point x="819" y="582" type="curve" smooth="yes"/>
      <point x="707" y="582"/>
      <point x="609" y="519"/>
      <point x="561" y="424" type="curve"/>
      <point x="530" y="521"/>
      <point x="440" y="580"/>
      <point x="316" y="580" type="curve" smooth="yes"/>
      <point x="237" y="580"/>
      <point x="161" y="556"/>
      <point x="100" y="512" type="curve"/>
      <point x="111" y="469" type="line"/>
      <point x="167" y="516"/>
      <point x="236" y="540"/>
      <point x="314" y="540" type="curve" smooth="yes"/>
      <point x="452" y="540"/>
      <point x="533" y="465"/>
      <point x="533" y="336" type="curve" smooth="yes"/>
      <point x="531" y="324"/>
      <point x="530" y="313"/>
      <point x="530" y="301" type="curve"/>
      <point x="465" y="334"/>
      <point x="381" y="354"/>
      <point x="304" y="354" type="curve" smooth="yes"/>
      <point x="158" y="354"/>
      <point x="60" y="282"/>
      <point x="60" y="173" type="curve" smooth="yes"/>
      <point x="60" y="68"/>
      <point x="149" y="-8"/>
    </contour>
    <contour>
      <point x="278" y="30" type="curve" smooth="yes"/>
      <point x="176" y="30"/>
      <point x="102" y="89"/>
      <point x="102" y="171" type="curve" smooth="yes"/>
      <point x="102" y="257"/>
      <point x="187" y="316"/>
      <point x="309" y="316" type="curve" smooth="yes"/>
      <point x="381" y="316"/>
      <point x="461" y="295"/>
      <point x="531" y="260" type="curve"/>
      <point x="533" y="240" type="line"/>
      <point x="514" y="122"/>
      <point x="406" y="30"/>
    </contour>
    <contour>
      <point x="574" y="324" type="curve"/>
      <point x="589" y="451"/>
      <point x="695" y="544"/>
      <point x="819" y="544" type="curve" smooth="yes"/>
      <point x="946" y="544"/>
      <point x="1044" y="448"/>
      <point x="1057" y="323" type="curve"/>
      <point x="1036" y="325"/>
      <point x="1015" y="327"/>
      <point x="980" y="327" type="curve" smooth="yes"/>
      <point x="650" y="327" type="line" smooth="yes"/>
      <point x="625" y="327"/>
      <point x="599" y="326"/>
    </contour>
  </outline>
</glyph>
<glyph name="ccedilla" format="2">
  <advance width="610"/>
  <unicode hex="00E7"/>
  <outline>
    <contour>
      <point x="172" y="-180" type="line"/>
      <point x="226" y="-180" type="line"/>
      <point x="382" y="-11" type="line"/>
      <point x="461" y="-6"/>
      <point x="530" y="30"/>
      <point x="580" y="84" type="curve"/>
      <point x="568" y="134" type="line"/>
      <point x="521" y="69"/>
      <point x="446" y="28"/>
      <point x="360" y="28" type="curve" smooth="yes"/>
      <point x="217" y="28"/>
      <point x="102" y="143"/>
      <point x="102" y="285" type="curve" smooth="yes"/>
      <point x="102" y="427"/>
      <point x="217" y="542"/>
      <point x="360" y="542" type="curve" smooth="yes"/>
      <point x="446" y="542"/>
      <point x="521" y="501"/>
      <point x="568" y="436" type="curve"/>
      <point x="580" y="486" type="line"/>
      <point x="525" y="545"/>
      <point x="448" y="582"/>
      <point x="360" y="582" type="curve" smooth="yes"/>
      <point x="194" y="582"/>
      <point x="60" y="449"/>
      <point x="60" y="285" type="curve" smooth="yes"/>
      <point x="60" y="128"/>
      <point x="183" y="-1"/>
      <point x="339" y="-11" type="curve"/>
    </contour>
  </outline>
</glyph>
<glyph name="eth" format="2">
  <advance width="720"/>
  <unicode hex="00F0"/>
  <outline>
    <contour>
      <point x="363" y="-12" type="curve" smooth="yes"/>
      <point x="531" y="-12"/>
      <point x="660" y="121"/>
      <point x="660" y="296" type="curve" smooth="yes"/>
      <point x="660" y="362"/>
      <point x="642" y="453"/>
      <point x="562" y="578" type="curve" smooth="yes"/>
      <point x="523" y="638"/>
      <point x="458" y="728"/>
      <point x="389" y="815" type="curve"/>
      <point x="506" y="891" type="line"/>
      <point x="488" y="919" type="line"/>
      <point x="369" y="841" type="line"/>
      <point x="334" y="884"/>
      <point x="301" y="926"/>
      <point x="271" y="960" type="curve"/>
      <point x="220" y="960" type="line"/>
      <point x="250" y="925"/>
      <point x="291" y="875"/>
      <point x="336" y="819" type="curve"/>
      <point x="201" y="731" type="line"/>
      <point x="218" y="703" type="line"/>
      <point x="356" y="793" type="line"/>
      <point x="437" y="691"/>
      <point x="522" y="578"/>
      <point x="570" y="494" type="curve"/>
      <point x="519" y="548"/>
      <point x="443" y="582"/>
      <point x="360" y="582" type="curve" smooth="yes"/>
      <point x="194" y="582"/>
      <point x="60" y="449"/>
      <point x="60" y="285" type="curve" smooth="yes"/>
      <point x="60" y="121"/>
      <point x="194" y="-12"/>
    </contour>
    <contour>
      <point x="360" y="28" type="curve" smooth="yes"/>
      <point x="217" y="28"/>
      <point x="102" y="143"/>
      <point x="102" y="285" type="curve" smooth="yes"/>
      <point x="102" y="427"/>
      <point x="217" y="542"/>
      <point x="360" y="542" type="curve" smooth="yes"/>
      <point x="503" y="542"/>
      <point x="618" y="427"/>
      <point x="618" y="285" type="curve" smooth="yes"/>
      <point x="618" y="143"/>
      <point x="503" y="28"/>
    </contour>
  </outline>
</glyph>
<glyph name="divide" format="2">
  <advance width="750"/>
  <unicode hex="00F7"/>
  <outline>
    <contour>
      <point x="70" y="432" type="line"/>
      <point x="680" y="432" type="line"/>
      <point x="680" y="468" type="line"/>
      <point x="70" y="468" type="line"/>
    </contour>
    <contour>
      <point x="375" y="201" type="curve" smooth="yes"/>
      <point x="398" y="201"/>
      <point x="414" y="218"/>
      <point x="414" y="240" type="curve" smooth="yes"/>
      <point x="414" y="262"/>
      <point x="398" y="279"/>
      <point x="375" y="279" type="curve" smooth="yes"/>
      <point x="353" y="279"/>
      <point x="336" y="262"/>
      <point x="336" y="240" type="curve" smooth="yes"/>
      <point x="336" y="218"/>
      <point x="353" y="201"/>
    </contour>
    <contour>
      <point x="375" y="621" type="curve" smooth="yes"/>
      <point x="398" y="621"/>
      <point x="414" y="638"/>
      <point x="414" y="660" type="curve" smooth="yes"/>
      <point x="414" y="682"/>
      <point x="398" y="699"/>
      <point x="375" y="699" type="curve" smooth="yes"/>
      <point x="353" y="699"/>
      <point x="336" y="682"/>
      <point x="336" y="660" type="curve" smooth="yes"/>
      <point x="336" y="638"/>
      <point x="353" y="621"/>
    </contour>
  </outline>
</glyph>
<glyph name="oslash" format="2">
  <advance width="720"/>
  <unicode hex="00F8"/>
  <anchor x="360" y="570" name="top"/>
  <outline>
    <contour>
      <point x="360" y="-12" type="curve" smooth="yes"/>
      <point x="526" y="-12"/>
      <point x="660" y="121"/>
      <point x="660" y="285" type="curve" smooth="yes"/>
      <point x="660" y="370"/>
      <point x="624" y="446"/>
      <point x="566" y="501" type="curve"/>
      <point x="619" y="563" type="line"/>
      <point x="590" y="588" type="line"/>
      <point x="537" y="525" type="line"/>
      <point x="487" y="561"/>
      <point x="426" y="582"/>
      <point x="360" y="582" type="curve" smooth="yes"/>
      <point x="194" y="582"/>
      <point x="60" y="449"/>
      <point x="60" y="285" type="curve" smooth="yes"/>
      <point x="60" y="200"/>
      <point x="96" y="124"/>
      <point x="154" y="69" type="curve"/>
      <point x="101" y="7" type="line"/>
      <point x="130" y="-18" type="line"/>
      <point x="183" y="45" type="line"/>
      <point x="233" y="9"/>
      <point x="294" y="-12"/>
    </contour>
    <contour>
      <point x="180" y="101" type="line"/>
      <point x="132" y="147"/>
      <point x="102" y="213"/>
      <point x="102" y="285" type="curve" smooth="yes"/>
      <point x="102" y="427"/>
      <point x="217" y="542"/>
      <point x="360" y="542" type="curve" smooth="yes"/>
      <point x="416" y="542"/>
      <point x="468" y="524"/>
      <point x="511" y="494" type="curve"/>
    </contour>
    <contour>
      <point x="360" y="28" type="curve" smooth="yes"/>
      <point x="304" y="28"/>
      <point x="252" y="46"/>
      <point x="209" y="76" type="curve"/>
      <point x="540" y="469" type="line"/>
      <point x="588" y="423"/>
      <point x="618" y="357"/>
      <point x="618" y="285" type="curve" smooth="yes"/>
      <point x="618" y="143"/>
      <point x="503" y="28"/>
    </contour>
  </outline>
</glyph>
<glyph name="thorn" format="2">
  <advance width="740"/>
  <unicode hex="00FE"/>
  <outline>
    <contour>
      <point x="106" y="-300" type="line"/>
      <point x="148" y="-300" type="line"/>
      <point x="148" y="132" type="line"/>
      <point x="199" y="48"/>
      <point x="288" y="-8"/>
      <point x="392" y="-8" type="curve" smooth="yes"/>
      <point x="551" y="-8"/>
      <point x="680" y="123"/>
      <point x="680" y="285" type="curve" smooth="yes"/>
      <point x="680" y="447"/>
      <point x="551" y="578"/>
      <point x="392" y="578" type="curve" smooth="yes"/>
      <point x="285" y="578"/>
      <point x="199" y="519"/>
      <point x="148" y="438" type="curve"/>
      <point x="148" y="960" type="line"/>
      <point x="106" y="960" type="line"/>
    </contour>
    <contour>
      <point x="389" y="32" type="curve" smooth="yes"/>
      <point x="251" y="32"/>
      <point x="140" y="145"/>
      <point x="140" y="285" type="curve" smooth="yes"/>
      <point x="140" y="425"/>
      <point x="251" y="538"/>
      <point x="389" y="538" type="curve" smooth="yes"/>
      <point x="527" y="538"/>
      <point x="638" y="425"/>
      <point x="638" y="285" type="curve" smooth="yes"/>
      <point x="638" y="145"/>
      <point x="527" y="32"/>
    </contour>
  </outline>
</glyph>
<glyph name="Aogonek" format="2">
  <advance width="780"/>
  <unicode hex="0104"/>
  <outline>
    <contour>
      <point x="756" y="-282" type="curve"/>
      <point x="766" y="-244" type="line"/>
      <point x="699" y="-244"/>
      <point x="660" y="-205"/>
      <point x="660" y="-139" type="curve" smooth="yes"/>
      <point x="660" y="-87"/>
      <point x="686" y="-42"/>
      <point x="735" y="0" type="curve"/>
      <point x="391" y="930" type="line"/>
      <point x="389" y="930" type="line"/>
      <point x="45" y="0" type="line"/>
      <point x="89" y="0" type="line"/>
      <point x="227" y="374" type="line"/>
      <point x="551" y="374" type="line"/>
      <point x="689" y="0" type="line"/>
      <point x="641" y="-47"/>
      <point x="618" y="-98"/>
      <point x="618" y="-148" type="curve" smooth="yes"/>
      <point x="618" y="-227"/>
      <point x="674" y="-282"/>
    </contour>
    <contour>
      <point x="240" y="412" type="line"/>
      <point x="331" y="660" type="line" smooth="yes"/>
      <point x="357" y="730"/>
      <point x="370" y="764"/>
      <point x="389" y="828" type="curve"/>
      <point x="408" y="764"/>
      <point x="421" y="730"/>
      <point x="447" y="660" type="curve" smooth="yes"/>
      <point x="538" y="412" type="line"/>
    </contour>
  </outline>
</glyph>
<glyph name="aogonek" format="2">
  <advance width="740"/>
  <unicode hex="0105"/>
  <outline>
    <contour>
      <point x="678" y="-282" type="curve"/>
      <point x="688" y="-244" type="line"/>
      <point x="635" y="-244"/>
      <point x="582" y="-219"/>
      <point x="582" y="-139" type="curve" smooth="yes"/>
      <point x="582" y="-89"/>
      <point x="603" y="-46"/>
      <point x="634" y="0" type="curve"/>
      <point x="634" y="570" type="line"/>
      <point x="596" y="570" type="line"/>
      <point x="596" y="432" type="line"/>
      <point x="546" y="519"/>
      <point x="455" y="578"/>
      <point x="348" y="578" type="curve" smooth="yes"/>
      <point x="189" y="578"/>
      <point x="60" y="447"/>
      <point x="60" y="285" type="curve" smooth="yes"/>
      <point x="60" y="123"/>
      <point x="189" y="-8"/>
      <point x="348" y="-8" type="curve" smooth="yes"/>
      <point x="455" y="-8"/>
      <point x="546" y="51"/>
      <point x="596" y="138" type="curve"/>
      <point x="596" y="0" type="line"/>
      <point x="565" y="-44"/>
      <point x="540" y="-97"/>
      <point x="540" y="-148" type="curve" smooth="yes"/>
      <point x="540" y="-232"/>
      <point x="601" y="-282"/>
    </contour>
    <contour>
      <point x="351" y="32" type="curve" smooth="yes"/>
      <point x="213" y="32"/>
      <point x="102" y="145"/>
      <point x="102" y="285" type="curve" smooth="yes"/>
      <point x="102" y="425"/>
      <point x="213" y="538"/>
      <point x="351" y="538" type="curve" smooth="yes"/>
      <point x="489" y="538"/>
      <point x="600" y="425"/>
      <point x="600" y="285" type="curve" smooth="yes"/>
      <point x="600" y="145"/>
      <point x="489" y="32"/>
    </contour>
  </outline>
</glyph>
<glyph name="Eogonek" format="2">
  <advance width="610"/>
  <unicode hex="0118"/>
  <anchor x="340" y="900" name="top"/>
  <outline>
    <contour>
      <point x="586" y="-282" type="curve"/>
      <point x="596" y="-244" type="line"/>
      <point x="543" y="-244"/>
      <point x="490" y="-219"/>
      <point x="490" y="-139" type="curve" smooth="yes"/>
      <point x="490" y="-89"/>
      <point x="511" y="-46"/>
      <point x="544" y="0" type="curve"/>
      <point x="544" y="40" type="line"/>
      <point x="180" y="40" type="line"/>
      <point x="180" y="536" type="line"/>
      <point x="474" y="536" type="line"/>
      <point x="474" y="574" type="line"/>
      <point x="180" y="574" type="line"/>
      <point x="180" y="860" type="line"/>
      <point x="544" y="860" type="line"/>
      <point x="544" y="900" type="line"/>
      <point x="136" y="900" type="line"/>
      <point x="136" y="0" type="line"/>
      <point x="502" y="0" type="line"/>
      <point x="471" y="-44"/>
      <point x="448" y="-97"/>
      <point x="448" y="-148" type="curve" smooth="yes"/>
      <point x="448" y="-232"/>
      <point x="509" y="-282"/>
    </contour>
  </outline>
</glyph>
<glyph name="eogonek" format="2">
  <advance width="690"/>
  <unicode hex="0119"/>
  <anchor x="349" y="570" name="top"/>
  <outline>
    <contour>
      <point x="549" y="-282" type="curve"/>
      <point x="559" y="-244" type="line"/>
      <point x="492" y="-244"/>
      <point x="453" y="-205"/>
      <point x="453" y="-139" type="curve" smooth="yes"/>
      <point x="453" y="-69"/>
      <point x="502" y="12"/>
      <point x="586" y="84" type="curve"/>
      <point x="574" y="134" type="line"/>
      <point x="525" y="67"/>
      <point x="449" y="28"/>
      <point x="366" y="28" type="curve" smooth="yes"/>
      <point x="217" y="28"/>
      <point x="102" y="143"/>
      <point x="102" y="294" type="curve"/>
      <point x="128" y="292"/>
      <point x="154" y="291"/>
      <point x="180" y="291" type="curve" smooth="yes"/>
      <point x="630" y="291" type="line"/>
      <point x="630" y="300" type="line" smooth="yes"/>
      <point x="630" y="457"/>
      <point x="506" y="582"/>
      <point x="349" y="582" type="curve" smooth="yes"/>
      <point x="188" y="582"/>
      <point x="60" y="453"/>
      <point x="60" y="292" type="curve" smooth="yes"/>
      <point x="60" y="121"/>
      <point x="194" y="-12"/>
      <point x="366" y="-12" type="curve" smooth="yes"/>
      <point x="407" y="-12"/>
      <point x="445" y="-4"/>
      <point x="480" y="12" type="curve"/>
      <point x="433" y="-48"/>
      <point x="411" y="-98"/>
      <point x="411" y="-148" type="curve" smooth="yes"/>
      <point x="411" y="-227"/>
      <point x="467" y="-282"/>
    </contour>
    <contour>
      <point x="104" y="324" type="curve"/>
      <point x="119" y="450"/>
      <point x="224" y="544"/>
      <point x="349" y="544" type="curve" smooth="yes"/>
      <point x="473" y="544"/>
      <point x="574" y="451"/>
      <point x="587" y="323" type="curve"/>
      <point x="556" y="326"/>
      <point x="536" y="327"/>
      <point x="510" y="327" type="curve" smooth="yes"/>
      <point x="180" y="327" type="line" smooth="yes"/>
      <point x="155" y="327"/>
      <point x="129" y="326"/>
    </contour>
  </outline>
</glyph>
<glyph name="Hbar" format="2">
  <advance width="760"/>
  <unicode hex="0126"/>
  <outline>
    <contour>
      <point x="136" y="0" type="line"/>
      <point x="180" y="0" type="line"/>
      <point x="180" y="535" type="line"/>
      <point x="580" y="535" type="line"/>
      <point x="580" y="0" type="line"/>
      <point x="624" y="0" type="line"/>
      <point x="624" y="732" type="line"/>
      <point x="720" y="732" type="line"/>
      <point x="720" y="768" type="line"/>
      <point x="624" y="768" type="line"/>
      <point x="624" y="900" type="line"/>
      <point x="580" y="900" type="line"/>
      <point x="580" y="768" type="line"/>
      <point x="180" y="768" type="line"/>
      <point x="180" y="900" type="line"/>
      <point x="136" y="900" type="line"/>
      <point x="136" y="768" type="line"/>
      <point x="40" y="768" type="line"/>
      <point x="40" y="732" type="line"/>
      <point x="136" y="732" type="line"/>
    </contour>
    <contour>
      <point x="180" y="575" type="line"/>
      <point x="180" y="732" type="line"/>
      <point x="580" y="732" type="line"/>
      <point x="580" y="575" type="line"/>
    </contour>
  </outline>
</glyph>
<glyph name="Iogonek" format="2">
  <advance width="340"/>
  <unicode hex="012E"/>
  <outline>
    <contour>
      <point x="233" y="-282" type="curve"/>
      <point x="243" y="-244" type="line"/>
      <point x="190" y="-244"/>
      <point x="137" y="-219"/>
      <point x="137" y="-139" type="curve" smooth="yes"/>
      <point x="137" y="-89"/>
      <point x="158" y="-46"/>
      <point x="192" y="0" type="curve"/>
      <point x="192" y="900" type="line"/>
      <point x="148" y="900" type="line"/>
      <point x="148" y="0" type="line"/>
      <point x="118" y="-44"/>
      <point x="95" y="-97"/>
      <point x="95" y="-148" type="curve" smooth="yes"/>
      <point x="95" y="-232"/>
      <point x="156" y="-282"/>
    </contour>
  </outline>
</glyph>
<glyph name="idotless" format="2">
  <advance width="260"/>
  <unicode hex="0131"/>
  <anchor x="130" y="0" name="bottom"/>
  <anchor x="130" y="0" name="ogonek"/>
  <anchor x="130" y="570" name="top"/>
  <outline>
    <contour>
      <point x="109" y="0" type="line"/>
      <point x="151" y="0" type="line"/>
      <point x="151" y="570" type="line"/>
      <point x="109" y="570" type="line"/>
    </contour>
  </outline>
</glyph>
<glyph name="kgreenlandic" format="2">
  <advance width="590"/>
  <unicode hex="0138"/>
  <anchor x="295" y="0" name="bottom"/>
  <anchor x="295" y="570" name="top"/>
  <outline>
    <contour>
      <point x="497" y="0" type="line"/>
      <point x="554" y="0" type="line"/>
      <point x="241" y="318" type="line"/>
      <point x="494" y="570" type="line"/>
      <point x="443" y="570" type="line"/>
      <point x="187" y="315" type="line"/>
    </contour>
    <contour>
      <point x="109" y="0" type="line"/>
      <point x="151" y="0" type="line"/>
      <point x="151" y="570" type="line"/>
      <point x="109" y="570" type="line"/>
    </contour>
  </outline>
</glyph>
<glyph name="Lslash" format="2">
  <advance width="610"/>
  <unicode hex="0141"/>
  <outline>
    <contour>
      <point x="166" y="0" type="line"/>
      <point x="556" y="0" type="line"/>
      <point x="556" y="40" type="line"/>
      <point x="210" y="40" type="line"/>
      <point x="210" y="443" type="line"/>
      <point x="468" y="612" type="line"/>
      <point x="448" y="642" type="line"/>
      <point x="210" y="486" type="line"/>
      <point x="210" y="900" type="line"/>
      <point x="166" y="900" type="line"/>
      <point x="166" y="457" type="line"/>
      <point x="24" y="364" type="line"/>
      <point x="44" y="334" type="line"/>
      <point x="166" y="414" type="line"/>
    </contour>
  </outline>
</glyph>
<glyph name="lslash" format="2">
  <advance width="320"/>
  <unicode hex="0142"/>
  <outline>
    <contour>
      <point x="139" y="0" type="line"/>
      <point x="181" y="0" type="line"/>
      <point x="181" y="476" type="line"/>
      <point x="320" y="567" type="line"/>
      <point x="302" y="595" type="line"/>
      <point x="181" y="516" type="line"/>
      <point x="181" y="960" type="line"/>
      <point x="139" y="960" type="line"/>
      <point x="139" y="488" type="line"/>
      <point x="-6" y="393" type="line"/>
      <point x="12" y="365" type="line"/>
      <point x="139" y="448" type="line"/>
    </contour>
  </outline>
</glyph>
<glyph name="Eng" format="2">
  <advance width="970"/>
  <unicode hex="014A"/>
  <anchor x="485" y="0" name="bottom"/>
  <anchor x="485" y="900" name="top"/>
  <outline>
    <contour>
      <point x="610" y="-192" type="curve" smooth="yes"/>
      <point x="747" y="-192"/>
      <point x="834" y="-96"/>
      <point x="834" y="56" type="curve" smooth="yes"/>
      <point x="834" y="900" type="line"/>
      <point x="792" y="900" type="line"/>
      <point x="792" y="158" type="line"/>
      <point x="138" y="930" type="line"/>
      <point x="136" y="930" type="line"/>
      <point x="136" y="0" type="line"/>
      <point x="178" y="0" type="line"/>
      <point x="178" y="809" type="line"/>
      <point x="792" y="87" type="line"/>
      <point x="792" y="59" type="line" smooth="yes"/>
      <point x="792" y="-76"/>
      <point x="725" y="-152"/>
      <point x="610" y="-152" type="curve" smooth="yes"/>
      <point x="546" y="-152"/>
      <point x="496" y="-128"/>
      <point x="461" y="-80" type="curve"/>
      <point x="447" y="-130" type="line"/>
      <point x="487" y="-170"/>
      <point x="546" y="-192"/>
    </contour>
  </outline>
</glyph>
<glyph name="eng" format="2">
  <advance width="700"/>
  <unicode hex="014B"/>
  <outline>
    <contour>
      <point x="465" y="-312" type="line"/>
      <point x="542" y="-312"/>
      <point x="603" y="-254"/>
      <point x="603" y="-149" type="curve" smooth="yes"/>
      <point x="603" y="326" type="line" smooth="yes"/>
      <point x="603" y="480"/>
      <point x="501" y="582"/>
      <point x="370" y="582" type="curve" smooth="yes"/>
      <point x="272" y="582"/>
      <point x="187" y="528"/>
      <point x="147" y="438" type="curve"/>
      <point x="147" y="570" type="line"/>
      <point x="109" y="570" type="line"/>
      <point x="109" y="0" type="line"/>
      <point x="151" y="0" type="line"/>
      <point x="151" y="319" type="line" smooth="yes"/>
      <point x="151" y="450"/>
      <point x="247" y="542"/>
      <point x="364" y="542" type="curve" smooth="yes"/>
      <point x="473" y="542"/>
      <point x="561" y="461"/>
      <point x="561" y="319" type="curve" smooth="yes"/>
      <point x="561" y="-150" type="line" smooth="yes"/>
      <point x="561" y="-248"/>
      <point x="508" y="-274"/>
      <point x="455" y="-274" type="curve"/>
    </contour>
  </outline>
</glyph>
<glyph name="OE" format="2">
  <advance width="1400"/>
  <unicode hex="0152"/>
  <anchor x="722" y="0" name="bottom"/>
  <anchor x="722" y="900" name="top"/>
  <outline>
    <contour>
      <point x="517" y="-12" type="curve" smooth="yes"/>
      <point x="699" y="-12"/>
      <point x="854" y="97"/>
      <point x="926" y="254" type="curve"/>
      <point x="926" y="0" type="line"/>
      <point x="1334" y="0" type="line"/>
      <point x="1334" y="40" type="line"/>
      <point x="970" y="40" type="line"/>
      <point x="970" y="536" type="line"/>
      <point x="1264" y="536" type="line"/>
      <point x="1264" y="574" type="line"/>
      <point x="970" y="574" type="line"/>
      <point x="970" y="860" type="line"/>
      <point x="1334" y="860" type="line"/>
      <point x="1334" y="900" type="line"/>
      <point x="926" y="900" type="line"/>
      <point x="926" y="646" type="line"/>
      <point x="854" y="803"/>
      <point x="699" y="912"/>
      <point x="517" y="912" type="curve" smooth="yes"/>
      <point x="267" y="912"/>
      <point x="66" y="706"/>
      <point x="66" y="450" type="curve" smooth="yes"/>
      <point x="66" y="194"/>
      <point x="267" y="-12"/>
    </contour>
    <contour>
      <point x="520" y="30" type="curve" smooth="yes"/>
      <point x="291" y="30"/>
      <point x="112" y="218"/>
      <point x="112" y="450" type="curve" smooth="yes"/>
      <point x="112" y="682"/>
      <point x="291" y="870"/>
      <point x="520" y="870" type="curve" smooth="yes"/>
      <point x="750" y="870"/>
      <point x="928" y="682"/>
      <point x="928" y="450" type="curve" smooth="yes"/>
      <point x="928" y="218"/>
      <point x="750" y="30"/>
    </contour>
  </outline>
</glyph>
<glyph name="oe" format="2">
  <advance width="1240"/>
  <unicode hex="0153"/>
  <anchor x="620" y="0" name="bottom"/>
  <anchor x="620" y="570" name="top"/>
  <outline>
    <contour>
      <point x="360" y="-12" type="curve" smooth="yes"/>
      <point x="484" y="-12"/>
      <point x="590" y="62"/>
      <point x="635" y="168" type="curve"/>
      <point x="683" y="60"/>
      <point x="791" y="-12"/>
      <point x="916" y="-12" type="curve" smooth="yes"/>
      <point x="1004" y="-12"/>
      <point x="1081" y="25"/>
      <point x="1136" y="84" type="curve"/>
      <point x="1124" y="134" type="line"/>
      <point x="1077" y="69"/>
      <point x="1002" y="28"/>
      <point x="916" y="28" type="curve" smooth="yes"/>
      <point x="770" y="28"/>
      <point x="652" y="140"/>
      <point x="652" y="294" type="curve"/>
      <point x="678" y="292"/>
      <point x="704" y="291"/>
      <point x="730" y="291" type="curve" smooth="yes"/>
      <point x="1180" y="291" type="line"/>
      <point x="1180" y="300" type="line" smooth="yes"/>
      <point x="1180" y="456"/>
      <point x="1057" y="582"/>
      <point x="899" y="582" type="curve" smooth="yes"/>
      <point x="781" y="582"/>
      <point x="678" y="512"/>
      <point x="633" y="407" type="curve"/>
      <point x="587" y="510"/>
      <point x="482" y="582"/>
      <point x="360" y="582" type="curve" smooth="yes"/>
      <point x="194" y="582"/>
      <point x="60" y="449"/>
      <point x="60" y="285" type="curve" smooth="yes"/>
      <point x="60" y="121"/>
      <point x="194" y="-12"/>
    </contour>
    <contour>
      <point x="360" y="28" type="curve" smooth="yes"/>
      <point x="217" y="28"/>
      <point x="102" y="143"/>
      <point x="102" y="285" type="curve" smooth="yes"/>
      <point x="102" y="427"/>
      <point x="217" y="542"/>
      <point x="360" y="542" type="curve" smooth="yes"/>
      <point x="503" y="542"/>
      <point x="618" y="427"/>
      <point x="618" y="285" type="curve" smooth="yes"/>
      <point x="618" y="143"/>
      <point x="503" y="28"/>
    </contour>
    <contour>
      <point x="654" y="324" type="curve"/>
      <point x="669" y="451"/>
      <point x="775" y="544"/>
      <point x="899" y="544" type="curve" smooth="yes"/>
      <point x="1026" y="544"/>
      <point x="1124" y="448"/>
      <point x="1137" y="323" type="curve"/>
      <point x="1116" y="325"/>
      <point x="1095" y="327"/>
      <point x="1060" y="327" type="curve" smooth="yes"/>
      <point x="730" y="327" type="line" smooth="yes"/>
      <point x="705" y="327"/>
      <point x="679" y="326"/>
    </contour>
  </outline>
</glyph>
<glyph name="scedilla" format="2">
  <advance width="490"/>
  <unicode hex="015F"/>
  <outline>
    <contour>
      <point x="44" y="-180" type="line"/>
      <point x="98" y="-180" type="line"/>
      <point x="253" y="-12" type="line"/>
      <point x="349" y="-6"/>
      <point x="418" y="60"/>
      <point x="418" y="147" type="curve" smooth="yes"/>
      <point x="418" y="216"/>
      <point x="374" y="271"/>
      <point x="295" y="302" type="curve" smooth="yes"/>
      <point x="214" y="334" type="line" smooth="yes"/>
      <point x="159" y="356"/>
      <point x="131" y="392"/>
      <point x="131" y="439" type="curve" smooth="yes"/>
      <point x="131" y="500"/>
      <point x="178" y="545"/>
      <point x="246" y="545" type="curve" smooth="yes"/>
      <point x="298" y="545"/>
      <point x="346" y="519"/>
      <point x="377" y="475" type="curve"/>
      <point x="390" y="525" type="line"/>
      <point x="350" y="562"/>
      <point x="300" y="582"/>
      <point x="249" y="582" type="curve" smooth="yes"/>
      <point x="158" y="582"/>
      <point x="90" y="519"/>
      <point x="90" y="434" type="curve" smooth="yes"/>
      <point x="90" y="373"/>
      <point x="129" y="323"/>
      <point x="198" y="296" type="curve" smooth="yes"/>
      <point x="279" y="264" type="line" smooth="yes"/>
      <point x="345" y="238"/>
      <point x="377" y="197"/>
      <point x="377" y="144" type="curve" smooth="yes"/>
      <point x="377" y="74"/>
      <point x="323" y="25"/>
      <point x="244" y="25" type="curve" smooth="yes"/>
      <point x="181" y="25"/>
      <point x="123" y="57"/>
      <point x="88" y="108" type="curve"/>
      <point x="75" y="58" type="line"/>
      <point x="110" y="21"/>
      <point x="160" y="-4"/>
      <point x="212" y="-10" type="curve"/>
    </contour>
  </outline>
</glyph>
<glyph name="Tcedilla" format="2">
  <advance width="670"/>
  <unicode hex="0162"/>
  <outline>
    <contour>
      <point x="136" y="-180" type="line"/>
      <point x="190" y="-180" type="line"/>
      <point x="357" y="0" type="line"/>
      <point x="357" y="860" type="line"/>
      <point x="616" y="860" type="line"/>
      <point x="616" y="900" type="line"/>
      <point x="54" y="900" type="line"/>
      <point x="54" y="860" type="line"/>
      <point x="313" y="860" type="line"/>
      <point x="313" y="0" type="line"/>
    </contour>
  </outline>
</glyph>
<glyph name="tcedilla" format="2">
  <advance width="450"/>
  <unicode hex="0163"/>
  <outline>
    <contour>
      <point x="21" y="-180" type="line"/>
      <point x="75" y="-180" type="line"/>
      <point x="241" y="0" type="line"/>
      <point x="241" y="534" type="line"/>
      <point x="414" y="534" type="line"/>
      <point x="414" y="570" type="line"/>
      <point x="241" y="570" type="line"/>
      <point x="241" y="800" type="line"/>
      <point x="199" y="800" type="line"/>
      <point x="199" y="570" type="line"/>
      <point x="36" y="570" type="line"/>
      <point x="36" y="534" type="line"/>
      <point x="199" y="534" type="line"/>
      <point x="199" y="0" type="line"/>
    </contour>
  </outline>
</glyph>
<glyph name="Tbar" format="2">
  <advance width="670"/>
  <unicode hex="0166"/>
  <outline>
    <contour>
      <point x="313" y="0" type="line"/>
      <point x="357" y="0" type="line"/>
      <point x="357" y="462" type="line"/>
      <point x="551" y="462" type="line"/>
      <point x="551" y="498" type="line"/>
      <point x="357" y="498" type="line"/>
      <point x="357" y="860" type="line"/>
      <point x="616" y="860" type="line"/>
      <point x="616" y="900" type="line"/>
      <point x="54" y="900" type="line"/>
      <point x="54" y="860" type="line"/>
      <point x="313" y="860" type="line"/>
      <point x="313" y="498" type="line"/>
      <point x="119" y="498" type="line"/>
      <point x="119" y="462" type="line"/>
      <point x="313" y="462" type="line"/>
    </contour>
  </outline>
</glyph>
<glyph name="tbar" format="2">
  <advance width="450"/>
  <unicode hex="0167"/>
  <outline>
    <contour>
      <point x="199" y="0" type="line"/>
      <point x="241" y="0" type="line"/>
      <point x="241" y="268" type="line"/>
      <point x="399" y="268" type="line"/>
      <point x="399" y="302" type="line"/>
      <point x="241" y="302" type="line"/>
      <point x="241" y="534" type="line"/>
      <point x="414" y="534" type="line"/>
      <point x="414" y="570" type="line"/>
      <point x="241" y="570" type="line"/>
      <point x="241" y="800" type="line"/>
      <point x="199" y="800" type="line"/>
      <point x="199" y="570" type="line"/>
      <point x="36" y="570" type="line"/>
      <point x="36" y="534" type="line"/>
      <point x="199" y="534" type="line"/>
      <point x="199" y="302" type="line"/>
      <point x="41" y="302" type="line"/>
      <point x="41" y="268" type="line"/>
      <point x="199" y="268" type="line"/>
    </contour>
  </outline>
</glyph>
<glyph name="Uogonek" format="2">
  <advance width="760"/>
  <unicode hex="0172"/>
  <outline>
    <contour>
      <point x="462" y="-282" type="curve"/>
      <point x="472" y="-244" type="line"/>
      <point x="419" y="-244"/>
      <point x="366" y="-219"/>
      <point x="366" y="-139" type="curve" smooth="yes"/>
      <point x="366" y="-93"/>
      <point x="384" y="-53"/>
      <point x="413" y="-10" type="curve"/>
      <point x="555" y="4"/>
      <point x="651" y="111"/>
      <point x="651" y="282" type="curve" smooth="yes"/>
      <point x="651" y="900" type="line"/>
      <point x="609" y="900" type="line"/>
      <point x="609" y="278" type="line" smooth="yes"/>
      <point x="609" y="117"/>
      <point x="517" y="28"/>
      <point x="381" y="28" type="curve" smooth="yes"/>
      <point x="243" y="28"/>
      <point x="153" y="118"/>
      <point x="153" y="282" type="curve" smooth="yes"/>
      <point x="153" y="900" type="line"/>
      <point x="109" y="900" type="line"/>
      <point x="109" y="278" type="line" smooth="yes"/>
      <point x="109" y="98"/>
      <point x="216" y="-8"/>
      <point x="370" y="-12" type="curve"/>
      <point x="343" y="-53"/>
      <point x="324" y="-102"/>
      <point x="324" y="-148" type="curve" smooth="yes"/>
      <point x="324" y="-232"/>
      <point x="385" y="-282"/>
    </contour>
  </outline>
</glyph>
<glyph name="uogonek" format="2">
  <advance width="700"/>
  <unicode hex="0173"/>
  <outline>
    <contour>
      <point x="635" y="-282" type="curve"/>
      <point x="645" y="-244" type="line"/>
      <point x="592" y="-244"/>
      <point x="539" y="-219"/>
      <point x="539" y="-139" type="curve" smooth="yes"/>
      <point x="539" y="-89"/>
      <point x="560" y="-46"/>
      <point x="591" y="0" type="curve"/>
      <point x="591" y="570" type="line"/>
      <point x="549" y="570" type="line"/>
      <point x="549" y="251" type="line" smooth="yes"/>
      <point x="549" y="120"/>
      <point x="453" y="28"/>
      <point x="336" y="28" type="curve" smooth="yes"/>
      <point x="227" y="28"/>
      <point x="139" y="109"/>
      <point x="139" y="251" type="curve" smooth="yes"/>
      <point x="139" y="570" type="line"/>
      <point x="97" y="570" type="line"/>
      <point x="97" y="244" type="line" smooth="yes"/>
      <point x="97" y="90"/>
      <point x="199" y="-12"/>
      <point x="330" y="-12" type="curve" smooth="yes"/>
      <point x="428" y="-12"/>
      <point x="513" y="42"/>
      <point x="553" y="132" type="curve"/>
      <point x="553" y="0" type="line"/>
      <point x="520" y="-44"/>
      <point x="497" y="-97"/>
      <point x="497" y="-148" type="curve" smooth="yes"/>
      <point x="497" y="-232"/>
      <point x="558" y="-282"/>
    </contour>
  </outline>
</glyph>
<glyph name="Schwa" format="2">
  <advance width="1030"/>
  <unicode hex="018F"/>
  <outline>
    <contour>
      <point x="510" y="-12" type="curve" smooth="yes"/>
      <point x="761" y="-12"/>
      <point x="964" y="194"/>
      <point x="964" y="450" type="curve" smooth="yes"/>
      <point x="964" y="706"/>
      <point x="761" y="912"/>
      <point x="510" y="912" type="curve" smooth="yes"/>
      <point x="385" y="912"/>
      <point x="270" y="862"/>
      <point x="188" y="782" type="curve"/>
      <point x="201" y="726" type="line"/>
      <point x="275" y="814"/>
      <point x="385" y="870"/>
      <point x="510" y="870" type="curve" smooth="yes"/>
      <point x="732" y="870"/>
      <point x="905" y="696"/>
      <point x="917" y="475" type="curve"/>
      <point x="878" y="478"/>
      <point x="841" y="480"/>
      <point x="804" y="480" type="curve" smooth="yes"/>
      <point x="56" y="480" type="line"/>
      <point x="56" y="470"/>
      <point x="56" y="460"/>
      <point x="56" y="450" type="curve" smooth="yes"/>
      <point x="56" y="194"/>
      <point x="259" y="-12"/>
    </contour>
    <contour>
      <point x="510" y="30" type="curve" smooth="yes"/>
      <point x="285" y="30"/>
      <point x="108" y="212"/>
      <point x="102" y="438" type="curve"/>
      <point x="804" y="438" type="line" smooth="yes"/>
      <point x="842" y="438"/>
      <point x="880" y="439"/>
      <point x="918" y="443" type="curve"/>
      <point x="915" y="214"/>
      <point x="738" y="30"/>
    </contour>
  </outline>
</glyph>
<glyph name="florin" format="2">
  <advance width="750"/>
  <unicode hex="0192"/>
  <outline>
    <contour>
      <point x="221" y="-192" type="curve" smooth="yes"/>
      <point x="323" y="-192"/>
      <point x="396" y="-108"/>
      <point x="396" y="9" type="curve" smooth="yes"/>
      <point x="396" y="432" type="line"/>
      <point x="620" y="432" type="line"/>
      <point x="620" y="468" type="line"/>
      <point x="396" y="468" type="line"/>
      <point x="396" y="707" type="line" smooth="yes"/>
      <point x="396" y="810"/>
      <point x="447" y="874"/>
      <point x="528" y="874" type="curve" smooth="yes"/>
      <point x="564" y="874"/>
      <point x="595" y="862"/>
      <point x="629" y="835" type="curve"/>
      <point x="640" y="876" type="line"/>
      <point x="608" y="899"/>
      <point x="568" y="912"/>
      <point x="529" y="912" type="curve" smooth="yes"/>
      <point x="427" y="912"/>
      <point x="354" y="828"/>
      <point x="354" y="711" type="curve" smooth="yes"/>
      <point x="354" y="468" type="line"/>
      <point x="130" y="468" type="line"/>
      <point x="130" y="432" type="line"/>
      <point x="354" y="432" type="line"/>
      <point x="354" y="13" type="line" smooth="yes"/>
      <point x="354" y="-90"/>
      <point x="303" y="-154"/>
      <point x="222" y="-154" type="curve" smooth="yes"/>
      <point x="186" y="-154"/>
      <point x="155" y="-142"/>
      <point x="121" y="-115" type="curve"/>
      <point x="110" y="-156" type="line"/>
      <point x="142" y="-179"/>
      <point x="182" y="-192"/>
    </contour>
  </outline>
</glyph>
<glyph name="Ohorn" format="2">
  <advance width="1040"/>
  <unicode hex="01A0"/>
  <anchor x="520" y="0" name="bottom"/>
  <anchor x="520" y="900" name="top"/>
  <outline>
    <contour>
      <point x="520" y="-12" type="curve" smooth="yes"/>
      <point x="771" y="-12"/>
      <point x="974" y="194"/>
      <point x="974" y="450" type="curve" smooth="yes"/>
      <point x="974" y="553"/>
      <point x="941" y="648"/>
      <point x="886" y="724" type="curve"/>
      <point x="938" y="740"/>
      <point x="980" y="788"/>
      <point x="980" y="868" type="curve" smooth="yes"/>
      <point x="980" y="893"/>
      <point x="975" y="927"/>
      <point x="958" y="960" type="curve"/>
      <point x="915" y="960" type="line"/>
      <point x="937" y="927"/>
      <point x="942" y="895"/>
      <point x="942" y="868" type="curve" smooth="yes"/>
      <point x="942" y="795"/>
      <point x="907" y="761"/>
      <point x="861" y="756" type="curve"/>
      <point x="778" y="852"/>
      <point x="656" y="912"/>
      <point x="520" y="912" type="curve" smooth="yes"/>
      <point x="269" y="912"/>
      <point x="66" y="706"/>
      <point x="66" y="450" type="curve" smooth="yes"/>
      <point x="66" y="194"/>
      <point x="269" y="-12"/>
    </contour>
    <contour>
      <point x="520" y="30" type="curve" smooth="yes"/>
      <point x="291" y="30"/>
      <point x="112" y="218"/>
      <point x="112" y="450" type="curve" smooth="yes"/>
      <point x="112" y="682"/>
      <point x="291" y="870"/>
      <point x="520" y="870" type="curve" smooth="yes"/>
      <point x="750" y="870"/>
      <point x="928" y="682"/>
      <point x="928" y="450" type="curve" smooth="yes"/>
      <point x="928" y="218"/>
      <point x="750" y="30"/>
    </contour>
  </outline>
</glyph>
<glyph name="ohorn" format="2">
  <advance width="750"/>
  <unicode hex="01A1"/>
  <anchor x="360" y="0" name="bottom"/>
  <anchor x="360" y="570" name="top"/>
  <outline>
    <contour>
      <point x="360" y="-12" type="curve" smooth="yes"/>
      <point x="526" y="-12"/>
      <point x="660" y="121"/>
      <point x="660" y="285" type="curve" smooth="yes"/>
      <point x="660" y="335"/>
      <point x="647" y="383"/>
      <point x="625" y="424" type="curve"/>
      <point x="678" y="440"/>
      <point x="720" y="488"/>
      <point x="720" y="568" type="curve" smooth="yes"/>
      <point x="720" y="593"/>
      <point x="715" y="627"/>
      <point x="698" y="660" type="curve"/>
      <point x="655" y="660" type="line"/>
      <point x="677" y="627"/>
      <point x="682" y="595"/>
      <point x="682" y="568" type="curve" smooth="yes"/>
      <point x="682" y="497"/>
      <point x="649" y="463"/>
      <point x="605" y="456" type="curve"/>
      <point x="551" y="532"/>
      <point x="461" y="582"/>
      <point x="360" y="582" type="curve" smooth="yes"/>
      <point x="194" y="582"/>
      <point x="60" y="449"/>
      <point x="60" y="285" type="curve" smooth="yes"/>
      <point x="60" y="121"/>
      <point x="194" y="-12"/>
    </contour>
    <contour>
      <point x="360" y="28" type="curve" smooth="yes"/>
      <point x="217" y="28"/>
      <point x="102" y="143"/>
      <point x="102" y="285" type="curve" smooth="yes"/>
      <point x="102" y="427"/>
      <point x="217" y="542"/>
      <point x="360" y="542" type="curve" smooth="yes"/>
      <point x="503" y="542"/>
      <point x="618" y="427"/>
      <point x="618" y="285" type="curve" smooth="yes"/>
      <point x="618" y="143"/>
      <point x="503" y="28"/>
    </contour>
  </outline>
</glyph>
<glyph name="Uhorn" format="2">
  <advance width="850"/>
  <unicode hex="01AF"/>
  <anchor x="380" y="0" name="bottom"/>
  <anchor x="381" y="900" name="top"/>
  <outline>
    <contour>
      <point x="379" y="-12" type="curve" smooth="yes"/>
      <point x="540" y="-12"/>
      <point x="651" y="98"/>
      <point x="651" y="282" type="curve" smooth="yes"/>
      <point x="651" y="724" type="line"/>
      <point x="662" y="721"/>
      <point x="676" y="719"/>
      <point x="687" y="719" type="curve" smooth="yes"/>
      <point x="756" y="719"/>
      <point x="820" y="769"/>
      <point x="820" y="868" type="curve" smooth="yes"/>
      <point x="820" y="893"/>
      <point x="815" y="927"/>
      <point x="798" y="960" type="curve"/>
      <point x="755" y="960" type="line"/>
      <point x="777" y="927"/>
      <point x="782" y="895"/>
      <point x="782" y="868" type="curve" smooth="yes"/>
      <point x="782" y="788"/>
      <point x="740" y="755"/>
      <point x="687" y="755" type="curve" smooth="yes"/>
      <point x="674" y="755"/>
      <point x="662" y="757"/>
      <point x="649" y="763" type="curve"/>
      <point x="649" y="900" type="line"/>
      <point x="609" y="900" type="line"/>
      <point x="609" y="278" type="line" smooth="yes"/>
      <point x="609" y="117"/>
      <point x="517" y="28"/>
      <point x="381" y="28" type="curve" smooth="yes"/>
      <point x="243" y="28"/>
      <point x="153" y="118"/>
      <point x="153" y="282" type="curve" smooth="yes"/>
      <point x="153" y="900" type="line"/>
      <point x="109" y="900" type="line"/>
      <point x="109" y="278" type="line" smooth="yes"/>
      <point x="109" y="95"/>
      <point x="220" y="-12"/>
    </contour>
  </outline>
</glyph>
<glyph name="uhorn" format="2">
  <advance width="790"/>
  <unicode hex="01B0"/>
  <anchor x="344" y="0" name="bottom"/>
  <anchor x="344" y="570" name="top"/>
  <outline>
    <contour>
      <point x="330" y="-12" type="curve" smooth="yes"/>
      <point x="428" y="-12"/>
      <point x="513" y="42"/>
      <point x="553" y="132" type="curve"/>
      <point x="553" y="0" type="line"/>
      <point x="591" y="0" type="line"/>
      <point x="591" y="424" type="line"/>
      <point x="602" y="421"/>
      <point x="616" y="419"/>
      <point x="627" y="419" type="curve" smooth="yes"/>
      <point x="696" y="419"/>
      <point x="760" y="469"/>
      <point x="760" y="568" type="curve" smooth="yes"/>
      <point x="760" y="593"/>
      <point x="755" y="627"/>
      <point x="738" y="660" type="curve"/>
      <point x="695" y="660" type="line"/>
      <point x="717" y="627"/>
      <point x="722" y="595"/>
      <point x="722" y="568" type="curve" smooth="yes"/>
      <point x="722" y="488"/>
      <point x="680" y="455"/>
      <point x="627" y="455" type="curve" smooth="yes"/>
      <point x="614" y="455"/>
      <point x="602" y="457"/>
      <point x="589" y="463" type="curve"/>
      <point x="589" y="570" type="line"/>
      <point x="549" y="570" type="line"/>
      <point x="549" y="251" type="line" smooth="yes"/>
      <point x="549" y="120"/>
      <point x="453" y="28"/>
      <point x="336" y="28" type="curve" smooth="yes"/>
      <point x="227" y="28"/>
      <point x="139" y="109"/>
      <point x="139" y="251" type="curve" smooth="yes"/>
      <point x="139" y="570" type="line"/>
      <point x="97" y="570" type="line"/>
      <point x="97" y="244" type="line" smooth="yes"/>
      <point x="97" y="90"/>
      <point x="199" y="-12"/>
    </contour>
  </outline>
</glyph>
<glyph name="Ezh" format="2">
  <advance width="660"/>
  <unicode hex="01B7"/>
  <anchor x="302" y="0" name="bottom"/>
  <anchor x="296" y="900" name="top"/>
  <outline>
    <contour>
      <point x="297" y="-12" type="curve" smooth="yes"/>
      <point x="463" y="-12"/>
      <point x="597" y="121"/>
      <point x="597" y="285" type="curve" smooth="yes"/>
      <point x="597" y="434"/>
      <point x="485" y="560"/>
      <point x="334" y="578" type="curve"/>
      <point x="519" y="898" type="line"/>
      <point x="519" y="900" type="line"/>
      <point x="105" y="900" type="line"/>
      <point x="105" y="862" type="line"/>
      <point x="454" y="862" type="line"/>
      <point x="269" y="540" type="line"/>
      <point x="270" y="538" type="line"/>
      <point x="281" y="541"/>
      <point x="290" y="542"/>
      <point x="300" y="542" type="curve" smooth="yes"/>
      <point x="439" y="542"/>
      <point x="553" y="427"/>
      <point x="553" y="285" type="curve" smooth="yes"/>
      <point x="553" y="142"/>
      <point x="439" y="28"/>
      <point x="297" y="28" type="curve" smooth="yes"/>
      <point x="198" y="28"/>
      <point x="107" y="85"/>
      <point x="61" y="177" type="curve"/>
      <point x="36" y="133" type="line"/>
      <point x="94" y="42"/>
      <point x="192" y="-12"/>
    </contour>
  </outline>
</glyph>
<glyph name="gstroke" format="2">
  <advance width="740"/>
  <unicode hex="01E5"/>
  <outline>
    <contour>
      <point x="332" y="-312" type="curve" smooth="yes"/>
      <point x="508" y="-312"/>
      <point x="634" y="-188"/>
      <point x="634" y="-1" type="curve" smooth="yes"/>
      <point x="634" y="268" type="line"/>
      <point x="710" y="268" type="line"/>
      <point x="710" y="302" type="line"/>
      <point x="634" y="302" type="line"/>
      <point x="634" y="570" type="line"/>
      <point x="596" y="570" type="line"/>
      <point x="596" y="432" type="line"/>
      <point x="544" y="523"/>
      <point x="451" y="578"/>
      <point x="348" y="578" type="curve" smooth="yes"/>
      <point x="189" y="578"/>
      <point x="60" y="446"/>
      <point x="60" y="285" type="curve" smooth="yes"/>
      <point x="60" y="123"/>
      <point x="189" y="-8"/>
      <point x="348" y="-8" type="curve" smooth="yes"/>
      <point x="455" y="-8"/>
      <point x="546" y="51"/>
      <point x="596" y="138" type="curve"/>
      <point x="596" y="8" type="line" smooth="yes"/>
      <point x="596" y="-164"/>
      <point x="484" y="-272"/>
      <point x="332" y="-272" type="curve" smooth="yes"/>
      <point x="242" y="-272"/>
      <point x="164" y="-235"/>
      <point x="114" y="-171" type="curve"/>
      <point x="102" y="-220" type="line"/>
      <point x="158" y="-279"/>
      <point x="239" y="-312"/>
    </contour>
    <contour>
      <point x="351" y="32" type="curve" smooth="yes"/>
      <point x="213" y="32"/>
      <point x="102" y="145"/>
      <point x="102" y="285" type="curve" smooth="yes"/>
      <point x="102" y="425"/>
      <point x="213" y="538"/>
      <point x="351" y="538" type="curve" smooth="yes"/>
      <point x="483" y="538"/>
      <point x="591" y="434"/>
      <point x="599" y="302" type="curve"/>
      <point x="350" y="302" type="line"/>
      <point x="350" y="268" type="line"/>
      <point x="599" y="268" type="line"/>
      <point x="591" y="136"/>
      <point x="483" y="32"/>
    </contour>
  </outline>
</glyph>
<glyph name="Oogonek" format="2">
  <advance width="1040"/>
  <unicode hex="01EA"/>
  <anchor x="520" y="900" name="top"/>
  <outline>
    <contour>
      <point x="602" y="-282" type="curve"/>
      <point x="612" y="-244" type="line"/>
      <point x="559" y="-244"/>
      <point x="506" y="-219"/>
      <point x="506" y="-139" type="curve" smooth="yes"/>
      <point x="506" y="-93"/>
      <point x="524" y="-53"/>
      <point x="552" y="-11" type="curve"/>
      <point x="788" y="6"/>
      <point x="974" y="205"/>
      <point x="974" y="450" type="curve" smooth="yes"/>
      <point x="974" y="706"/>
      <point x="771" y="912"/>
      <point x="520" y="912" type="curve" smooth="yes"/>
      <point x="269" y="912"/>
      <point x="66" y="706"/>
      <point x="66" y="450" type="curve" smooth="yes"/>
      <point x="66" y="197"/>
      <point x="264" y="-6"/>
      <point x="510" y="-12" type="curve"/>
      <point x="483" y="-53"/>
      <point x="464" y="-102"/>
      <point x="464" y="-148" type="curve" smooth="yes"/>
      <point x="464" y="-232"/>
      <point x="525" y="-282"/>
    </contour>
    <contour>
      <point x="520" y="30" type="curve" smooth="yes"/>
      <point x="291" y="30"/>
      <point x="112" y="218"/>
      <point x="112" y="450" type="curve" smooth="yes"/>
      <point x="112" y="682"/>
      <point x="291" y="870"/>
      <point x="520" y="870" type="curve" smooth="yes"/>
      <point x="750" y="870"/>
      <point x="928" y="682"/>
      <point x="928" y="450" type="curve" smooth="yes"/>
      <point x="928" y="218"/>
      <point x="750" y="30"/>
    </contour>
  </outline>
</glyph>
<glyph name="oogonek" format="2">
  <advance width="720"/>
  <unicode hex="01EB"/>
  <anchor x="360" y="570" name="top"/>
  <outline>
    <contour>
      <point x="442" y="-282" type="curve"/>
      <point x="452" y="-244" type="line"/>
      <point x="399" y="-244"/>
      <point x="346" y="-219"/>
      <point x="346" y="-139" type="curve" smooth="yes"/>
      <point x="346" y="-93"/>
      <point x="364" y="-52"/>
      <point x="393" y="-10" type="curve"/>
      <point x="543" y="6"/>
      <point x="660" y="132"/>
      <point x="660" y="285" type="curve" smooth="yes"/>
      <point x="660" y="449"/>
      <point x="526" y="582"/>
      <point x="360" y="582" type="curve" smooth="yes"/>
      <point x="194" y="582"/>
      <point x="60" y="449"/>
      <point x="60" y="285" type="curve" smooth="yes"/>
      <point x="60" y="124"/>
      <point x="189" y="-7"/>
      <point x="350" y="-12" type="curve"/>
      <point x="323" y="-53"/>
      <point x="304" y="-101"/>
      <point x="304" y="-148" type="curve" smooth="yes"/>
      <point x="304" y="-232"/>
      <point x="365" y="-282"/>
    </contour>
    <contour>
      <point x="360" y="28" type="curve" smooth="yes"/>
      <point x="217" y="28"/>
      <point x="102" y="143"/>
      <point x="102" y="285" type="curve" smooth="yes"/>
      <point x="102" y="427"/>
      <point x="217" y="542"/>
      <point x="360" y="542" type="curve" smooth="yes"/>
      <point x="503" y="542"/>
      <point x="618" y="427"/>
      <point x="618" y="285" type="curve" smooth="yes"/>
      <point x="618" y="143"/>
      <point x="503" y="28"/>
    </contour>
  </outline>
</glyph>
<glyph name="jdotless" format="2">
  <advance width="260"/>
  <unicode hex="0237"/>
  <anchor x="127" y="-300" name="bottom"/>
  <anchor x="127" y="570" name="top"/>
  <outline>
    <contour>
      <point x="10" y="-312" type="line"/>
      <point x="87" y="-312"/>
      <point x="148" y="-254"/>
      <point x="148" y="-149" type="curve" smooth="yes"/>
      <point x="148" y="570" type="line"/>
      <point x="106" y="570" type="line"/>
      <point x="106" y="-150" type="line" smooth="yes"/>
      <point x="106" y="-248"/>
      <point x="53" y="-274"/>
      <point x="0" y="-274" type="curve"/>
    </contour>
  </outline>
</glyph>
<glyph name="schwa" format="2">
  <advance width="690"/>
  <unicode hex="0259"/>
  <outline>
    <contour>
      <point x="341" y="-12" type="curve" smooth="yes"/>
      <point x="499" y="-12"/>
      <point x="630" y="114"/>
      <point x="630" y="278" type="curve" smooth="yes"/>
      <point x="630" y="452"/>
      <point x="493" y="582"/>
      <point x="324" y="582" type="curve" smooth="yes"/>
      <point x="236" y="582"/>
      <point x="159" y="545"/>
      <point x="104" y="486" type="curve"/>
      <point x="116" y="436" type="line"/>
      <point x="163" y="501"/>
      <point x="238" y="542"/>
      <point x="324" y="542" type="curve" smooth="yes"/>
      <point x="470" y="542"/>
      <point x="588" y="430"/>
      <point x="588" y="276" type="curve"/>
      <point x="562" y="278"/>
      <point x="536" y="279"/>
      <point x="510" y="279" type="curve" smooth="yes"/>
      <point x="60" y="279" type="line"/>
      <point x="60" y="270" type="line" smooth="yes"/>
      <point x="60" y="114"/>
      <point x="183" y="-12"/>
    </contour>
    <contour>
      <point x="341" y="26" type="curve" smooth="yes"/>
      <point x="214" y="26"/>
      <point x="116" y="122"/>
      <point x="103" y="247" type="curve"/>
      <point x="124" y="245"/>
      <point x="145" y="243"/>
      <point x="180" y="243" type="curve" smooth="yes"/>
      <point x="510" y="243" type="line" smooth="yes"/>
      <point x="535" y="243"/>
      <point x="561" y="244"/>
      <point x="586" y="246" type="curve"/>
      <point x="571" y="119"/>
      <point x="465" y="26"/>
    </contour>
  </outline>
</glyph>
<glyph name="ezh" format="2">
  <advance width="640"/>
  <unicode hex="0292"/>
  <anchor x="278" y="-300" name="bottom"/>
  <anchor x="293" y="570" name="top"/>
  <outline>
    <contour>
      <point x="278" y="-312" type="curve" smooth="yes"/>
      <point x="438" y="-312"/>
      <point x="568" y="-183"/>
      <point x="568" y="-25" type="curve" smooth="yes"/>
      <point x="568" y="119"/>
      <point x="457" y="241"/>
      <point x="310" y="259" type="curve"/>
      <point x="493" y="568" type="line"/>
      <point x="493" y="570" type="line"/>
      <point x="90" y="570" type="line"/>
      <point x="90" y="532" type="line"/>
      <point x="428" y="532" type="line"/>
      <point x="248" y="222" type="line"/>
      <point x="249" y="220" type="line"/>
      <point x="260" y="222"/>
      <point x="269" y="223"/>
      <point x="279" y="223" type="curve" smooth="yes"/>
      <point x="415" y="223"/>
      <point x="526" y="113"/>
      <point x="526" y="-25" type="curve" smooth="yes"/>
      <point x="526" y="-163"/>
      <point x="415" y="-272"/>
      <point x="278" y="-272" type="curve" smooth="yes"/>
      <point x="182" y="-272"/>
      <point x="93" y="-218"/>
      <point x="46" y="-129" type="curve"/>
      <point x="21" y="-172" type="line"/>
      <point x="80" y="-260"/>
      <point x="176" y="-312"/>
    </contour>
  </outline>
</glyph>
<glyph name="gravecomb" format="2">
  <unicode hex="0300"/>
  <anchor x="414" y="570" name="_top"/>
  <anchor x="312" y="828" name="top"/>
  <outline>
    <contour>
      <point x="396" y="672" type="line"/>
      <point x="432" y="672" type="line"/>
      <point x="336" y="828" type="line"/>
      <point x="288" y="828" type="line"/>
    </contour>
  </outline>
</glyph>
<glyph name="acutecomb" format="2">
  <unicode hex="0301"/>
  <anchor x="306" y="570" name="_top"/>
  <anchor x="408" y="828" name="top"/>
  <outline>
    <contour>
      <point x="289" y="672" type="line"/>
      <point x="323" y="672" type="line"/>
      <point x="431" y="828" type="line"/>
      <point x="385" y="828" type="line"/>
    </contour>
  </outline>
</glyph>
<glyph name="circumflexcomb" format="2">
  <unicode hex="0302"/>
  <anchor x="360" y="570" name="_top"/>
  <anchor x="360" y="840" name="top"/>
  <outline>
    <contour>
      <point x="222" y="672" type="line"/>
      <point x="260" y="672" type="line"/>
      <point x="295" y="712"/>
      <point x="328" y="753"/>
      <point x="360" y="793" type="curve"/>
      <point x="390" y="753"/>
      <point x="423" y="712"/>
      <point x="458" y="672" type="curve"/>
      <point x="498" y="672" type="line"/>
      <point x="361" y="846" type="line"/>
      <point x="359" y="846" type="line"/>
    </contour>
  </outline>
</glyph>
<glyph name="macroncomb" format="2">
  <unicode hex="0304"/>
  <anchor x="360" y="570" name="_top"/>
  <anchor x="360" y="767" name="top"/>
  <outline>
    <contour>
      <point x="189" y="733" type="line"/>
      <point x="531" y="733" type="line"/>
      <point x="531" y="767" type="line"/>
      <point x="189" y="767" type="line"/>
    </contour>
  </outline>
</glyph>
<glyph name="brevecomb" format="2">
  <unicode hex="0306"/>
  <anchor x="360" y="570" name="_top"/>
  <anchor x="360" y="810" name="top"/>
  <outline>
    <contour>
      <point x="360" y="662" type="curve" smooth="yes"/>
      <point x="440" y="662"/>
      <point x="507" y="730"/>
      <point x="507" y="810" type="curve"/>
      <point x="473" y="810" type="line"/>
      <point x="471" y="745"/>
      <point x="422" y="694"/>
      <point x="361" y="694" type="curve" smooth="yes"/>
      <point x="300" y="694"/>
      <point x="251" y="745"/>
      <point x="249" y="810" type="curve"/>
      <point x="213" y="810" type="line"/>
      <point x="213" y="730"/>
      <point x="281" y="662"/>
    </contour>
  </outline>
</glyph>
<glyph name="dotaccentcomb" format="2">
  <unicode hex="0307"/>
  <anchor x="360" y="570" name="_top"/>
  <anchor x="360" y="786" name="top"/>
  <outline>
    <contour>
      <point x="360" y="714" type="curve" smooth="yes"/>
      <point x="380" y="714"/>
      <point x="396" y="730"/>
      <point x="396" y="750" type="curve" smooth="yes"/>
      <point x="396" y="770"/>
      <point x="380" y="786"/>
      <point x="360" y="786" type="curve" smooth="yes"/>
      <point x="340" y="786"/>
      <point x="324" y="770"/>
      <point x="324" y="750" type="curve" smooth="yes"/>
      <point x="324" y="730"/>
      <point x="340" y="714"/>
    </contour>
  </outline>
</glyph>
<glyph name="dieresiscomb" format="2">
  <unicode hex="0308"/>
  <anchor x="360" y="570" name="_top"/>
  <anchor x="360" y="786" name="top"/>
  <outline>
    <contour>
      <point x="267" y="714" type="curve" smooth="yes"/>
      <point x="287" y="714"/>
      <point x="303" y="731"/>
      <point x="303" y="750" type="curve" smooth="yes"/>
      <point x="303" y="770"/>
      <point x="287" y="786"/>
      <point x="267" y="786" type="curve" smooth="yes"/>
      <point x="248" y="786"/>
      <point x="231" y="770"/>
      <point x="231" y="750" type="curve" smooth="yes"/>
      <point x="231" y="731"/>
      <point x="248" y="714"/>
    </contour>
    <contour>
      <point x="453" y="714" type="curve" smooth="yes"/>
      <point x="473" y="714"/>
      <point x="489" y="731"/>
      <point x="489" y="750" type="curve" smooth="yes"/>
      <point x="489" y="770"/>
      <point x="473" y="786"/>
      <point x="453" y="786" type="curve" smooth="yes"/>
      <point x="434" y="786"/>
      <point x="417" y="770"/>
      <point x="417" y="750" type="curve" smooth="yes"/>
      <point x="417" y="731"/>
      <point x="434" y="714"/>
    </contour>
  </outline>
</glyph>
<glyph name="hookabovecomb" format="2">
  <unicode hex="0309"/>
  <anchor x="360" y="570" name="_top"/>
  <anchor x="347" y="855" name="top"/>
  <outline>
    <contour>
      <point x="345" y="660" type="curve"/>
      <point x="386" y="660" type="line"/>
      <point x="427" y="699"/>
      <point x="444" y="729"/>
      <point x="444" y="763" type="curve" smooth="yes"/>
      <point x="444" y="817"/>
      <point x="401" y="855"/>
      <point x="340" y="855" type="curve" smooth="yes"/>
      <point x="307" y="855"/>
      <point x="274" y="843"/>
      <point x="248" y="823" type="curve"/>
      <point x="257" y="788" type="line"/>
      <point x="279" y="811"/>
      <point x="307" y="823"/>
      <point x="338" y="823" type="curve" smooth="yes"/>
      <point x="382" y="823"/>
      <point x="410" y="799"/>
      <point x="410" y="761" type="curve" smooth="yes"/>
      <point x="410" y="731"/>
      <point x="395" y="707"/>
    </contour>
  </outline>
</glyph>
<glyph name="ringcomb" format="2">
  <unicode hex="030A"/>
  <anchor x="360" y="570" name="_top"/>
  <anchor x="360" y="858" name="top"/>
  <outline>
    <contour>
      <point x="360" y="639" type="curve" smooth="yes"/>
      <point x="424" y="639"/>
      <point x="474" y="686"/>
      <point x="474" y="750" type="curve" smooth="yes"/>
      <point x="474" y="813"/>
      <point x="422" y="861"/>
      <point x="360" y="861" type="curve" smooth="yes"/>
      <point x="297" y="861"/>
      <point x="246" y="813"/>
      <point x="246" y="750" type="curve" smooth="yes"/>
      <point x="246" y="687"/>
      <point x="297" y="639"/>
    </contour>
    <contour>
      <point x="360" y="672" type="curve" smooth="yes"/>
      <point x="317" y="672"/>
      <point x="282" y="707"/>
      <point x="282" y="750" type="curve" smooth="yes"/>
      <point x="282" y="793"/>
      <point x="317" y="828"/>
      <point x="360" y="828" type="curve" smooth="yes"/>
      <point x="402" y="828"/>
      <point x="438" y="793"/>
      <point x="438" y="750" type="curve" smooth="yes"/>
      <point x="438" y="707"/>
      <point x="403" y="672"/>
    </contour>
  </outline>
</glyph>
<glyph name="hungarumlautcomb" format="2">
  <unicode hex="030B"/>
  <anchor x="306" y="570" name="_top"/>
  <anchor x="408" y="828" name="top"/>
  <outline>
    <contour>
      <point x="369" y="672" type="line"/>
      <point x="403" y="672" type="line"/>
      <point x="511" y="828" type="line"/>
      <point x="465" y="828" type="line"/>
    </contour>
    <contour>
      <point x="209" y="672" type="line"/>
      <point x="243" y="672" type="line"/>
      <point x="351" y="828" type="line"/>
      <point x="305" y="828" type="line"/>
    </contour>
  </outline>
</glyph>
<glyph name="caroncomb" format="2">
  <unicode hex="030C"/>
  <anchor x="360" y="570" name="_top"/>
  <anchor x="360" y="840" name="top"/>
  <outline>
    <contour>
      <point x="359" y="654" type="line"/>
      <point x="361" y="654" type="line"/>
      <point x="498" y="828" type="line"/>
      <point x="462" y="828" type="line"/>
      <point x="426" y="787"/>
      <point x="392" y="745"/>
      <point x="360" y="704" type="curve"/>
      <point x="329" y="745"/>
      <point x="296" y="787"/>
      <point x="260" y="828" type="curve"/>
      <point x="222" y="828" type="line"/>
    </contour>
  </outline>
</glyph>
<glyph name="dblgravecomb" format="2">
  <unicode hex="030F"/>
  <anchor x="414" y="570" name="_top"/>
  <anchor x="312" y="828" name="top"/>
  <outline>
    <contour>
      <point x="477" y="672" type="line"/>
      <point x="511" y="672" type="line"/>
      <point x="415" y="828" type="line"/>
      <point x="369" y="828" type="line"/>
    </contour>
    <contour>
      <point x="317" y="672" type="line"/>
      <point x="351" y="672" type="line"/>
      <point x="255" y="828" type="line"/>
      <point x="209" y="828" type="line"/>
    </contour>
  </outline>
</glyph>
<glyph name="breveinvertedcomb" format="2">
  <unicode hex="0311"/>
  <anchor x="360" y="570" name="_top"/>
  <anchor x="360" y="810" name="top"/>
  <outline>
    <contour>
      <point x="213" y="672" type="curve"/>
      <point x="247" y="672" type="line"/>
      <point x="249" y="737"/>
      <point x="298" y="788"/>
      <point x="359" y="788" type="curve" smooth="yes"/>
      <point x="420" y="788"/>
      <point x="469" y="737"/>
      <point x="471" y="672" type="curve"/>
      <point x="507" y="672" type="line"/>
      <point x="507" y="752"/>
      <point x="439" y="820"/>
      <point x="360" y="820" type="curve" smooth="yes"/>
      <point x="280" y="820"/>
      <point x="213" y="752"/>
    </contour>
  </outline>
</glyph>
<glyph name="commaturnedabovecomb" format="2">
  <unicode hex="0312"/>
  <anchor x="360" y="600" name="_top"/>
  <anchor x="402" y="930" name="top"/>
  <outline>
    <contour>
      <point x="337" y="732" type="curve"/>
      <point x="383" y="732" type="line"/>
      <point x="390" y="812"/>
      <point x="426" y="877"/>
      <point x="468" y="930" type="curve"/>
      <point x="412" y="930" type="line"/>
      <point x="374" y="872"/>
      <point x="343" y="806"/>
    </contour>
  </outline>
</glyph>
<glyph name="horncomb" format="2">
  <unicode hex="031B"/>
  <anchor x="264" y="600" name="_topright"/>
  <outline>
    <contour>
      <point x="300" y="419" type="curve" smooth="yes"/>
      <point x="369" y="419"/>
      <point x="433" y="469"/>
      <point x="433" y="568" type="curve" smooth="yes"/>
      <point x="433" y="593"/>
      <point x="428" y="627"/>
      <point x="411" y="660" type="curve"/>
      <point x="368" y="660" type="line"/>
      <point x="390" y="627"/>
      <point x="395" y="595"/>
      <point x="395" y="568" type="curve" smooth="yes"/>
      <point x="395" y="488"/>
      <point x="353" y="455"/>
      <point x="300" y="455" type="curve" smooth="yes"/>
      <point x="287" y="455"/>
      <point x="276" y="457"/>
      <point x="264" y="463" type="curve"/>
      <point x="264" y="424" type="line"/>
      <point x="275" y="421"/>
      <point x="289" y="419"/>
    </contour>
  </outline>
</glyph>
<glyph name="dotbelowcomb" format="2">
  <unicode hex="0323"/>
  <anchor x="360" y="0" name="_bottom"/>
  <anchor x="360" y="-216" name="bottom"/>
  <outline>
    <contour>
      <point x="360" y="-216" type="curve" smooth="yes"/>
      <point x="380" y="-216"/>
      <point x="396" y="-200"/>
      <point x="396" y="-180" type="curve" smooth="yes"/>
      <point x="396" y="-160"/>
      <point x="380" y="-144"/>
      <point x="360" y="-144" type="curve" smooth="yes"/>
      <point x="340" y="-144"/>
      <point x="324" y="-160"/>
      <point x="324" y="-180" type="curve" smooth="yes"/>
      <point x="324" y="-200"/>
      <point x="340" y="-216"/>
    </contour>
  </outline>
</glyph>
<glyph name="dieresisbelowcomb" format="2">
  <unicode hex="0324"/>
  <anchor x="360" y="0" name="_bottom"/>
  <anchor x="360" y="-228" name="bottom"/>
  <outline>
    <contour>
      <point x="453" y="-216" type="curve" smooth="yes"/>
      <point x="472" y="-216"/>
      <point x="489" y="-200"/>
      <point x="489" y="-180" type="curve" smooth="yes"/>
      <point x="489" y="-161"/>
      <point x="472" y="-144"/>
      <point x="453" y="-144" type="curve" smooth="yes"/>
      <point x="433" y="-144"/>
      <point x="417" y="-161"/>
      <point x="417" y="-180" type="curve" smooth="yes"/>
      <point x="417" y="-200"/>
      <point x="433" y="-216"/>
    </contour>
    <contour>
      <point x="267" y="-216" type="curve" smooth="yes"/>
      <point x="286" y="-216"/>
      <point x="303" y="-200"/>
      <point x="303" y="-180" type="curve" smooth="yes"/>
      <point x="303" y="-161"/>
      <point x="286" y="-144"/>
      <point x="267" y="-144" type="curve" smooth="yes"/>
      <point x="247" y="-144"/>
      <point x="231" y="-161"/>
      <point x="231" y="-180" type="curve" smooth="yes"/>
      <point x="231" y="-200"/>
      <point x="247" y="-216"/>
    </contour>
  </outline>
</glyph>
<glyph name="commaaccentcomb" format="2">
  <unicode hex="0326"/>
  <anchor x="360" y="0" name="_bottom"/>
  <anchor x="283" y="-330" name="bottom"/>
  <outline>
    <contour>
      <point x="259" y="-330" type="curve"/>
      <point x="307" y="-330" type="line"/>
      <point x="349" y="-272"/>
      <point x="375" y="-206"/>
      <point x="381" y="-132" type="curve"/>
      <point x="339" y="-132" type="line"/>
      <point x="333" y="-212"/>
      <point x="301" y="-277"/>
    </contour>
  </outline>
</glyph>
<glyph name="cedillacomb" format="2">
  <unicode hex="0327"/>
  <anchor x="449" y="0" name="_bottom"/>
  <anchor x="277" y="-180" name="bottom"/>
  <outline>
    <contour>
      <point x="250" y="-180" type="line"/>
      <point x="304" y="-180" type="line"/>
      <point x="470" y="0" type="line"/>
      <point x="428" y="0" type="line"/>
    </contour>
  </outline>
</glyph>
<glyph name="brevebelowcomb" format="2">
  <unicode hex="032E"/>
  <anchor x="360" y="0" name="_bottom"/>
  <anchor x="360" y="-250" name="bottom"/>
  <outline>
    <contour>
      <point x="360" y="-250" type="curve" smooth="yes"/>
      <point x="440" y="-250"/>
      <point x="507" y="-182"/>
      <point x="507" y="-102" type="curve"/>
      <point x="473" y="-102" type="line"/>
      <point x="471" y="-167"/>
      <point x="422" y="-218"/>
      <point x="361" y="-218" type="curve" smooth="yes"/>
      <point x="300" y="-218"/>
      <point x="251" y="-167"/>
      <point x="249" y="-102" type="curve"/>
      <point x="213" y="-102" type="line"/>
      <point x="213" y="-182"/>
      <point x="281" y="-250"/>
    </contour>
  </outline>
</glyph>
<glyph name="strokelongcomb" format="2">
  <unicode hex="0336"/>
  <anchor x="400" y="450" name="_center"/>
  <outline>
    <contour>
      <point x="60" y="432" type="line"/>
      <point x="740" y="432" type="line"/>
      <point x="740" y="468" type="line"/>
      <point x="60" y="468" type="line"/>
    </contour>
  </outline>
</glyph>
<glyph name="slashshortcomb" format="2">
  <unicode hex="0337"/>
  <anchor x="278" y="300" name="_center"/>
  <outline>
    <contour>
      <point x="112" y="213" type="line"/>
      <point x="130" y="185" type="line"/>
      <point x="438" y="387" type="line"/>
      <point x="420" y="415" type="line"/>
    </contour>
  </outline>
</glyph>
<glyph name="slashlongcomb" format="2">
  <unicode hex="0338"/>
  <anchor x="275" y="285" name="_center"/>
  <outline>
    <contour>
      <point x="45" y="-18" type="line"/>
      <point x="534" y="563" type="line"/>
      <point x="505" y="588" type="line"/>
      <point x="16" y="7" type="line"/>
    </contour>
  </outline>
</glyph>
<glyph name="pi" format="2">
  <advance width="700"/>
  <unicode hex="03C0"/>
  <outline>
    <contour>
      <point x="109" y="0" type="line"/>
      <point x="151" y="0" type="line"/>
      <point x="151" y="532" type="line"/>
      <point x="549" y="532" type="line"/>
      <point x="549" y="0" type="line"/>
      <point x="591" y="0" type="line"/>
      <point x="591" y="570" type="line"/>
      <point x="109" y="570" type="line"/>
    </contour>
  </outline>
</glyph>
<glyph name="baht" format="2">
  <advance width="750"/>
  <unicode hex="0E3F"/>
  <outline>
    <contour>
      <point x="352" y="-120" type="line"/>
      <point x="388" y="-120" type="line"/>
      <point x="388" y="0" type="line"/>
      <point x="562" y="3"/>
      <point x="672" y="120"/>
      <point x="672" y="270" type="curve" smooth="yes"/>
      <point x="672" y="395"/>
      <point x="593" y="500"/>
      <point x="455" y="532" type="curve"/>
      <point x="537" y="559"/>
      <point x="591" y="628"/>
      <point x="591" y="709" type="curve" smooth="yes"/>
      <point x="591" y="810"/>
      <point x="509" y="894"/>
      <point x="388" y="900" type="curve"/>
      <point x="388" y="990" type="line"/>
      <point x="352" y="990" type="line"/>
      <point x="352" y="900" type="line"/>
      <point x="146" y="900" type="line"/>
      <point x="146" y="0" type="line"/>
      <point x="352" y="0" type="line"/>
    </contour>
    <contour>
      <point x="190" y="38" type="line"/>
      <point x="190" y="510" type="line"/>
      <point x="358" y="510" type="line" smooth="yes"/>
      <point x="535" y="510"/>
      <point x="628" y="405"/>
      <point x="628" y="274" type="curve" smooth="yes"/>
      <point x="628" y="141"/>
      <point x="535" y="38"/>
      <point x="370" y="38" type="curve" smooth="yes"/>
    </contour>
    <contour>
      <point x="190" y="546" type="line"/>
      <point x="190" y="862" type="line"/>
      <point x="371" y="862" type="line" smooth="yes"/>
      <point x="480" y="862"/>
      <point x="549" y="792"/>
      <point x="549" y="705" type="curve" smooth="yes"/>
      <point x="549" y="617"/>
      <point x="480" y="546"/>
      <point x="365" y="546" type="curve" smooth="yes"/>
    </contour>
  </outline>
</glyph>
<glyph name="Germandbls" format="2">
  <advance width="950"/>
  <unicode hex="1E9E"/>
  <outline>
    <contour>
      <point x="582" y="-12" type="curve" smooth="yes"/>
      <point x="748" y="-12"/>
      <point x="882" y="121"/>
      <point x="882" y="285" type="curve" smooth="yes"/>
      <point x="882" y="434"/>
      <point x="770" y="560"/>
      <point x="619" y="578" type="curve"/>
      <point x="804" y="899" type="line"/>
      <point x="804" y="900" type="line"/>
      <point x="136" y="900" type="line"/>
      <point x="136" y="0" type="line"/>
      <point x="180" y="0" type="line"/>
      <point x="180" y="862" type="line"/>
      <point x="739" y="862" type="line"/>
      <point x="554" y="541" type="line"/>
      <point x="555" y="540" type="line"/>
      <point x="566" y="541"/>
      <point x="575" y="542"/>
      <point x="585" y="542" type="curve" smooth="yes"/>
      <point x="724" y="542"/>
      <point x="838" y="427"/>
      <point x="838" y="285" type="curve" smooth="yes"/>
      <point x="838" y="142"/>
      <point x="724" y="28"/>
      <point x="582" y="28" type="curve" smooth="yes"/>
      <point x="483" y="28"/>
      <point x="392" y="85"/>
      <point x="346" y="177" type="curve"/>
      <point x="321" y="133" type="line"/>
      <point x="379" y="42"/>
      <point x="477" y="-12"/>
    </contour>
  </outline>
</glyph>
<glyph name="endash" format="2">
  <advance width="720"/>
  <unicode hex="2013"/>
  <outline>
    <contour>
      <point x="70" y="282" type="line"/>
      <point x="650" y="282" type="line"/>
      <point x="650" y="318" type="line"/>
      <point x="70" y="318" type="line"/>
    </contour>
  </outline>
</glyph>
<glyph name="emdash" format="2">
  <advance width="1440"/>
  <unicode hex="2014"/>
  <outline>
    <contour>
      <point x="60" y="281" type="line"/>
      <point x="1380" y="281" type="line"/>
      <point x="1380" y="319" type="line"/>
      <point x="60" y="319" type="line"/>
    </contour>
  </outline>
</glyph>
<glyph name="quoteleft" format="2">
  <advance width="240"/>
  <unicode hex="2018"/>
  <outline>
    <contour>
      <point x="69" y="630" type="curve"/>
      <point x="111" y="630" type="line"/>
      <point x="111" y="737"/>
      <point x="147" y="828"/>
      <point x="207" y="900" type="curve"/>
      <point x="156" y="900" type="line"/>
      <point x="97" y="814"/>
      <point x="69" y="724"/>
    </contour>
  </outline>
</glyph>
<glyph name="quoteright" format="2">
  <advance width="240"/>
  <unicode hex="2019"/>
  <outline>
    <contour>
      <point x="33" y="630" type="curve"/>
      <point x="84" y="630" type="line"/>
      <point x="143" y="716"/>
      <point x="171" y="806"/>
      <point x="171" y="900" type="curve"/>
      <point x="129" y="900" type="line"/>
      <point x="129" y="793"/>
      <point x="93" y="702"/>
    </contour>
  </outline>
</glyph>
<glyph name="quotesinglbase" format="2">
  <advance width="240"/>
  <unicode hex="201A"/>
  <outline>
    <contour>
      <point x="33" y="-150" type="curve"/>
      <point x="84" y="-150" type="line"/>
      <point x="143" y="-64"/>
      <point x="171" y="26"/>
      <point x="171" y="120" type="curve"/>
      <point x="129" y="120" type="line"/>
      <point x="129" y="13"/>
      <point x="93" y="-78"/>
    </contour>
  </outline>
</glyph>
<glyph name="dagger" format="2">
  <advance width="600"/>
  <unicode hex="2020"/>
  <outline>
    <contour>
      <point x="279" y="0" type="line"/>
      <point x="321" y="0" type="line"/>
      <point x="318" y="614" type="line"/>
      <point x="516" y="611" type="line"/>
      <point x="516" y="649" type="line"/>
      <point x="318" y="646" type="line"/>
      <point x="321" y="900" type="line"/>
      <point x="279" y="900" type="line"/>
      <point x="282" y="646" type="line"/>
      <point x="84" y="649" type="line"/>
      <point x="84" y="611" type="line"/>
      <point x="282" y="614" type="line"/>
    </contour>
  </outline>
</glyph>
<glyph name="daggerdbl" format="2">
  <advance width="600"/>
  <unicode hex="2021"/>
  <outline>
    <contour>
      <point x="279" y="0" type="line"/>
      <point x="321" y="0" type="line"/>
      <point x="318" y="254" type="line"/>
      <point x="516" y="251" type="line"/>
      <point x="516" y="289" type="line"/>
      <point x="318" y="286" type="line"/>
      <point x="321" y="450" type="line"/>
      <point x="318" y="614" type="line"/>
      <point x="516" y="611" type="line"/>
      <point x="516" y="649" type="line"/>
      <point x="318" y="646" type="line"/>
      <point x="321" y="900" type="line"/>
      <point x="279" y="900" type="line"/>
      <point x="282" y="646" type="line"/>
      <point x="84" y="649" type="line"/>
      <point x="84" y="611" type="line"/>
      <point x="282" y="614" type="line"/>
      <point x="279" y="450" type="line"/>
      <point x="282" y="286" type="line"/>
      <point x="84" y="289" type="line"/>
      <point x="84" y="251" type="line"/>
      <point x="282" y="254" type="line"/>
    </contour>
  </outline>
</glyph>
<glyph name="ellipsis" format="2">
  <advance width="1440"/>
  <unicode hex="2026"/>
  <outline>
    <contour>
      <point x="1200" y="-8" type="curve" smooth="yes"/>
      <point x="1223" y="-8"/>
      <point x="1242" y="11"/>
      <point x="1242" y="34" type="curve" smooth="yes"/>
      <point x="1242" y="57"/>
      <point x="1223" y="76"/>
      <point x="1200" y="76" type="curve" smooth="yes"/>
      <point x="1177" y="76"/>
      <point x="1158" y="57"/>
      <point x="1158" y="34" type="curve" smooth="yes"/>
      <point x="1158" y="11"/>
      <point x="1177" y="-8"/>
    </contour>
    <contour>
      <point x="240" y="-8" type="curve" smooth="yes"/>
      <point x="263" y="-8"/>
      <point x="282" y="11"/>
      <point x="282" y="34" type="curve" smooth="yes"/>
      <point x="282" y="57"/>
      <point x="263" y="76"/>
      <point x="240" y="76" type="curve" smooth="yes"/>
      <point x="217" y="76"/>
      <point x="198" y="57"/>
      <point x="198" y="34" type="curve" smooth="yes"/>
      <point x="198" y="11"/>
      <point x="217" y="-8"/>
    </contour>
    <contour>
      <point x="720" y="-8" type="curve" smooth="yes"/>
      <point x="743" y="-8"/>
      <point x="762" y="11"/>
      <point x="762" y="34" type="curve" smooth="yes"/>
      <point x="762" y="57"/>
      <point x="743" y="76"/>
      <point x="720" y="76" type="curve" smooth="yes"/>
      <point x="697" y="76"/>
      <point x="678" y="57"/>
      <point x="678" y="34" type="curve" smooth="yes"/>
      <point x="678" y="11"/>
      <point x="697" y="-8"/>
    </contour>
  </outline>
</glyph>
<glyph name="minute" format="2">
  <advance width="250"/>
  <unicode hex="2032"/>
  <outline>
    <contour>
      <point x="66" y="600" type="line"/>
      <point x="96" y="600" type="line"/>
      <point x="260" y="900" type="line"/>
      <point x="206" y="900" type="line"/>
    </contour>
  </outline>
</glyph>
<glyph name="guilsinglleft" format="2">
  <advance width="300"/>
  <unicode hex="2039"/>
  <outline>
    <contour>
      <point x="202" y="105" type="line"/>
      <point x="255" y="105" type="line"/>
      <point x="62" y="285" type="line"/>
      <point x="255" y="464" type="line"/>
      <point x="202" y="464" type="line"/>
      <point x="9" y="285" type="line"/>
    </contour>
  </outline>
</glyph>
<glyph name="guilsinglright" format="2">
  <advance width="300"/>
  <unicode hex="203A"/>
  <outline>
    <contour>
      <point x="45" y="105" type="line"/>
      <point x="98" y="105" type="line"/>
      <point x="291" y="284" type="line"/>
      <point x="98" y="464" type="line"/>
      <point x="45" y="464" type="line"/>
      <point x="238" y="284" type="line"/>
    </contour>
  </outline>
</glyph>
<glyph name="fraction" format="2">
  <advance width="60"/>
  <unicode hex="2044"/>
  <outline>
    <contour>
      <point x="-301" y="0" type="line"/>
      <point x="-255" y="0" type="line"/>
      <point x="361" y="900" type="line"/>
      <point x="315" y="900" type="line"/>
    </contour>
  </outline>
</glyph>
<glyph name="commercialMinusSign" format="2">
  <advance width="750"/>
  <unicode hex="2052"/>
  <outline>
    <contour>
      <point x="126" y="0" type="line"/>
      <point x="170" y="0" type="line"/>
      <point x="624" y="900" type="line"/>
      <point x="580" y="900" type="line"/>
    </contour>
    <contour>
      <point x="195" y="618" type="curve" smooth="yes"/>
      <point x="220" y="618"/>
      <point x="237" y="636"/>
      <point x="237" y="660" type="curve" smooth="yes"/>
      <point x="237" y="684"/>
      <point x="220" y="702"/>
      <point x="195" y="702" type="curve" smooth="yes"/>
      <point x="171" y="702"/>
      <point x="153" y="684"/>
      <point x="153" y="660" type="curve" smooth="yes"/>
      <point x="153" y="636"/>
      <point x="171" y="618"/>
    </contour>
    <contour>
      <point x="555" y="198" type="curve" smooth="yes"/>
      <point x="580" y="198"/>
      <point x="597" y="216"/>
      <point x="597" y="240" type="curve" smooth="yes"/>
      <point x="597" y="264"/>
      <point x="580" y="282"/>
      <point x="555" y="282" type="curve" smooth="yes"/>
      <point x="531" y="282"/>
      <point x="513" y="264"/>
      <point x="513" y="240" type="curve" smooth="yes"/>
      <point x="513" y="216"/>
      <point x="531" y="198"/>
    </contour>
  </outline>
</glyph>
